<svg width="212" height="220" viewBox="0 0 212 220" fill="none" xmlns="http://www.w3.org/2000/svg">
<path d="M59.7575 105.696C59.7575 108.405 60.0225 110.605 60.526 112.227C61.0825 113.836 61.798 115.596 62.7785 117.507C63.0914 118.012 63.2612 118.598 63.2687 119.199C63.2687 119.927 62.8447 120.67 61.9437 121.399L57.4917 124.479C56.9573 124.879 56.3217 125.109 55.6632 125.139C54.9477 125.139 54.2455 124.781 53.5432 124.121C52.5909 123.058 51.739 121.902 50.9992 120.67C50.2155 119.259 49.4905 117.814 48.8262 116.339C43.3142 123.09 36.411 126.472 28.09 126.472C22.1672 126.472 17.437 124.699 13.992 121.179C10.5337 117.659 8.77148 112.956 8.77148 107.085C8.77148 100.843 10.8915 95.7825 15.1845 91.96C19.4907 88.1375 25.2015 86.24 32.4625 86.24C34.8475 86.24 37.3252 86.46 39.9355 86.8175C42.5457 87.1888 45.2355 87.78 48.0445 88.44V83.0775C48.0445 77.495 46.9182 73.6038 44.732 71.335C42.4795 69.0525 38.6635 67.9525 33.231 67.9525C30.7665 67.9525 28.2357 68.255 25.6255 68.915C23.0321 69.5555 20.486 70.3872 18.0067 71.4037C17.2063 71.7798 16.383 72.1014 15.5422 72.3663C15.1779 72.4912 14.7992 72.5652 14.416 72.5862C13.4222 72.5862 12.932 71.8438 12.932 70.3038V66.7013C12.932 65.5325 13.0645 64.6388 13.4222 64.1438C13.9562 63.4691 14.6375 62.9364 15.4097 62.59C17.861 61.27 20.829 60.17 24.2872 59.29C27.7322 58.3275 31.4025 57.9013 35.2847 57.9013C43.672 57.9013 49.8067 59.8813 53.7552 63.8413C57.6375 67.8013 59.6117 73.8237 59.6117 81.9087V105.696H59.7442H59.7575ZM31.1242 116.847C33.443 116.847 35.8412 116.408 38.3852 115.528C40.9292 114.648 43.1817 113.025 45.0765 110.825C46.2127 109.474 47.0333 107.87 47.4747 106.136C47.8987 104.362 48.1902 102.245 48.1902 99.7425V96.6625C46.0501 96.1239 43.8826 95.7108 41.6977 95.425C39.5007 95.1301 37.288 94.9785 35.0727 94.9713C30.3425 94.9713 26.8975 95.9337 24.5655 97.9137C22.2335 99.8937 21.1205 102.685 21.1205 106.356C21.1205 109.794 21.9552 112.365 23.7175 114.139C25.4135 115.967 27.878 116.847 31.1242 116.847ZM87.7415 124.781C86.4695 124.781 85.6215 124.561 85.065 124.039C84.4952 123.599 84.005 122.581 83.581 121.179L67.0185 64.4325C66.6963 63.4808 66.4829 62.4933 66.3825 61.49C66.3825 60.3213 66.939 59.6613 68.0652 59.6613H74.9817C76.3067 59.6613 77.2342 59.8813 77.7245 60.39C78.2942 60.83 78.7182 61.8613 79.1422 63.25L90.9877 111.856L101.985 63.25C102.33 61.7925 102.754 60.83 103.323 60.39C104.17 59.8524 105.155 59.5979 106.146 59.6613H111.79C113.115 59.6613 114.043 59.8813 114.599 60.39C115.169 60.83 115.659 61.8613 115.951 63.25L127.081 112.448L139.271 63.25C139.497 62.1856 139.986 61.2003 140.688 60.39C141.51 59.8509 142.475 59.5958 143.444 59.6613H150.003C151.129 59.6613 151.765 60.2525 151.765 61.49C151.765 61.8613 151.686 62.2325 151.633 62.6725C151.518 63.2966 151.35 63.9086 151.129 64.5013L134.13 121.247C133.719 122.719 133.215 123.681 132.659 124.121C131.859 124.652 130.917 124.907 129.969 124.85H123.914C122.576 124.85 121.661 124.63 121.092 124.121C120.522 123.599 120.032 122.65 119.753 121.179L108.822 73.8375L97.9572 121.124C97.6127 122.595 97.1887 123.544 96.6322 124.053C96.0625 124.575 95.0687 124.795 93.81 124.795H87.7415V124.781ZM178.345 126.761C174.686 126.766 171.039 126.323 167.48 125.441C163.955 124.561 161.213 123.599 159.371 122.499C158.245 121.839 157.476 121.11 157.185 120.436C156.916 119.789 156.776 119.092 156.774 118.387V114.648C156.774 113.108 157.33 112.365 158.39 112.365C158.823 112.366 159.253 112.44 159.662 112.585C160.086 112.736 160.722 113.025 161.425 113.327C163.81 114.427 166.433 115.307 169.176 115.899C171.998 116.476 174.741 116.779 177.563 116.779C182.015 116.779 185.46 115.968 187.858 114.359C189.011 113.635 189.957 112.607 190.602 111.38C191.247 110.153 191.566 108.771 191.529 107.374C191.553 106.431 191.396 105.492 191.069 104.611C190.741 103.731 190.249 102.927 189.621 102.245C188.362 100.842 185.964 99.5913 182.505 98.4225L172.276 95.1225C167.135 93.4313 163.319 90.9288 161.001 87.6288C158.731 84.5796 157.492 80.8393 157.476 76.9863C157.476 73.9063 158.112 71.1838 159.371 68.8325C160.643 66.495 162.339 64.4325 164.459 62.81C166.579 61.1325 168.964 59.8813 171.786 59.0013C174.608 58.1213 177.563 57.75 180.664 57.75C182.227 57.75 183.844 57.8188 185.394 58.0388C187.01 58.2588 188.494 58.5613 189.978 58.8638C191.383 59.2213 192.734 59.5788 193.993 60.0325C195.265 60.4725 196.246 60.9125 196.961 61.3525C197.793 61.7865 198.518 62.412 199.081 63.1812C199.535 63.8972 199.753 64.746 199.704 65.6013V69.0525C199.704 70.5925 199.147 71.4037 198.087 71.4037C197.149 71.2925 196.24 70.9937 195.411 70.5238C191.15 68.5638 186.53 67.5879 181.869 67.6638C177.855 67.6638 174.675 68.3238 172.488 69.7263C170.302 71.1013 169.176 73.2463 169.176 76.2575C169.176 78.3063 169.878 80.0663 171.296 81.4688C172.7 82.8575 175.311 84.2463 179.047 85.4975L189.064 88.7975C194.139 90.4888 197.809 92.84 199.995 95.8513C202.182 98.8625 203.228 102.314 203.228 106.136C203.228 109.299 202.606 112.145 201.4 114.648C200.152 117.159 198.399 119.363 196.259 121.11C194.073 122.939 191.462 124.272 188.428 125.221C185.248 126.253 181.936 126.761 178.345 126.761Z" fill="black"/>
<path fill-rule="evenodd" clip-rule="evenodd" d="M191.662 162.429C168.475 180.263 134.767 189.736 105.789 189.736C65.1778 189.736 28.5813 174.103 0.941779 148.115C-1.24447 146.053 0.729779 143.261 3.32678 144.884C33.232 162.938 70.1068 173.883 108.267 173.883C133.985 173.883 162.261 168.3 188.284 156.846C192.166 155.018 195.478 159.486 191.662 162.429Z" fill="black"/>
<path fill-rule="evenodd" clip-rule="evenodd" d="M201.321 150.975C198.366 147.029 181.724 149.078 174.185 150.026C171.932 150.329 171.575 148.266 173.615 146.726C186.865 137.033 208.661 139.824 211.192 143.055C213.736 146.355 210.49 169.043 198.075 179.905C196.18 181.596 194.351 180.73 195.199 178.53C198.008 171.243 204.289 154.88 201.321 150.989V150.975Z" fill="black"/>
</svg>
