<svg width="511" height="322" viewBox="0 0 511 322" fill="none" xmlns="http://www.w3.org/2000/svg">
<path d="M60.5285 134.946C93.9574 134.946 121.057 104.737 121.057 67.473C121.057 30.2087 93.9574 0 60.5285 0C27.0995 0 0 30.2087 0 67.473C0 104.737 27.0995 134.946 60.5285 134.946Z" fill="#F0F0F0"/>
<path d="M450.472 134.946C483.901 134.946 511 104.737 511 67.473C511 30.2087 483.901 0 450.472 0C417.043 0 389.943 30.2087 389.943 67.473C389.943 104.737 417.043 134.946 450.472 134.946Z" fill="#F0F0F0"/>
<path d="M243.861 134.946C276.968 134.946 303.807 104.737 303.807 67.473C303.807 30.2087 276.968 0 243.861 0C210.753 0 183.914 30.2087 183.914 67.473C183.914 104.737 210.753 134.946 243.861 134.946Z" fill="#F0F0F0"/>
<path d="M480.161 97.5C475.42 94.6316 470.47 92.2405 465.369 90.3537L464.718 82.0929L438.336 78.8301L434.983 89.3887L425.515 93.4673C425.176 93.6149 424.854 93.8077 424.554 94.0418H424.544C422.994 94.1925 421.501 94.7848 420.2 95.7652C419.319 96.4114 418.534 97.2186 417.879 98.1549C419.16 99.2694 420.49 100.303 421.862 101.292L421.922 101.326C422.312 101.602 422.713 101.877 423.113 102.142C423.834 102.636 424.574 103.107 425.315 103.555L425.785 103.831C426.866 104.474 427.967 105.083 429.098 105.646C429.328 105.761 429.579 105.876 429.809 105.991C429.829 106.002 429.839 106.002 429.858 106.014C430.389 106.266 430.919 106.508 431.46 106.737C433.235 107.516 435.046 108.183 436.884 108.736C441.576 110.172 446.411 110.898 451.266 110.896C453.038 110.896 454.79 110.805 456.521 110.609C460.477 110.19 464.383 109.285 468.171 107.909C468.18 107.909 468.191 107.898 468.201 107.898C470.594 107.023 472.931 105.959 475.197 104.715C475.206 104.704 475.227 104.704 475.237 104.692C475.748 104.417 476.238 104.118 476.738 103.831L476.978 103.693C477.379 103.451 477.779 103.21 478.18 102.957C479.18 102.326 480.161 101.659 481.131 100.947C481.402 100.763 481.662 100.568 481.932 100.361C482.313 100.074 482.693 99.775 483.063 99.4647C482.133 98.7753 481.162 98.1204 480.161 97.5Z" fill="#34609D"/>
<path d="M449.89 73.4857C460.497 73.4857 469.096 63.9146 469.096 52.1081C469.096 40.3016 460.497 30.7305 449.89 30.7305C439.282 30.7305 430.684 40.3016 430.684 52.1081C430.684 63.9146 439.282 73.4857 449.89 73.4857Z" fill="#A0616A"/>
<path d="M437.922 41.7562C439.884 44.4161 443.206 45.1666 446.27 45.4744C452.493 46.0993 461.541 45.0856 467.623 43.4778C468.057 48.2951 466.873 53.4894 469.351 57.4521C470.512 52.6546 471.188 47.7199 471.364 42.7455C471.549 40.6112 471.305 38.4568 470.652 36.4467C470.303 35.4393 469.714 34.5643 468.952 33.9212C468.191 33.278 467.287 32.8925 466.343 32.8084C467.755 31.5813 469.41 30.7712 471.161 30.4497L465.14 26.9851L466.686 25.1675L455.787 24.4038L458.944 22.1072C454.193 21.3595 449.386 21.1858 444.603 21.5887C442.382 21.7761 440.059 22.1341 438.26 23.6078C436.46 25.0815 435.42 28.0104 436.538 30.1741C435.139 30.4371 433.822 31.1047 432.712 32.1135C431.601 33.1224 430.734 34.4393 430.193 35.9393C429.508 38.3235 429.342 40.8633 429.711 43.3375C430.122 47.3071 430.927 51.2099 432.112 54.97L437.922 41.7562Z" fill="#2F2E41"/>
<path d="M247.351 30.7301C251.53 30.7301 254.917 26.8419 254.917 22.0455C254.917 17.2491 251.53 13.3608 247.351 13.3608C243.173 13.3608 239.785 17.2491 239.785 22.0455C239.785 26.8419 243.173 30.7301 247.351 30.7301Z" fill="#2F2E41"/>
<path d="M240.198 26.6827C239.193 25.6507 238.45 24.3498 238.039 22.9072C237.629 21.4646 237.567 19.9297 237.858 18.4525C238.149 16.9754 238.784 15.6065 239.7 14.4799C240.617 13.3532 241.784 12.5073 243.087 12.0249C241.995 12.2002 240.949 12.6236 240.015 13.2679C239.08 13.9122 238.278 14.7635 237.66 15.7674C237.041 16.7712 236.619 17.9058 236.422 19.0987C236.224 20.2915 236.254 21.5166 236.511 22.6958C236.768 23.8751 237.245 24.9826 237.913 25.9478C238.58 26.913 239.424 27.7148 240.389 28.302C241.354 28.8892 242.419 29.2491 243.518 29.3585C244.616 29.468 245.724 29.3248 246.769 28.9379C245.59 29.1294 244.386 29.026 243.249 28.6354C242.111 28.2449 241.068 27.5772 240.197 26.6821L240.198 26.6827Z" fill="#2F2E41"/>
<path d="M247.352 80.1662C260.531 80.1662 271.215 68.2023 271.215 53.4442C271.215 38.686 260.531 26.7222 247.352 26.7222C234.174 26.7222 223.49 38.686 223.49 53.4442C223.49 68.2023 234.174 80.1662 247.352 80.1662Z" fill="#2F2E41"/>
<path d="M226.205 38.4608C230.354 33.2002 236.153 29.9626 242.379 29.4315C248.605 28.9003 254.771 31.1171 259.574 35.614C259.378 35.4026 259.182 35.19 258.978 34.9853C254.222 30.1812 247.968 27.7041 241.591 28.099C235.215 28.494 229.239 31.7286 224.978 37.0913C220.717 42.4539 218.52 49.5055 218.87 56.6945C219.221 63.8835 222.089 70.6213 226.846 75.4254C226.892 75.4716 226.937 75.5175 226.983 75.5633C227.188 75.7681 227.398 75.9618 227.607 76.1577C223.083 71.3057 220.408 64.6619 220.147 57.6286C219.886 50.5952 222.058 43.7225 226.206 38.4608H226.205Z" fill="#2F2E41"/>
<path d="M246.771 80.1658C255.128 80.1658 261.903 72.3893 261.903 62.7965C261.903 53.2037 255.128 45.4272 246.771 45.4272C238.414 45.4272 231.639 53.2037 231.639 62.7965C231.639 72.3893 238.414 80.1658 246.771 80.1658Z" fill="#A0616A"/>
<path d="M275.042 104.93L275.508 110.662C274.622 111.409 273.723 112.113 272.802 112.787C272.434 113.056 272.065 113.315 271.696 113.573L271.474 113.722C271.011 114.032 270.559 114.351 270.086 114.651C270.078 114.662 270.058 114.664 270.049 114.676C267.951 116.025 265.769 117.21 263.519 118.221C263.51 118.222 263.501 118.234 263.491 118.235C259.929 119.827 256.217 120.986 252.419 121.692C250.757 122.012 249.068 122.236 247.353 122.375C242.653 122.758 237.916 122.455 233.264 121.472C230.892 120.981 228.55 120.309 226.254 119.461C226.234 119.452 226.224 119.453 226.204 119.444C225.972 119.354 225.721 119.265 225.489 119.175C224.352 118.734 223.239 118.248 222.143 117.727L221.667 117.504C220.499 116.935 219.348 116.332 218.212 115.673L218.151 115.645C216.401 114.628 214.702 113.505 213.06 112.281C212.22 111.674 211.408 111.033 210.611 110.357C210.194 110.021 209.775 109.663 209.376 109.314C207.842 107.97 206.374 106.533 204.978 105.012C205.055 103.872 205.211 102.742 205.446 101.632L205.454 101.62C205.497 101.431 205.55 101.245 205.614 101.063C205.655 100.903 205.704 100.747 205.761 100.594C207.201 96.83 210.268 95.6774 214.148 95.1665C216.338 94.8798 218.78 94.8013 221.345 94.5603C222.701 94.4394 224.101 94.2713 225.495 94.0166C234.288 92.3992 232.206 86.6896 232.347 83.5102C232.497 80.4282 235.173 82.8672 235.351 83.0268L235.362 83.0369C240.592 85.2503 246.231 85.8857 251.702 84.8781C252.641 84.6713 253.585 84.5185 254.532 84.409C257.029 84.1735 256.552 85.0179 255.743 85.7476C255.349 86.089 254.935 86.3991 254.502 86.6758C254.502 86.6758 254.324 89.4118 254.245 93.4896C254.172 97.3928 266.5 97.7419 268.962 98.3911L268.971 98.3903C270.383 98.8401 271.678 99.6739 272.738 100.816C273.798 101.958 274.59 103.372 275.042 104.93Z" fill="#34609D"/>
<path d="M231.639 61.4606C232.281 61.4606 232.803 60.2642 232.803 58.7884C232.803 57.3126 232.281 56.1162 231.639 56.1162C230.996 56.1162 230.475 57.3126 230.475 58.7884C230.475 60.2642 230.996 61.4606 231.639 61.4606Z" fill="#A0616A"/>
<path d="M263.066 61.4606C263.709 61.4606 264.23 60.2642 264.23 58.7884C264.23 57.3126 263.709 56.1162 263.066 56.1162C262.423 56.1162 261.902 57.3126 261.902 58.7884C261.902 60.2642 262.423 61.4606 263.066 61.4606Z" fill="#A0616A"/>
<path d="M40.6858 72.6269L43.6464 83.978L81.4801 83.2392L81.1486 62.4412C80.8862 45.9788 70.3746 31.7804 55.5012 32.0708C40.6279 32.3612 31.1707 46.2785 31.4331 62.7409L33.5937 84.1743L39.7623 84.0539L40.6858 72.6269Z" fill="#2F2E41"/>
<path d="M57.0364 80.1662C66.0365 80.1662 73.3325 71.7915 73.3325 61.4608C73.3325 51.13 66.0365 42.7554 57.0364 42.7554C48.0363 42.7554 40.7402 51.13 40.7402 61.4608C40.7402 71.7915 48.0363 80.1662 57.0364 80.1662Z" fill="#FFB6B6"/>
<path d="M75.6528 48.8369C75.6304 47.3494 75.2272 45.9027 74.494 44.6794C74.4165 44.5536 74.3387 44.4369 74.2609 44.3202C73.6375 43.4015 72.8387 42.6617 71.9268 42.1586C71.0148 41.6555 70.0146 41.4026 69.004 41.4198L56.9123 41.6712L44.8282 41.9136C43.0971 41.9536 41.4501 42.784 40.2478 44.2228C39.0455 45.6617 38.3857 47.592 38.4129 49.5912L41.2902 56.281L42.9465 60.1243L43.2187 59.9447C53.6773 53.1561 57.9542 53.0663 71.7959 59.379L72.0757 59.5047L73.1723 56.2631L75.6604 48.9088L75.6528 48.8369Z" fill="#2F2E41"/>
<path d="M90.4817 90.8478C86.8872 86.9314 74.7263 88.4878 74.7263 88.4878L42.6276 90.6956C35.5087 91.2708 29.0951 97.4965 26.7715 100.017C27.1429 100.415 27.5228 100.804 27.9106 101.176C35.0438 108.1 44.0103 112.363 53.511 113.349C63.0116 114.334 72.5529 111.991 80.7521 106.658C84.1915 104.416 88.592 101.728 91.3494 98.59C92.4417 97.3551 93.3157 97.3796 94.284 96.0262C93.5592 93.8987 92.2259 92.0828 90.4817 90.8478Z" fill="#34609D"/>
<path d="M60.5285 322C93.9574 322 121.057 291.791 121.057 254.527C121.057 217.262 93.9574 187.054 60.5285 187.054C27.0995 187.054 0 217.262 0 254.527C0 291.791 27.0995 322 60.5285 322Z" fill="#F0F0F0"/>
<path d="M450.472 322C483.901 322 511 291.791 511 254.527C511 217.262 483.901 187.054 450.472 187.054C417.043 187.054 389.943 217.262 389.943 254.527C389.943 291.791 417.043 322 450.472 322Z" fill="#F0F0F0"/>
<path d="M243.861 322C276.968 322 303.807 291.791 303.807 254.527C303.807 217.262 276.968 187.054 243.861 187.054C210.753 187.054 183.914 217.262 183.914 254.527C183.914 291.791 210.753 322 243.861 322Z" fill="#F0F0F0"/>
<path d="M59.3645 264.548C68.3646 264.548 75.6606 256.173 75.6606 245.842C75.6606 235.511 68.3646 227.137 59.3645 227.137C50.3644 227.137 43.0684 235.511 43.0684 245.842C43.0684 256.173 50.3644 264.548 59.3645 264.548Z" fill="#FFB8B8"/>
<path d="M43.876 251.187C43.876 251.187 45.2982 248.419 44.9676 239.176C44.6369 229.932 57.3428 235.16 67.9598 234.278C78.5768 233.397 76.3294 249.711 76.3294 249.711C76.3294 249.711 77.0954 248.741 78.7353 240.867C80.3752 232.993 76.6517 225.147 76.6517 225.147C75.5551 216.873 69.6451 219.525 69.6451 219.525C72.4913 220.752 71.9446 223.377 71.9446 223.377C69.5354 218.697 63.6255 221.349 63.6255 221.349C55.7432 215.869 47.7547 223.086 47.7547 223.086C38.2326 225.48 43.817 233.869 43.817 233.869C34.2409 239.23 43.876 251.187 43.876 251.187Z" fill="#2F2E41"/>
<path d="M86.7259 289.12C81.9842 286.371 77.0348 284.08 71.9332 282.271L71.2821 274.355L44.9003 271.228L41.5475 281.347L32.0797 285.255C31.7407 285.397 31.4181 285.582 31.1184 285.806H31.1081C29.5581 285.95 28.0653 286.518 26.765 287.457C25.883 288.077 25.0988 288.85 24.4434 289.748C25.7243 290.816 27.0548 291.807 28.4261 292.754L28.4865 292.787C28.8769 293.051 29.2774 293.315 29.6772 293.568C30.3982 294.042 31.1388 294.493 31.8794 294.923L32.3498 295.187C33.4305 295.803 34.5316 296.387 35.6626 296.926C35.8927 297.037 36.1432 297.147 36.3734 297.257C36.393 297.268 36.4032 297.268 36.4228 297.279C36.9537 297.521 37.4839 297.752 38.0242 297.972C39.7996 298.718 41.6105 299.358 43.4489 299.888C48.1406 301.264 52.9754 301.96 57.8308 301.958C59.6027 301.958 61.3541 301.87 63.0859 301.683C67.042 301.281 70.9475 300.414 74.7354 299.096C74.7449 299.096 74.7559 299.085 74.7653 299.085C77.1583 298.246 79.4959 297.227 81.7615 296.035C81.7709 296.024 81.7913 296.024 81.8016 296.013C82.3121 295.748 82.8021 295.462 83.3024 295.187L83.5427 295.055C83.9433 294.824 84.3438 294.592 84.7444 294.35C85.745 293.745 86.7259 293.106 87.6959 292.423C87.966 292.247 88.2268 292.06 88.497 291.862C88.8771 291.586 89.2572 291.3 89.6279 291.003C88.6972 290.342 87.7265 289.715 86.7259 289.12Z" fill="#34609D"/>
<path d="M267.202 285.409L257.114 284.385L251.078 279.462C251.078 279.453 251.076 279.443 251.07 279.436L251.055 279.445L250.813 279.245L250.782 279.558L240.595 283.933L230.127 281.236L226.505 285.611L210.375 291.586C209.599 292.163 208.916 292.884 208.357 293.717L208.358 293.729C209.036 294.32 209.732 294.904 210.437 295.457C212.036 296.747 213.697 297.937 215.414 299.023C219.591 301.683 224.056 303.732 228.701 305.12C229.122 305.25 229.543 305.372 229.963 305.485C230.695 305.685 231.435 305.876 232.175 306.033C233.67 306.381 235.184 306.653 236.716 306.85C238.967 307.155 241.232 307.306 243.5 307.303C245.05 307.303 246.584 307.236 248.103 307.103C250.771 306.863 253.42 306.412 256.032 305.754C256.125 305.728 256.219 305.711 256.312 305.676C260.311 304.652 264.198 303.142 267.902 301.171C268.47 300.867 269.039 300.553 269.599 300.232C270.978 299.44 272.318 298.588 273.618 297.675C274.6 296.996 275.558 296.274 276.492 295.526C277.069 295.065 277.637 294.596 278.198 294.109L278.137 293.965C277.142 291.597 275.609 289.561 273.69 288.06C271.772 286.559 269.535 285.645 267.202 285.409Z" fill="#34609D"/>
<path d="M256.774 229.228C255.613 227.941 254.304 226.834 252.881 225.936C244.088 220.504 234.482 220.41 226.526 225.67C224.548 226.974 222.742 228.579 221.158 230.439C216.694 235.653 214.195 242.59 214.178 249.811V271.228H264.23V247.62C264.23 241.294 261.12 233.972 256.774 229.228Z" fill="#2F2E41"/>
<path d="M238.622 271.228C248.908 271.228 257.246 261.956 257.246 250.519C257.246 239.081 248.908 229.809 238.622 229.809C228.336 229.809 219.998 239.081 219.998 250.519C219.998 261.956 228.336 271.228 238.622 271.228Z" fill="#FFB8B8"/>
<path d="M257.385 232.053C257.347 231.629 257.207 231.222 256.978 230.873C256.75 230.524 256.441 230.244 256.082 230.062C244.453 224.232 232.657 224.384 221.043 230.519H220.83L220.759 230.833C218.47 249.763 218.793 250.178 218.935 250.348C219.159 250.622 219.437 250.839 219.749 250.983C220.035 251.119 220.344 251.188 220.657 251.187H247.169L247.232 250.865C247.539 249.17 247.935 247.495 248.416 245.848C249.473 247.502 250.445 249.217 251.329 250.983L251.44 251.187H256.595C256.693 251.187 256.791 251.178 256.888 251.161C257.42 251.093 257.911 250.818 258.269 250.39C258.411 250.229 258.743 249.839 257.385 232.053Z" fill="#2F2E41"/>
<path d="M464.482 282.442L463.826 274.406L437.086 271.228L433.7 281.51L424.1 285.478C423.752 285.62 423.421 285.808 423.113 286.036C421.196 286.227 419.374 287.044 417.879 288.382C418.098 288.581 418.316 288.773 418.535 288.964C418.58 289.014 418.633 289.056 418.678 289.097C419.289 289.621 419.915 290.137 420.548 290.628C420.715 290.761 420.881 290.894 421.054 291.019C422.444 292.106 423.884 293.113 425.367 294.039C426.785 294.929 428.24 295.75 429.733 296.501C432.476 297.884 435.319 299.011 438.232 299.87C438.639 299.995 439.047 300.111 439.454 300.22C440.163 300.411 440.879 300.594 441.595 300.744C443.043 301.076 444.509 301.337 445.992 301.526C448.171 301.817 450.365 301.962 452.56 301.958C454.061 301.958 455.546 301.894 457.017 301.767C459.6 301.537 462.165 301.106 464.693 300.477C464.784 300.453 464.874 300.436 464.965 300.403C468.837 299.423 472.6 297.978 476.186 296.093C476.736 295.802 477.287 295.503 477.83 295.195C479.165 294.438 480.462 293.623 481.721 292.749C482.173 292.441 482.618 292.125 483.063 291.793C476.224 286.718 466.292 283.083 464.482 282.442Z" fill="#34609D"/>
<path d="M448.726 265.884C459.333 265.884 467.932 256.313 467.932 244.506C467.932 232.699 459.333 223.128 448.726 223.128C438.118 223.128 429.52 232.699 429.52 244.506C429.52 256.313 438.118 265.884 448.726 265.884Z" fill="#A0616A"/>
<path d="M435.831 234.079C437.848 236.752 441.261 237.506 444.41 237.813C450.805 238.441 460.104 237.422 466.353 235.806C466.802 240.647 465.584 245.868 468.13 249.851C469.323 245.029 470.017 240.07 470.198 235.07C470.388 232.925 470.138 230.76 469.467 228.74C469.108 227.728 468.503 226.848 467.72 226.202C466.937 225.556 466.008 225.168 465.038 225.084C465.253 224.837 465.4 224.527 465.463 224.19C465.526 223.853 465.502 223.503 465.395 223.18C465.16 222.041 464.642 221 463.9 220.177C463.159 219.355 462.224 218.784 461.205 218.531L454.191 216.638C454.191 216.638 447.609 213.405 442.691 213.811C440.409 213.999 438.022 214.359 436.173 215.84C434.324 217.322 433.255 220.265 434.403 222.439C432.966 222.704 431.613 223.374 430.472 224.388C429.331 225.402 428.44 226.726 427.883 228.233C427.179 230.629 427.009 233.182 427.388 235.668C427.81 239.658 428.638 243.58 429.856 247.359L435.831 234.079Z" fill="#2F2E41"/>
<path d="M264.057 49.99C263.468 47.8985 262.157 46.1514 260.409 45.1318C258.676 44.1332 256.824 43.4106 254.908 42.9854C251.56 41.916 248.09 41.3889 244.606 41.4203C241.132 41.6098 237.58 42.9409 235.219 45.7771C232.858 48.6134 231.983 53.1165 233.703 56.473L233.513 57.3406C236.269 57.7045 239.061 57.1736 241.551 55.8123C244.041 54.451 246.122 52.3176 247.542 49.6704C248.846 51.9547 250.697 53.7907 252.888 54.9723C255.079 56.1539 257.523 56.6343 259.946 56.3597C260.72 56.2905 261.473 56.05 262.161 55.6525C262.978 55.0542 263.602 54.183 263.942 53.165C264.283 52.147 264.323 51.035 264.057 49.99Z" fill="#2F2E41"/>
</svg>
