<svg width="394" height="332" viewBox="0 0 394 332" fill="none" xmlns="http://www.w3.org/2000/svg">
<path opacity="0.1" d="M48.3105 332C74.5429 332 95.8085 328.795 95.8085 324.842C95.8085 320.889 74.5429 317.684 48.3105 317.684C22.0781 317.684 0.8125 320.889 0.8125 324.842C0.8125 328.795 22.0781 332 48.3105 332Z" fill="#34609D"/>
<path d="M378.515 0.00209751H261.21C255.549 0.00180478 250.056 2.03517 245.635 5.76794C241.214 9.50071 238.127 14.7107 236.882 20.5415L177.611 298.142C176.964 301.17 176.953 304.311 177.577 307.344C178.202 310.377 179.447 313.229 181.226 315.7C183.005 318.171 185.274 320.201 187.875 321.648C190.475 323.096 193.344 323.925 196.28 324.077L316.872 330.351C323.329 330.687 329.682 328.53 334.744 324.284C339.806 320.038 343.232 313.992 344.383 307.275L378.007 111.009L380.509 111.763L386.944 74.5634L384.37 73.8839L393.755 19.0986C394.157 16.752 394.064 14.3406 393.482 12.0363C392.901 9.73198 391.845 7.59157 390.39 5.76763C388.935 3.9437 387.117 2.48118 385.065 1.48432C383.013 0.487469 380.778 -0.0191603 378.52 0.000554043L378.515 0.00209751Z" fill="#3F3D56"/>
<path d="M276.647 5.98657H262.956C259.023 5.98662 255.209 7.40666 252.146 10.011C249.084 12.6153 246.957 16.2473 246.118 20.3039L189.224 295.64C188.896 297.225 188.897 298.866 189.225 300.451C189.553 302.036 190.201 303.528 191.126 304.824C192.05 306.121 193.228 307.191 194.58 307.962C195.932 308.734 197.426 309.188 198.96 309.293L319.159 317.612C322.55 317.847 325.905 316.755 328.582 314.545C331.259 312.335 333.072 309.161 333.674 305.63L382.222 21.0437C382.536 19.2017 382.464 17.3094 382.01 15.5003C381.556 13.6912 380.731 12.0093 379.594 10.5734C378.458 9.13748 377.036 7.98249 375.43 7.18995C373.825 6.3974 372.074 5.98662 370.301 5.98657H357.312C356.055 5.98653 354.833 6.42412 353.835 7.2316C352.837 8.03907 352.119 9.1714 351.792 10.4533C351.503 11.5853 350.869 12.5853 349.988 13.2982C349.106 14.0112 348.027 14.3974 346.917 14.3969H285.251C283.077 14.3969 280.983 13.5307 279.388 11.9714C277.793 10.4122 276.814 8.27487 276.647 5.98657Z" fill="white"/>
<path d="M347.455 69.988L249.676 61.3452L239.106 175.344L336.885 183.987L347.455 69.988Z" stroke="#34609D" stroke-width="0.00048"/>
<path d="M323.946 168.477L321.909 168.297L329.176 89.9224C329.292 88.9803 329.24 88.0268 329.025 87.1211C328.809 86.2154 328.434 85.3769 327.923 84.6579C327.412 83.9389 326.775 83.3547 326.053 82.9417C325.331 82.5287 324.538 82.2958 323.725 82.2573L309.466 80.9969L309.906 76.247C310.023 74.9872 309.706 73.7411 309.024 72.7828C308.343 71.8245 307.353 71.2324 306.272 71.1369L289.976 69.6965C288.895 69.601 287.813 70.0098 286.966 70.833C286.119 71.6563 285.578 72.8265 285.461 74.0863L285.021 78.8362L270.761 77.5758C269.954 77.4711 269.132 77.5613 268.346 77.8409C267.559 78.1206 266.825 78.5837 266.19 79.2013C265.555 79.819 265.032 80.5781 264.653 81.4312C264.275 82.2844 264.049 83.2135 263.99 84.1606L256.723 162.535L254.686 162.355C253.606 162.259 252.523 162.668 251.676 163.491C250.83 164.315 250.288 165.485 250.172 166.745C250.055 168.004 250.372 169.25 251.053 170.209C251.735 171.167 252.725 171.759 253.805 171.855L323.065 177.977C324.146 178.072 325.228 177.663 326.075 176.84C326.922 176.017 327.463 174.846 327.58 173.587C327.697 172.327 327.379 171.081 326.698 170.123C326.016 169.164 325.027 168.572 323.946 168.477ZM290.912 81.7514L294.986 82.1115L295.426 77.3616C295.485 76.7317 295.755 76.1466 296.179 75.7349C296.602 75.3233 297.143 75.1189 297.684 75.1666C298.224 75.2144 298.719 75.5104 299.06 75.9896C299.4 76.4687 299.559 77.0918 299.501 77.7217L299.06 82.4716L303.134 82.8317C303.674 82.8795 304.169 83.1755 304.51 83.6547C304.851 84.1338 305.009 84.7569 304.951 85.3868C304.893 86.0167 304.622 86.6018 304.199 87.0134C303.775 87.425 303.234 87.6294 302.694 87.5817L298.62 87.2216L298.179 91.9715C298.121 92.6014 297.85 93.1865 297.427 93.5981C297.004 94.0098 296.462 94.2142 295.922 94.1664C295.382 94.1187 294.887 93.8227 294.546 93.3435C294.205 92.8643 294.047 92.2413 294.105 91.6114L294.546 86.8615L290.471 86.5013C289.931 86.4536 289.436 86.1576 289.096 85.6784C288.755 85.1992 288.596 84.5762 288.655 83.9463C288.713 83.3164 288.984 82.7313 289.407 82.3197C289.83 81.9081 290.372 81.7036 290.912 81.7514ZM278.745 102.226L290.967 103.306L289.646 117.556L277.424 116.476L278.745 102.226ZM276.763 123.601L288.985 124.681L287.664 138.931L275.442 137.851L276.763 123.601ZM295.427 165.956L283.205 164.876L284.746 148.251L296.969 149.331L295.427 165.956ZM308.035 140.731L295.812 139.651L297.134 125.401L309.356 126.482L308.035 140.731ZM310.017 119.357L297.794 118.276L299.115 104.026L311.338 105.107L310.017 119.357Z" fill="#34609D" stroke="#34609D" stroke-width="0.00048"/>
<path d="M307.257 239.576C307.372 239.586 307.487 239.552 307.581 239.48C307.675 239.409 307.742 239.304 307.769 239.186L309.156 233.244C309.173 233.171 309.174 233.095 309.161 233.021C309.147 232.948 309.118 232.878 309.077 232.818C309.035 232.757 308.981 232.707 308.919 232.67C308.857 232.634 308.788 232.612 308.717 232.607L227.013 226.573C226.902 226.564 226.792 226.596 226.7 226.662C226.609 226.729 226.542 226.828 226.511 226.94L225.071 232.075C225.05 232.149 225.045 232.226 225.057 232.302C225.068 232.377 225.095 232.449 225.136 232.512C225.177 232.575 225.231 232.628 225.294 232.666C225.357 232.705 225.427 232.728 225.499 232.734L307.257 239.576Z" fill="#E6E6E6"/>
<path d="M304.009 257.315C304.124 257.325 304.239 257.291 304.333 257.219C304.427 257.148 304.493 257.043 304.521 256.925L305.908 250.983C305.925 250.91 305.926 250.834 305.913 250.76C305.899 250.687 305.87 250.617 305.829 250.556C305.787 250.496 305.733 250.445 305.671 250.409C305.609 250.373 305.54 250.351 305.469 250.346L223.765 244.312C223.654 244.303 223.544 244.334 223.452 244.401C223.361 244.468 223.294 244.566 223.263 244.679L221.823 249.814C221.802 249.887 221.797 249.965 221.809 250.04C221.82 250.116 221.847 250.188 221.888 250.251C221.929 250.314 221.983 250.367 222.046 250.405C222.108 250.444 222.179 250.467 222.251 250.473L304.009 257.315Z" fill="#E6E6E6"/>
<path d="M281.71 278.979C281.826 278.991 281.943 278.961 282.038 278.893C282.134 278.825 282.201 278.725 282.229 278.611L285.159 266.878C285.176 266.81 285.178 266.738 285.165 266.669C285.152 266.599 285.123 266.533 285.082 266.476C285.041 266.418 284.988 266.37 284.927 266.335C284.865 266.3 284.797 266.279 284.727 266.273L234.578 262.05C234.461 262.042 234.345 262.076 234.25 262.146C234.156 262.215 234.089 262.316 234.062 262.431L231.562 273.691C231.547 273.759 231.547 273.829 231.561 273.897C231.575 273.965 231.603 274.029 231.644 274.085C231.685 274.141 231.737 274.187 231.797 274.221C231.857 274.256 231.924 274.277 231.993 274.283L281.71 278.979Z" fill="#34609D"/>
<path d="M15.994 182.285C16.9673 181.571 17.7824 180.638 18.382 179.55C18.9816 178.463 19.3511 177.248 19.4644 175.991C19.5777 174.734 19.432 173.466 19.0377 172.276C18.6434 171.086 18.01 170.003 17.1821 169.103L20.3117 94.3379L4.37848 96.2517L5.30451 169.383C3.98317 170.97 3.25213 173.022 3.25 175.148C3.24788 177.274 3.97483 179.327 5.293 180.917C6.61117 182.508 8.42891 183.525 10.4015 183.777C12.374 184.028 14.3643 183.496 15.9947 182.282L15.994 182.285Z" fill="#A0616A"/>
<path d="M44.6855 307.934L53.6751 309.621L62.5597 273.409L50.7813 270.919L44.6855 307.934Z" fill="#A0616A"/>
<path d="M69.1212 322.069L41.148 316.722L43.048 304.971L60.2133 308.252C63.0797 308.8 65.6286 310.563 67.2991 313.155C68.9696 315.746 69.625 318.953 69.1211 322.07L69.1212 322.069Z" fill="#2F2E41"/>
<path d="M20.3139 312.847H29.122L33.3119 274.95H20.3125L20.3139 312.847Z" fill="#A0616A"/>
<path d="M46.5371 322.07L18.1349 322.071L18.1343 310.139L35.5629 310.138C38.4733 310.138 41.2645 311.395 43.3226 313.633C45.3807 315.87 46.537 318.905 46.5371 322.07Z" fill="#2F2E41"/>
<path d="M57.8323 298.981C57.6901 298.981 57.5481 298.972 57.407 298.954L46.6781 298.007C46.1896 297.945 45.7179 297.778 45.2916 297.515C44.8653 297.252 44.4934 296.898 44.1983 296.476C43.9033 296.054 43.6913 295.572 43.5753 295.059C43.4592 294.546 43.4416 294.014 43.5233 293.493L54.1742 237.118L47.4825 199.253C47.428 198.945 47.2716 198.669 47.0421 198.476C46.8127 198.282 46.5257 198.184 46.2341 198.199C45.9425 198.215 45.666 198.343 45.4555 198.56C45.2451 198.777 45.115 199.069 45.0892 199.381L35.2294 295.593C35.1374 296.606 34.682 297.542 33.9593 298.202C33.2366 298.862 32.3031 299.196 31.3557 299.132L21.2476 298.728C20.3619 298.661 19.5298 298.248 18.9084 297.567C18.2871 296.887 17.9195 295.986 17.875 295.034L18.6825 178.77L71.0862 171.743L74.7473 232.393L74.7324 232.458L61.3558 296.007C61.1633 296.854 60.7116 297.607 60.0728 298.146C59.434 298.686 58.6451 298.98 57.8323 298.981Z" fill="#2F2E41"/>
<path d="M36.1554 45.9594C46.2513 45.9594 54.4357 37.115 54.4357 26.2049C54.4357 15.2948 46.2513 6.45044 36.1554 6.45044C26.0594 6.45044 17.875 15.2948 17.875 26.2049C17.875 37.115 26.0594 45.9594 36.1554 45.9594Z" fill="#A0616A"/>
<path d="M53.4829 187.063C50.6535 187.081 47.8785 186.219 45.4861 184.579C36.7211 178.632 26.7695 180.995 21.6166 182.934C21.1052 183.128 20.5599 183.195 20.0215 183.128C19.4831 183.061 18.9656 182.863 18.5076 182.549C18.0549 182.24 17.6724 181.824 17.3887 181.332C17.105 180.84 16.9275 180.285 16.8695 179.708L7.49974 88.8363C5.92941 73.6105 14.3762 59.2958 27.5842 54.7988C28.0806 54.6297 28.5851 54.4698 29.0978 54.3189C33.2079 53.109 37.5124 52.8917 41.7082 53.6825C45.904 54.4733 49.8892 56.2528 53.3835 58.8959C56.9429 61.5679 59.9197 65.0545 62.1043 69.1103C64.2889 73.1662 65.6282 77.6926 66.028 82.3711L73.9172 173.852C73.971 174.445 73.8973 175.042 73.7022 175.598C73.507 176.155 73.1956 176.654 72.7925 177.057C70.026 179.834 61.999 187.062 53.4829 187.063Z" fill="#34609D"/>
<path d="M24.6242 108.822L3.7107 106.298C3.11557 106.226 2.54154 106.015 2.02771 105.677C1.51387 105.34 1.07233 104.885 0.733122 104.344C0.393917 103.802 0.165032 103.187 0.0620686 102.539C-0.0408948 101.892 -0.0155258 101.228 0.136455 100.592L5.46029 78.3208C5.61712 76.6515 6.07382 75.0328 6.80398 73.5584C7.53414 72.084 8.52329 70.783 9.71426 69.7307C10.9052 68.6783 12.2744 67.8955 13.7427 67.4274C15.2109 66.9593 16.7491 66.8152 18.2684 67.0035C19.7877 67.1918 21.2579 67.7087 22.5941 68.5244C23.9303 69.34 25.106 70.4382 26.0532 71.7555C27.0004 73.0729 27.7003 74.5832 28.1126 76.1992C28.5248 77.8152 28.6412 79.5048 28.455 81.1705L29.2456 104.105C29.2682 104.762 29.1616 105.416 28.933 106.024C28.7044 106.631 28.3592 107.177 27.9209 107.625C27.4826 108.073 26.9615 108.412 26.3931 108.619C25.8247 108.826 25.2224 108.896 24.6271 108.824L24.6242 108.822Z" fill="#34609D"/>
<path d="M73.679 178.421C74.5493 177.592 75.2411 176.567 75.7057 175.418C76.1702 174.268 76.3961 173.023 76.3675 171.769C76.339 170.515 76.0566 169.283 75.5403 168.159C75.024 167.036 74.2863 166.049 73.3792 165.268L68.1572 91.1125L52.8086 94.8506L61.8159 167.066C60.7021 168.802 60.2157 170.919 60.4489 173.016C60.6821 175.114 61.6188 177.046 63.0812 178.446C64.5436 179.846 66.4302 180.617 68.383 180.612C70.3359 180.608 72.2193 179.828 73.676 178.421H73.679Z" fill="#A0616A"/>
<path d="M46.8258 103.591C46.3874 103.142 46.0421 102.594 45.8134 101.985C45.5848 101.376 45.4783 100.72 45.5011 100.061L46.2917 77.0583C46.1212 75.3961 46.2498 73.7133 46.6701 72.1059C47.0904 70.4984 47.7941 68.9979 48.7412 67.6899C49.6883 66.3819 50.8601 65.2921 52.1898 64.4826C53.5195 63.6732 54.981 63.1599 56.4908 62.9723C58.0007 62.7846 59.5293 62.9262 60.9895 63.3888C62.4497 63.8515 63.8127 64.6263 65.0009 65.6688C66.1891 66.7114 67.1791 68.0015 67.9144 69.4653C68.6497 70.929 69.1159 72.5379 69.2863 74.2001L74.6102 96.5377C74.7622 97.1752 74.7875 97.8413 74.6846 98.4906C74.5816 99.1399 74.3527 99.7571 74.0135 100.3C73.6743 100.843 73.2328 101.3 72.7189 101.638C72.2051 101.976 71.6311 102.188 71.0359 102.261L50.1224 104.792C49.5271 104.864 48.9247 104.794 48.3562 104.587C47.7878 104.379 47.2668 104.039 46.8287 103.589L46.8258 103.591Z" fill="#34609D"/>
<path d="M35.2235 46.7657C34.9029 46.7656 34.5833 46.7249 34.2712 46.6443L34.1796 46.6202C18.3603 43.9674 14.8637 33.909 14.0967 29.7103C13.3025 25.3628 14.2065 21.1665 16.2504 19.5362C15.1362 15.6775 15.3149 12.2521 16.783 9.35726C19.3471 4.3088 24.9008 2.60454 25.6473 2.39231C30.0852 -1.20029 35.395 1.19772 36.3612 1.68407C44.9464 -1.80081 48.229 1.09965 48.821 1.74759C52.6582 2.50405 54.9974 4.13033 55.7739 6.58382C57.2325 11.1909 52.6201 16.9219 52.4231 17.1639L52.3205 17.2893L45.4489 17.6486C44.7969 17.6828 44.1586 17.867 43.5756 18.1892C42.9926 18.5115 42.4779 18.9646 42.0647 19.5192C41.6516 20.0739 41.3493 20.7176 41.1775 21.4087C41.0057 22.0997 40.9681 22.8227 41.0673 23.5308C41.2532 24.4442 41.4881 25.3447 41.7706 26.2278C42.9428 30.2521 43.8218 33.6904 42.6893 34.9975C42.4323 35.2504 42.1157 35.4188 41.7756 35.4835C41.4356 35.5482 41.0858 35.5065 40.7663 35.3633C39.6916 35.0482 38.9626 35.1141 38.5993 35.5602C38.0352 36.2508 38.2073 38.0001 39.0842 40.4841C39.3594 41.2697 39.4334 42.123 39.2984 42.9515C39.1633 43.78 38.8243 44.5522 38.318 45.1845C37.9367 45.6779 37.4625 46.0747 36.9281 46.3477C36.3936 46.6207 35.8116 46.7633 35.2221 46.7657H35.2235Z" fill="#2F2E41"/>
</svg>
