<svg width="428" height="322" viewBox="0 0 428 322" fill="none" xmlns="http://www.w3.org/2000/svg">
<path d="M29.1921 238.463C26.2117 237.719 23.5565 235.769 21.7006 232.962C19.8448 230.156 18.9092 226.676 19.0608 223.143C19.0682 222.999 19.1234 222.863 19.2149 222.766C19.3063 222.668 19.4269 222.615 19.5513 222.619C19.6756 222.622 19.7939 222.682 19.8812 222.784C19.9686 222.887 20.0182 223.025 20.0196 223.169C19.8731 226.459 20.7449 229.701 22.4777 232.31C24.2105 234.919 26.69 236.724 29.4689 237.398C30.0726 237.546 29.7924 238.61 29.1921 238.463Z" fill="white"/>
<path d="M33.9164 268.502C39.1822 264.634 42.9982 258.606 44.6035 251.619C44.762 250.926 45.6798 251.248 45.5214 251.94C43.8393 259.207 39.8572 265.471 34.3698 269.482C33.8465 269.864 33.396 268.882 33.9164 268.502Z" fill="white"/>
<path d="M37.8739 207.666C38.9754 208.233 40.1809 208.474 41.3823 208.367C42.5837 208.26 43.7434 207.808 44.7571 207.052C45.2759 206.663 45.7259 207.645 45.2105 208.032C44.0871 208.861 42.8059 209.358 41.4787 209.48C40.1516 209.602 38.8189 209.345 37.5971 208.732C37.4778 208.685 37.3782 208.587 37.3187 208.459C37.2591 208.33 37.2441 208.18 37.2765 208.038C37.3138 207.898 37.3974 207.78 37.5093 207.71C37.6211 207.64 37.7522 207.625 37.8739 207.666H37.8739Z" fill="white"/>
<path d="M112.575 231.516C95.1949 236.064 78.9545 247.084 67.2269 262.687C64.6914 266.06 62.3724 269.738 60.8565 273.877C59.4056 277.925 58.9155 282.35 59.437 286.693C59.8532 290.753 60.6841 294.85 60.2424 298.956C59.7769 303.285 57.6497 306.879 54.612 309.37C50.8953 312.419 46.4563 313.735 42.0768 314.848C37.2142 316.084 32.1466 317.277 28.1474 320.943C27.6629 321.387 27.0973 320.488 27.5811 320.045C34.539 313.668 44.0776 314.674 51.743 310.089C55.3198 307.949 58.3625 304.546 59.1542 299.816C59.8465 295.679 58.9928 291.454 58.5407 287.347C58.0661 283.035 58.23 278.871 59.5263 274.756C60.8524 270.547 63.0524 266.756 65.5024 263.323C71.1082 255.584 77.7278 248.917 85.1187 243.564C93.5247 237.401 102.777 232.952 112.476 230.409C113.077 230.252 113.171 231.36 112.575 231.516H112.575Z" fill="white"/>
<path d="M70.8073 257.381C68.814 254.704 67.7057 251.293 67.6801 247.756C67.6546 244.219 68.7136 240.786 70.668 238.071C71.0651 237.523 71.8173 238.213 71.4197 238.762C69.5958 241.286 68.6096 244.484 68.6392 247.778C68.6687 251.071 69.7121 254.244 71.5809 256.724C71.9865 257.263 71.2105 257.917 70.8073 257.381Z" fill="white"/>
<path d="M58.9938 284.665C65.2052 285.255 71.3802 283.107 76.2875 278.65C76.7734 278.208 77.3391 279.106 76.8538 279.548C71.7397 284.175 65.3097 286.395 58.8472 285.764C58.2312 285.703 58.3812 284.604 58.9938 284.665H58.9938Z" fill="white"/>
<path d="M93.7215 238.858C94.3067 240.08 95.1444 241.114 96.1593 241.868C97.1743 242.622 98.3346 243.071 99.5362 243.176C100.152 243.227 100.002 244.326 99.3895 244.275C98.0625 244.152 96.7815 243.654 95.6586 242.824C94.5357 241.995 93.605 240.858 92.9478 239.515C92.8767 239.394 92.8479 239.247 92.8672 239.103C92.8864 238.958 92.9523 238.828 93.0515 238.738C93.1543 238.651 93.2824 238.615 93.4078 238.638C93.5333 238.66 93.646 238.74 93.7215 238.858Z" fill="white"/>
<path d="M178.184 99.8124C178.184 99.8124 171.86 130.794 179.59 130.794C187.319 130.794 205.589 95.7358 205.589 95.7358L199.265 86.7676L187.914 105.053L187.319 95.7359L178.184 99.8124Z" fill="#A0616A"/>
<path d="M203.904 97.082C207.302 97.082 210.057 93.886 210.057 89.9436C210.057 86.0011 207.302 82.8052 203.904 82.8052C200.506 82.8052 197.752 86.0011 197.752 89.9436C197.752 93.886 200.506 97.082 203.904 97.082Z" fill="#A0616A"/>
<path d="M172.822 310.82L181.011 310.819L184.907 274.168L172.82 274.169L172.822 310.82Z" fill="#A0616A"/>
<path d="M172.534 320.734L197.717 320.733V320.363C197.717 317.347 196.684 314.455 194.846 312.322C193.008 310.189 190.515 308.991 187.915 308.991H187.914L183.314 304.941L174.732 308.991L172.533 308.991L172.534 320.734Z" fill="#2F2E41"/>
<path d="M84.7305 298.967L92.058 303.21L109.65 272.435L98.8351 266.173L84.7305 298.967Z" fill="#A0616A"/>
<path d="M80.6582 307.685L103.192 320.732L103.334 320.402C104.495 317.703 104.684 314.58 103.86 311.719C103.036 308.858 101.267 306.494 98.9407 305.147L98.9401 305.147L96.3826 299.14L87.1445 298.317L85.1774 297.178L80.6582 307.685Z" fill="#2F2E41"/>
<path d="M119.876 156.015C119.876 156.015 116.603 201.673 115.9 211.456C115.419 217.589 114.237 223.621 112.387 229.393C112.387 229.393 110.982 232.654 110.982 235.915L95.054 269.501C95.054 269.501 90.1869 273.652 90.8895 276.913C91.5922 280.174 87.9551 282.13 87.9551 282.13L104.728 285.881C104.728 285.881 104.026 283.435 106.134 282.62C108.242 281.805 109.92 274.733 109.92 274.733L133.467 230.208L150.332 189.443C150.332 189.443 160.169 226.132 162.277 230.208C162.277 230.208 170.007 275.865 171.412 279.941C172.818 284.018 173.52 284.018 172.818 285.648C172.115 287.279 172.115 288.91 172.818 289.725C173.52 290.54 186.871 289.725 186.871 289.725L183.358 231.839L177.034 162.538L144.71 151.124L119.876 156.015Z" fill="#2F2E41"/>
<path d="M151.524 47.0189C159.674 47.0189 166.28 39.3534 166.28 29.8976C166.28 20.4418 159.674 12.7764 151.524 12.7764C143.374 12.7764 136.768 20.4418 136.768 29.8976C136.768 39.3534 143.374 47.0189 151.524 47.0189Z" fill="#A0616A"/>
<path d="M178.439 72.0397L160.873 59.691C160.873 59.691 160.386 52.0228 155.38 51.662C152.868 51.4809 149.097 51.2039 143.438 50.7806C142.242 50.6911 141.435 58.2826 140.064 58.1796L121.522 63.8867L124.332 119.327C124.332 119.327 120.116 141.34 121.522 145.417C122.927 149.493 118.008 151.124 119.414 151.939C120.819 152.754 119.414 158.461 119.414 158.461C119.414 158.461 146.818 174.767 177.034 162.538L174.223 151.939C174.605 150.553 174.677 149.078 174.431 147.651C174.185 146.224 173.63 144.894 172.818 143.786C172.818 143.786 175.628 138.894 172.115 134.818C172.115 134.818 173.52 127.48 170.007 124.219L169.304 112.805L171.412 107.097L178.439 72.0397Z" fill="#E6E6E6"/>
<path d="M138.718 39.6792L138.305 38.5676C138.252 38.4238 133.033 24.11 137.659 15.2809C139.8 11.1934 143.694 8.8857 149.231 8.42239C157.895 7.69552 163.825 10.0801 166.861 15.505C167.37 16.4244 167.656 17.486 167.689 18.578C167.722 19.6701 167.501 20.7523 167.049 21.7109C166.597 22.6696 165.93 23.4691 165.12 24.0256C164.309 24.5821 163.385 24.875 162.443 24.8734H162.326L160.734 22.475L160.642 22.7083C160.065 24.1551 158.742 24.9471 157.191 24.7736C156.928 24.7517 156.694 25.0157 156.506 25.5809C156.443 25.8282 156.324 26.0511 156.161 26.2264C155.998 26.4017 155.797 26.5228 155.58 26.577C154.435 26.8357 152.802 25.1616 152.071 24.3272C152.043 24.5193 151.979 24.702 151.885 24.8632C151.791 25.0243 151.667 25.1601 151.524 25.2613C150.754 25.777 149.555 25.1034 149.211 24.8889C146.47 25.5646 144.696 25.3839 143.936 24.3524C143.421 28.5825 142.315 36.1966 140.988 36.6186C140.85 36.6556 140.705 36.6399 140.574 36.5738C140.444 36.5077 140.335 36.3947 140.265 36.2516C139.945 35.7705 139.66 35.5308 139.482 35.5981C139.05 35.7574 138.796 37.4058 138.759 38.4697L138.718 39.6792Z" fill="#2F2E41"/>
<path d="M170.711 72.8575L177.721 71.5361C182.77 77.1652 186.21 84.456 187.575 92.4247C189.683 105.469 190.386 107.915 190.386 107.915L173.522 112.807L164.387 92.4246L170.711 72.8575Z" fill="#E6E6E6"/>
<path d="M139.607 89.8243L135.275 153.54L245.822 163.657L250.154 99.9422L139.607 89.8243Z" fill="white"/>
<path d="M151.417 94.7595C148.712 92.5179 145.277 92.3558 143.965 92.3881C144.365 93.8378 145.609 97.556 148.314 99.7986C151.026 102.046 154.457 102.203 155.767 102.172C155.367 100.722 154.123 97.0026 151.417 94.7595Z" fill="white"/>
<path d="M162.09 135.302L144.339 133.677C143.814 133.629 143.287 133.702 142.787 133.89C142.286 134.079 141.823 134.38 141.423 134.776C141.022 135.173 140.694 135.657 140.455 136.2C140.216 136.744 140.071 137.337 140.03 137.946C139.989 138.554 140.051 139.166 140.213 139.747C140.376 140.328 140.635 140.865 140.977 141.33C141.319 141.794 141.736 142.176 142.204 142.453C142.673 142.73 143.184 142.897 143.709 142.945L161.459 144.57C162.519 144.667 163.568 144.272 164.376 143.471C165.184 142.671 165.685 141.531 165.768 140.302C165.852 139.073 165.511 137.855 164.821 136.918C164.132 135.98 163.149 135.399 162.09 135.302Z" fill="white"/>
<path d="M245.794 93.7483L146.272 84.6386C145.114 84.5328 143.95 84.6926 142.846 85.1089C141.741 85.5252 140.718 86.1898 139.835 87.0647C138.952 87.9397 138.227 89.0078 137.699 90.2082C137.172 91.4086 136.854 92.7177 136.763 94.0608L132.935 150.317C132.751 153.031 133.504 155.718 135.027 157.787C136.55 159.857 138.719 161.141 141.057 161.355L240.58 170.465C241.737 170.571 242.901 170.411 244.006 169.995C245.11 169.578 246.133 168.914 247.016 168.039C247.899 167.164 248.625 166.096 249.152 164.895C249.679 163.695 249.997 162.386 250.088 161.043L253.726 107.573L253.799 106.481L253.915 104.781C254.006 103.438 253.868 102.087 253.509 100.806C253.15 99.5243 252.578 98.3376 251.824 97.3131C251.07 96.2886 250.149 95.4465 249.114 94.8349C248.08 94.2232 246.951 93.854 245.794 93.7483ZM242.855 142.695L242.224 151.963C242.109 153.6 241.44 155.117 240.363 156.183C239.286 157.249 237.89 157.777 236.478 157.652L223.164 156.435C221.753 156.301 220.445 155.525 219.526 154.275C218.607 153.026 218.152 151.405 218.26 149.768L218.891 140.5C219.007 138.863 219.676 137.346 220.753 136.28C221.829 135.214 223.226 134.686 224.637 134.81L237.947 136.029C239.358 136.163 240.666 136.939 241.585 138.188C242.505 139.437 242.961 141.057 242.855 142.695ZM139.147 137.862C139.251 136.362 139.863 134.971 140.849 133.994C141.835 133.017 143.115 132.534 144.407 132.65L162.157 134.276C162.799 134.333 163.424 134.537 163.997 134.875C164.571 135.213 165.081 135.678 165.499 136.245C165.917 136.812 166.235 137.469 166.434 138.178C166.634 138.888 166.71 139.636 166.66 140.38C166.61 141.124 166.435 141.849 166.143 142.514C165.851 143.179 165.449 143.771 164.961 144.256C164.472 144.74 163.905 145.109 163.294 145.339C162.682 145.57 162.037 145.658 161.396 145.6L161.387 145.602L143.637 143.977C142.996 143.918 142.371 143.713 141.798 143.374C141.226 143.035 140.716 142.568 140.299 142C139.882 141.432 139.566 140.774 139.368 140.064C139.171 139.354 139.096 138.606 139.147 137.862ZM142.947 92.0214L142.826 91.4452L143.337 91.3909C143.536 91.3661 148.258 90.8742 151.933 93.9204C155.609 96.9667 156.736 102.311 156.785 102.535L156.902 103.112L156.392 103.172C155.669 103.234 154.943 103.229 154.22 103.155C151.923 102.999 149.703 102.129 147.794 100.637C144.119 97.5909 142.992 92.2462 142.947 92.0214Z" fill="#316AB3"/>
<path d="M227.923 148.842L222.154 148.314C221.743 148.277 221.336 148.431 221.022 148.743C220.708 149.054 220.514 149.497 220.481 149.974C220.449 150.452 220.581 150.924 220.849 151.289C221.116 151.653 221.498 151.88 221.909 151.918L227.678 152.446C228.09 152.483 228.497 152.329 228.811 152.018C229.124 151.706 229.319 151.263 229.351 150.786C229.384 150.309 229.252 149.836 228.984 149.471C228.716 149.107 228.335 148.88 227.923 148.842Z" fill="white"/>
<path d="M238.575 149.816L232.806 149.288C232.394 149.252 231.987 149.406 231.674 149.717C231.36 150.028 231.166 150.471 231.134 150.948C231.101 151.425 231.233 151.898 231.501 152.262C231.768 152.627 232.149 152.853 232.561 152.892L238.33 153.42C238.741 153.457 239.148 153.302 239.461 152.991C239.775 152.68 239.969 152.237 240.001 151.76C240.034 151.283 239.902 150.81 239.634 150.446C239.367 150.081 238.986 149.855 238.575 149.816Z" fill="white"/>
<path d="M228.241 144.206L222.472 143.678C222.06 143.641 221.653 143.795 221.34 144.107C221.026 144.418 220.832 144.861 220.8 145.338C220.767 145.815 220.899 146.288 221.167 146.652C221.434 147.017 221.815 147.243 222.227 147.282L227.996 147.81C228.407 147.847 228.814 147.693 229.128 147.381C229.442 147.07 229.636 146.627 229.669 146.15C229.701 145.672 229.569 145.199 229.301 144.835C229.033 144.47 228.652 144.244 228.241 144.206Z" fill="white"/>
<path d="M238.89 145.18L233.121 144.652C232.71 144.616 232.302 144.77 231.989 145.081C231.675 145.392 231.481 145.835 231.448 146.313C231.416 146.79 231.548 147.263 231.816 147.627C232.083 147.992 232.465 148.218 232.876 148.257L238.645 148.785C239.057 148.821 239.464 148.667 239.778 148.356C240.091 148.045 240.286 147.602 240.318 147.124C240.35 146.647 240.218 146.174 239.951 145.81C239.683 145.445 239.301 145.219 238.89 145.18Z" fill="white"/>
<path d="M228.554 139.572L222.785 139.044C222.374 139.008 221.966 139.162 221.653 139.473C221.339 139.784 221.145 140.227 221.112 140.705C221.08 141.182 221.212 141.655 221.48 142.019C221.747 142.384 222.129 142.61 222.54 142.649L228.309 143.177C228.721 143.213 229.128 143.059 229.441 142.748C229.754 142.436 229.949 141.994 229.981 141.516C230.013 141.039 229.881 140.567 229.614 140.202C229.347 139.838 228.965 139.611 228.554 139.572Z" fill="white"/>
<path d="M239.205 140.549L233.436 140.021C233.025 139.985 232.618 140.139 232.305 140.45C231.991 140.762 231.797 141.204 231.765 141.682C231.732 142.159 231.864 142.631 232.132 142.996C232.399 143.36 232.78 143.587 233.191 143.626L238.96 144.154C239.372 144.19 239.779 144.036 240.092 143.724C240.406 143.413 240.6 142.97 240.632 142.493C240.665 142.016 240.533 141.543 240.265 141.179C239.998 140.815 239.617 140.588 239.205 140.549Z" fill="white"/>
<path d="M135.283 111.811L135.209 112.907L252.035 123.555L252.109 122.459L135.283 111.811Z" fill="white"/>
<path d="M253.8 106.481L253.727 107.574L249.661 107.204L206.342 103.256L206.42 102.162L249.734 106.111L253.8 106.481Z" fill="white"/>
<path d="M110.983 94.8685C110.983 94.8685 104.659 125.85 112.389 125.85C120.118 125.85 138.388 90.792 138.388 90.792L132.064 81.8237L120.713 100.109L120.118 90.792L110.983 94.8685Z" fill="#A0616A"/>
<path d="M136.701 92.1406C140.099 92.1406 142.854 88.9446 142.854 85.0022C142.854 81.0597 140.099 77.8638 136.701 77.8638C133.303 77.8638 130.549 81.0597 130.549 85.0022C130.549 88.9446 133.303 92.1406 136.701 92.1406Z" fill="#A0616A"/>
<path d="M126.641 68.779L122.425 63.8872C122.425 63.8872 113.993 69.5943 113.29 75.3014C112.588 81.0085 109.074 98.945 109.074 98.945L122.074 100.168L126.29 92.8303L126.641 68.779Z" fill="#E6E6E6"/>
</svg>
