<svg width="564" height="306" viewBox="0 0 564 306" fill="none" xmlns="http://www.w3.org/2000/svg">
<path d="M351.666 103.26C351.929 103.999 352.185 104.737 352.434 105.482V105.49L352.461 105.568C353.611 108.958 354.623 112.411 355.499 115.928L355.499 115.928C358.201 126.75 359.564 137.888 359.555 149.071C359.494 181.553 347.797 212.833 326.768 236.762C305.74 260.69 276.903 275.536 245.929 278.388C214.954 281.24 184.076 271.892 159.363 252.178C134.65 232.463 117.89 203.806 112.385 171.837C106.879 139.868 113.028 106.907 129.619 79.4344C146.21 51.9622 172.04 31.9685 202.027 23.3772C232.014 14.786 263.995 18.2162 291.684 32.9956C319.374 47.7752 340.772 72.8372 351.666 103.26Z" fill="#E6E6E6" stroke="black"/>
<path d="M220.368 60.3816C214.709 57.187 208.427 55.3837 201.999 55.1091C195.572 54.8346 189.169 56.0961 183.28 58.7975C178.094 61.1536 172.634 65.3802 170.904 73.0126C177.901 68.7018 186.957 75.5128 188.758 86.439L188.337 86.56C187.386 94.128 189.509 102.368 193.619 107.06C193.924 104.943 194.678 102.923 195.825 101.148C196.971 99.3721 198.482 97.8856 200.248 96.796C203.267 94.7237 206.608 93.2184 208.912 89.6563C211.645 85.4335 212.338 79.2619 213.424 73.6318C214.509 68.0017 216.568 61.9504 220.368 60.3816Z" fill="#34609D"/>
<path d="M181.205 124.783C179.268 127.821 176.68 129.727 174.357 132.1C171.676 134.646 169.917 138.079 169.377 141.821C169.083 144.464 169.538 147.152 169.475 149.825C169.412 152.498 168.558 155.506 166.817 156.171C164.068 157.208 161.969 151.877 159.143 151.504C156.898 151.212 154.876 154.9 155.527 158.099C156.177 161.298 159.234 162.714 160.99 160.626C162.578 163.408 161.458 168.455 159.073 169.309C158.821 171.062 158.569 172.807 158.325 174.56C152.295 170.156 146.202 165.679 141.075 159.231C135.372 152.12 131.835 143.392 130.918 134.167C130.253 126.754 131.24 118.276 127.98 112.572C125.371 108.008 120.894 107 116.865 107.285C116.13 107.336 115.389 107.423 114.654 107.518C117.03 100.067 120.048 92.8564 123.671 85.9742C124.491 85.6067 125.252 85.1118 125.93 84.5062C129.68 81.1834 131.345 74.4572 134.387 69.8052C134.583 69.5058 134.786 69.2136 134.996 68.9288C138.109 64.6857 142.278 62.5022 146.307 60.4719C155.226 55.9514 164.403 51.3724 173.819 52.0004L171.139 52.2706C168.013 61.414 164.884 70.5574 161.752 79.7009C161.276 81.103 160.796 82.5076 160.311 83.9147C158.534 89.1144 156.702 94.6502 156.974 100.471C157.135 103.918 158.283 107.598 160.465 108.782C162.501 109.877 164.725 108.533 166.691 107.204C167.523 106.649 168.348 106.094 169.181 105.532C172.168 103.523 175.476 101.464 178.631 102.807C181.52 104.034 183.654 108.131 184.059 112.55C184.431 116.845 183.428 121.147 181.205 124.783Z" fill="#34609D"/>
<path d="M198.97 187.206C190.246 181.599 181.523 175.991 172.799 170.384L172.947 169.985C167.523 172.142 165.272 182.208 166.168 190.439C167.064 198.671 170.104 206.03 171.639 214.05C173.71 225.026 172.928 236.381 169.376 246.935C180.847 233.497 190.999 218.893 199.679 203.341C200.891 201.381 201.815 199.242 202.42 196.995C203.06 194.601 202.832 192.045 201.779 189.816C201.065 188.716 200.099 187.819 198.97 187.206Z" fill="#34609D"/>
<path d="M164.54 85.1868C163.516 87.4832 163.358 90.0982 164.098 92.5106C164.959 94.4542 166.521 95.9641 168.443 96.7113L173.263 99.2057C174.866 100.036 176.595 100.874 178.23 100.191C180.201 99.3675 181.568 96.1403 181.215 93.1444C180.838 89.9562 178.913 87.7633 177.133 85.8958C174.642 83.2824 172.151 80.669 169.66 78.0557L168.256 79.851C166.737 81.3974 165.481 83.2016 164.54 85.1868Z" fill="#34609D"/>
<path d="M334.215 119.269C336.384 119.802 338.552 120.335 340.721 120.868C340.343 128.514 336.713 135.591 331.844 138.154C329.816 139.22 327.556 139.615 325.877 141.609C324.359 143.42 323.59 146.239 322.883 148.933C321.645 153.637 320.407 158.34 319.169 163.043C317.84 168.111 316.133 173.742 312.678 175.568C309.712 177.138 306.319 175.217 304.039 171.996C301.758 168.776 300.366 164.445 299.016 160.224C299.1 164.825 297.051 169.338 294.148 170.937C291.238 172.537 287.698 171.091 285.753 167.52C284.354 164.956 283.774 161.575 282.403 158.975C281.032 156.375 278.157 154.885 276.66 157.325C275.673 158.946 275.799 161.429 275.31 163.488C275.063 164.856 274.415 166.109 273.454 167.073C272.494 168.038 271.27 168.666 269.952 168.871C268.74 168.842 267.546 168.556 266.443 168.029C265.34 167.503 264.351 166.748 263.537 165.811C259.253 161.236 256.465 155.365 255.57 149.036C254.963 146.001 255.039 142.861 255.794 139.863C256.654 137.022 258.731 134.832 260.795 135.372C262.152 132.377 259.473 128.405 257.06 128.755C254.639 129.106 252.744 131.815 250.757 133.897C248.777 135.978 246.007 137.49 244.014 135.423C244.058 136.179 243.813 136.922 243.333 137.49C242.853 138.057 242.176 138.402 241.452 138.449C241.38 138.453 241.308 138.455 241.237 138.454C239.911 138.056 238.679 137.375 237.62 136.453C233.053 133.48 227.253 135.452 224.008 141.075C226.036 132.063 229.009 121.722 235.242 119.604C237.788 118.735 240.565 119.451 242.971 117.947C247.232 115.281 248.092 105.21 244.412 101.055C244.881 104.984 244.79 109.57 242.804 112.258C240.817 114.945 236.648 113.192 236.9 109.22C236.843 109.778 236.619 110.304 236.259 110.722C235.898 111.139 235.421 111.427 234.894 111.543C234.368 111.66 233.819 111.6 233.328 111.371C232.836 111.143 232.426 110.758 232.157 110.271C230.835 108.168 230.947 104.728 231.884 102.216C232.851 99.9407 234.236 97.886 235.962 96.1692C239.285 92.452 242.657 88.6909 246.504 86.3538C250.358 84.0169 254.807 83.2282 258.669 85.5506C260.704 86.7774 262.495 88.8223 264.572 89.9031C265.061 90.2194 265.604 90.4322 266.171 90.5293C266.738 90.6264 267.317 90.606 267.877 90.4693C268.436 90.3325 268.964 90.082 269.431 89.7322C269.898 89.3823 270.294 88.9399 270.597 88.4302C270.62 88.3909 270.643 88.3511 270.665 88.311C272.211 85.4774 271.484 81.2709 272.057 77.729C273.085 71.4703 279.08 68.5418 282.403 72.6752C279.92 72.0107 277.352 75.0779 277.045 78.7953C276.73 82.5124 278.528 86.2663 280.934 87.3909C284.977 89.2604 288.936 84.5572 291.993 80.2047C295.183 75.6476 298.377 71.093 301.577 66.5408C302.087 65.7657 302.661 65.0376 303.29 64.3644C304.292 63.3448 305.628 62.761 307.027 62.7312C308.426 62.7014 309.783 63.2278 310.824 64.2039C314.056 66.957 315.574 72.6023 318.225 76.4875C322.072 82.1327 327.829 83.5057 333.187 84.6012C337.181 85.4118 341.178 86.2273 345.177 87.0476C347.842 92.225 350.168 97.5857 352.137 103.092C344.804 106.584 338.584 112.198 334.215 119.269Z" fill="#34609D"/>
<path d="M347.129 207.139C344.132 213.492 340.647 219.58 336.706 225.345C334.188 224.22 331.481 226.228 329.124 228.113C326.661 230.085 323.702 232.005 321.177 230.209C318.596 228.368 317.764 223.22 318.582 219.137C319.523 215.371 321.168 211.837 323.423 208.738C325.521 205.466 327.767 202.07 330.684 200.799C333.608 199.529 337.364 201.325 338.217 205.663L340.288 205.59C339.127 203.925 339.735 200.478 341.295 199.872C343.093 199.164 344.653 201.741 345.716 204.02C346.192 205.05 346.674 206.087 347.129 207.139Z" fill="#34609D"/>
<path d="M267.829 176.291C263.379 176.584 259.854 170.864 257.511 165.236C255.168 159.609 253.031 153.174 249.015 150.31C246.721 148.673 244.105 148.449 241.616 147.655C240.204 147.283 238.898 146.565 237.805 145.561C236.713 144.556 235.865 143.294 235.332 141.88L232.509 140.689C228.56 142.75 224.944 145.442 221.791 148.668C218.187 152.664 215.943 157.787 215.404 163.246C214.864 169.146 216.856 175.724 220.577 177.94C223.517 179.691 226.94 178.588 229.918 180.191C233.639 182.194 235.848 188.012 236.685 193.757C237.521 199.502 237.309 205.472 237.907 211.282C238.506 217.092 240.155 223.138 243.567 226.115C247.837 229.841 254.103 226.745 256.019 219.963C256.959 216.636 256.926 212.882 257.629 209.428C258.867 203.347 262.207 198.834 264.856 193.846C267.506 188.857 269.591 182.081 267.829 176.291Z" fill="#34609D"/>
<path d="M223.851 116.53C224.266 116.929 224.653 117.358 225.01 117.814C225.379 118.479 225.567 119.236 225.555 120.003C225.542 120.771 225.329 121.521 224.939 122.172C225.475 122.14 225.999 121.993 226.477 121.739C226.956 121.485 227.379 121.13 227.72 120.696C228.532 119.731 229.247 118.68 229.852 117.561C230.137 117.177 230.34 116.735 230.448 116.264C230.557 115.792 230.568 115.302 230.481 114.825C230.27 114.199 229.773 113.932 229.425 113.46C228.942 112.539 228.612 111.539 228.449 110.503C228.256 109.531 227.807 108.635 227.153 107.916C226.499 107.196 225.666 106.681 224.747 106.429L224.97 106.473C224.59 106.708 224.29 107.062 224.113 107.484C223.935 107.906 223.888 108.375 223.979 108.826C224.114 109.737 224.675 110.494 224.619 111.423C224.539 112.76 223.259 113.387 223.18 114.724C223.168 115.394 223.409 116.043 223.851 116.53Z" fill="#34609D"/>
<path d="M216.225 93.817L216.244 93.813C216.381 93.6827 216.508 93.5415 216.624 93.3906L216.225 93.817Z" fill="#34609D"/>
<path d="M217.559 100.091C218.094 99.601 218.489 98.9673 218.703 98.259C218.916 97.5506 218.938 96.7947 218.768 96.0739C218.444 94.5541 217.3 93.5324 216.245 93.813C215.938 94.1371 215.558 94.3746 215.14 94.5032C214.722 94.6317 214.279 94.6472 213.854 94.548C213.201 94.3726 212.485 93.9209 211.919 94.4342C211.595 94.8176 211.368 95.2795 211.26 95.7778C211.05 96.4492 210.841 97.1205 210.631 97.7917C210.532 98.032 210.506 98.2986 210.557 98.5549C210.597 98.6576 210.662 98.7478 210.745 98.8168C210.828 98.8859 210.927 98.9314 211.032 98.949L214.802 100.11C215.235 100.318 215.706 100.424 216.183 100.421C216.659 100.417 217.129 100.305 217.559 100.091Z" fill="#34609D"/>
<path d="M312.443 186.704C311.862 185.711 311.281 184.718 310.7 183.724C310.129 182.574 309.349 181.552 308.403 180.714C307.989 180.352 307.455 180.176 306.917 180.226C306.38 180.276 305.883 180.546 305.536 180.978L305.506 181.017L305.577 181.584C307.132 183.325 308.192 185.485 308.638 187.82C308.77 188.835 308.724 189.885 308.84 190.904C308.853 191.377 308.954 191.843 309.139 192.274C309.323 192.706 309.588 193.095 309.917 193.42C310.832 194.058 311.906 193.118 312.557 191.97C313.139 191.027 313.4 189.907 313.298 188.79C313.153 188.041 312.862 187.331 312.443 186.704Z" fill="#34609D"/>
<path d="M321.558 187.996C321.668 187.066 321.596 186.123 321.345 185.223C321.303 184.006 321.612 182.804 322.232 181.773C322.848 180.8 323.314 179.732 323.614 178.609C323.741 178.097 323.718 177.557 323.548 177.059C323.356 176.608 322.89 176.403 322.623 176.76L323.195 177.144C322.423 177.001 321.629 177.041 320.874 177.262C320.443 177.434 320.059 177.712 319.753 178.072C319.446 178.432 319.228 178.864 319.116 179.331C319.021 180.06 318.867 180.778 318.654 181.479C318.313 182.211 317.653 182.454 317.238 183.097C316.955 183.666 316.813 184.3 316.823 184.942C316.833 185.583 316.996 186.212 317.297 186.771C317.818 187.686 318.646 188.366 319.62 188.679C320.319 188.941 321.238 188.954 321.558 187.996Z" fill="#34609D"/>
<path d="M337.787 193.109C338.039 193.794 338.378 194.442 338.793 195.036C339.57 195.853 340.626 195.351 341.568 195.152C342.424 195.011 343.3 195.114 344.103 195.451C344.907 195.787 345.609 196.345 346.134 197.064C345.768 195.16 344.97 193.376 343.807 191.861C342.644 190.347 341.15 189.145 339.45 188.358C337.241 187.56 334.914 187.18 332.577 187.236L332.178 187.343C333.195 190.434 336.389 190.365 337.787 193.109Z" fill="#34609D"/>
<path d="M269.045 199.431L269.051 199.444L269.167 199.211L269.045 199.431Z" fill="#34609D"/>
<path d="M266.582 204.407C266.045 205.425 265.583 206.484 265.201 207.575C264.694 209.342 264.359 211.158 264.2 212.996C264.075 214.04 264.036 215.375 264.663 215.884C264.843 216.008 265.06 216.06 265.275 216.03C265.489 216 265.685 215.889 265.826 215.719C266.175 215.334 266.46 214.892 266.67 214.41C267.902 212.194 268.859 209.824 269.517 207.356C270.203 204.738 270.039 201.955 269.05 199.445C268.228 201.099 267.405 202.753 266.582 204.407Z" fill="#34609D"/>
<path d="M242.829 71.8453C243.22 72.2444 243.714 72.5154 244.251 72.6247C244.788 72.7341 245.344 72.6771 245.85 72.4609C246.898 71.9824 247.859 71.3194 248.692 70.5006C249.382 69.9679 249.967 69.3016 250.415 68.5381C250.663 68.0819 250.821 67.5792 250.881 67.0589C250.942 66.5385 250.903 66.0109 250.768 65.5061C250.575 65.0226 250.268 64.5983 249.874 64.2734C249.481 63.9485 249.015 63.7336 248.52 63.6492C247.124 63.2173 245.729 62.7854 244.334 62.3536L245.344 61.404C244.305 60.8222 243.157 61.9019 242.508 63.2386C242.091 64.1115 241.801 65.0438 241.647 66.0054C241.426 67.01 241.417 68.0528 241.622 69.0613C241.826 70.0698 242.238 71.0198 242.829 71.8453Z" fill="#34609D"/>
<path d="M267.461 63.2131C267.854 63.6656 268.398 63.945 268.981 63.9946C269.564 64.0441 270.144 63.8601 270.602 63.4799C270.996 63.1707 271.324 62.7783 271.563 62.3282C271.802 61.8781 271.948 61.3804 271.991 60.8675C272.09 59.7218 271.547 58.4485 270.773 58.3496L270.95 57.2769C269.457 56.9955 267.62 56.9391 266.82 58.8317C266.55 59.5567 266.468 60.3429 266.58 61.1118C266.692 61.8806 266.996 62.6052 267.461 63.2131Z" fill="#34609D"/>
<path d="M165.976 140.374C171.119 140.374 175.288 134.537 175.288 127.337C175.288 120.137 171.119 114.3 165.976 114.3C160.833 114.3 156.664 120.137 156.664 127.337C156.664 134.537 160.833 140.374 165.976 140.374Z" fill="#E6E6E6"/>
<path d="M336.147 301.803C340.593 300.567 343.529 296.947 342.706 293.719C341.882 290.49 337.61 288.874 333.165 290.111C328.719 291.347 325.783 294.966 326.607 298.195C327.43 301.424 331.702 303.039 336.147 301.803Z" fill="#E6E6E6"/>
<path d="M281.696 302.854C286.142 301.618 289.078 297.998 288.255 294.769C287.431 291.541 283.159 289.925 278.714 291.161C274.268 292.397 271.332 296.017 272.155 299.246C272.979 302.474 277.251 304.09 281.696 302.854Z" fill="#E6E6E6"/>
<path d="M345.821 254.505C350.267 253.269 353.203 249.649 352.38 246.42C351.556 243.191 347.284 241.576 342.839 242.812C338.393 244.048 335.457 247.668 336.28 250.897C337.104 254.125 341.376 255.741 345.821 254.505Z" fill="#E6E6E6"/>
<path d="M361.879 234.399C363.887 234.139 365.224 231.486 364.866 228.474C364.508 225.461 362.591 223.23 360.584 223.49C358.576 223.749 357.239 226.402 357.597 229.415C357.955 232.427 359.872 234.659 361.879 234.399Z" fill="#E6E6E6"/>
<path d="M365.948 198.715C367.955 198.455 369.292 195.803 368.934 192.79C368.577 189.778 366.659 187.546 364.652 187.806C362.645 188.066 361.308 190.718 361.665 193.731C362.023 196.744 363.94 198.975 365.948 198.715Z" fill="#E6E6E6"/>
<path d="M311.057 267.312C313.064 267.053 314.402 264.4 314.044 261.387C313.686 258.375 311.769 256.143 309.761 256.403C307.754 256.663 306.417 259.316 306.775 262.328C307.132 265.341 309.05 267.572 311.057 267.312Z" fill="#E6E6E6"/>
<path d="M338.586 277.716C340.594 277.456 341.931 274.803 341.573 271.791C341.215 268.778 339.298 266.547 337.291 266.806C335.284 267.066 333.946 269.719 334.304 272.732C334.662 275.744 336.579 277.976 338.586 277.716Z" fill="#E6E6E6"/>
<path d="M560.366 126.08C562.373 125.821 563.71 123.168 563.352 120.155C562.995 117.143 561.077 114.911 559.07 115.171C557.063 115.431 555.726 118.084 556.083 121.096C556.441 124.109 558.358 126.34 560.366 126.08Z" fill="#E6E6E6"/>
<path d="M65.4853 254.062C69.931 252.826 72.8672 249.206 72.0436 245.977C71.22 242.749 66.9484 241.133 62.5027 242.369C58.057 243.605 55.1208 247.225 55.9444 250.454C56.7681 253.682 61.0396 255.298 65.4853 254.062Z" fill="#E6E6E6"/>
<path d="M11.0322 255.115C15.4779 253.879 18.4142 250.26 17.5905 247.031C16.7669 243.802 12.4953 242.187 8.04959 243.423C3.60391 244.659 0.667679 248.279 1.4913 251.507C2.31492 254.736 6.58651 256.352 11.0322 255.115Z" fill="#E6E6E6"/>
<path d="M75.1611 206.762C79.6068 205.526 82.5431 201.906 81.7195 198.678C80.8958 195.449 76.6242 193.833 72.1785 195.069C67.7328 196.306 64.7966 199.925 65.6202 203.154C66.4439 206.383 70.7155 207.998 75.1611 206.762Z" fill="#E6E6E6"/>
<path d="M91.2172 186.658C93.2245 186.398 94.5617 183.746 94.204 180.733C93.8462 177.72 91.9289 175.489 89.9216 175.749C87.9143 176.009 86.5771 178.661 86.9349 181.674C87.2926 184.686 89.2099 186.918 91.2172 186.658Z" fill="#E6E6E6"/>
<path d="M95.2855 150.975C97.2928 150.715 98.6301 148.062 98.2723 145.049C97.9146 142.037 95.9973 139.805 93.99 140.065C91.9827 140.325 90.6455 142.978 91.0032 145.99C91.361 149.003 93.2782 151.234 95.2855 150.975Z" fill="#E6E6E6"/>
<path d="M40.395 219.572C42.4023 219.312 43.7395 216.659 43.3818 213.647C43.024 210.634 41.1067 208.403 39.0994 208.662C37.0921 208.922 35.7549 211.575 36.1126 214.587C36.4704 217.6 38.3877 219.832 40.395 219.572Z" fill="#E6E6E6"/>
<path d="M67.9243 229.975C69.9316 229.715 71.2688 227.062 70.911 224.05C70.5532 221.037 68.636 218.806 66.6287 219.066C64.6214 219.325 63.2842 221.978 63.6419 224.991C63.9997 228.003 65.917 230.235 67.9243 229.975Z" fill="#E6E6E6"/>
<path d="M34.4984 259.44C36.5057 259.181 37.843 256.528 37.4852 253.515C37.1275 250.503 35.2102 248.271 33.2029 248.531C31.1956 248.791 29.8584 251.444 30.2161 254.456C30.5739 257.469 32.4911 259.7 34.4984 259.44Z" fill="#E6E6E6"/>
<path d="M396.31 35.4671C400.755 34.231 403.692 30.6115 402.868 27.3827C402.044 24.1539 397.773 22.5385 393.327 23.7746C388.881 25.0107 385.945 28.6301 386.769 31.8589C387.592 35.0877 391.864 36.7031 396.31 35.4671Z" fill="#E6E6E6"/>
<path d="M341.856 36.5202C346.302 35.2842 349.238 31.6647 348.415 28.4359C347.591 25.2071 343.32 23.5917 338.874 24.8278C334.428 26.0639 331.492 29.6833 332.316 32.9121C333.139 36.1409 337.411 37.7563 341.856 36.5202Z" fill="#E6E6E6"/>
<path d="M398.748 11.3798C400.756 11.12 402.093 8.46719 401.735 5.45465C401.377 2.44212 399.46 0.210629 397.453 0.470459C395.446 0.730289 394.108 3.38305 394.466 6.39558C394.824 9.40811 396.741 11.6396 398.748 11.3798Z" fill="#E6E6E6"/>
<path d="M365.323 40.8456C367.33 40.5858 368.667 37.933 368.309 34.9205C367.952 31.9079 366.034 29.6764 364.027 29.9363C362.02 30.1961 360.683 32.8489 361.04 35.8614C361.398 38.8739 363.315 41.1054 365.323 40.8456Z" fill="#E6E6E6"/>
<path d="M33.6754 254.117L34.112 253.873L33.6754 254.117C35.1187 256.703 37.9538 258.395 41.9256 259.252C45.8999 260.109 51.0819 260.147 57.3445 259.366C69.7791 257.816 86.2249 253.202 106.213 245.671C147.37 230.164 198.987 204.014 251.558 172.043C304.128 140.072 351.377 106.096 384.6 76.3681C390.981 70.6573 396.775 65.1617 401.819 60.0351C408.448 53.4611 414.563 46.3453 420.107 38.7554L420.112 38.7487C423.85 33.449 426.371 28.7297 427.615 24.7058C428.858 20.6881 428.847 17.2916 427.407 14.7106L426.97 14.9542L427.407 14.7106C426.203 12.5532 424.055 11.0263 421.107 10.0862C418.163 9.14749 414.386 8.78154 409.85 8.96366C400.878 9.32396 388.827 11.835 374.133 16.4594L373.655 14.8137C389.404 9.85525 401.911 7.31487 411.135 7.16701C420.475 7.01726 426.272 9.31881 428.787 13.8273L429.224 13.5837L428.787 13.8274C430.354 16.6341 430.572 20.1953 429.355 24.5408C428.137 28.8894 425.492 33.9792 421.397 39.7849C415.8 47.4514 409.625 54.6387 402.932 61.278L402.928 61.2824C397.862 66.4325 392.042 71.9529 385.631 77.6908C352.351 107.47 305.019 141.512 252.351 173.541C199.682 205.572 147.971 231.764 106.746 247.297C86.6018 254.887 70.047 259.518 57.5299 261.077L57.5271 261.077C54.7386 261.441 51.9319 261.632 49.1219 261.649C40.2638 261.649 34.7209 259.348 32.2951 255C29.8965 250.701 30.6465 244.669 34.8288 236.816C38.953 229.072 46.3484 219.689 57.016 208.717L58.1576 209.931C48.215 220.157 41.0472 229.152 36.8728 236.566C34.7624 240.314 33.4049 243.679 32.85 246.611C32.2948 249.543 32.5374 252.077 33.6754 254.117Z" fill="#3F3D56" stroke="black"/>
</svg>
