<svg width="526" height="354" viewBox="0 0 526 354" fill="none" xmlns="http://www.w3.org/2000/svg">
<path d="M118.774 32.5177L130.283 44.0957L125.002 52.0344L113.243 39.3315C112.733 39.2945 112.22 39.179 111.717 38.975C108.985 37.8654 107.612 34.6019 108.652 31.6857C109.692 28.7695 112.75 27.3049 115.483 28.4145C117.225 29.1222 118.411 30.7068 118.774 32.5177Z" fill="#FFB6B6"/>
<path d="M81.0544 323.798L89.3566 323.797L93.306 289.622L81.0527 289.623L81.0544 323.798Z" fill="#FFB6B6"/>
<path d="M80.7621 333.041L106.293 333.04V332.695C106.292 326.838 101.843 322.091 96.3554 322.09L91.6914 318.315L82.9904 322.091L80.7617 322.091L80.7621 333.041Z" fill="#2F2E41"/>
<path d="M100.404 314.442L108.186 317.53L123.052 286.969L111.567 282.411L100.404 314.442Z" fill="#FFB6B6"/>
<path d="M97.1113 322.996L121.04 332.494L121.153 332.171C123.066 326.681 120.447 320.576 115.304 318.534L112.166 313.26L102.777 313.562L100.688 312.733L97.1113 322.996Z" fill="#2F2E41"/>
<path d="M116.129 146.896L132.978 249.165L117.182 312.661L102.439 306.48L104.545 301.423L101.386 294.68L106.125 260.965L106.132 239.418L92.9615 196.345L89.2757 267.146L95.0677 302.547L93.9773 312.661L76.6388 314.909L78.745 307.604L67.6877 272.203L69.7938 265.46L55.0508 182.859L58.7365 156.449L116.129 146.896Z" fill="#2F2E41"/>
<path d="M66.3692 46.0325H87.3603L93.7492 57.2708L100.594 55.585L104.062 57.2708L119.55 60.6423L114.811 90.4237L113.758 124.701L114.284 139.31C119.82 143.627 118.391 149.576 117.163 156.21C117.163 156.21 64.2631 171.649 55.8385 166.718V160.347L60.8406 117.677L42.4117 69.3519C41.6032 62.7362 48.1525 60.9489 54.2588 59.5184L60.5773 57.2708L66.3692 46.0325Z" fill="#34609D"/>
<path d="M114.812 64.5756L119.551 60.6422L130.332 64.5756L126.396 57.8326V54.5828L120.077 52.7754L119.551 47.7181L114.812 43.7515L122.572 34.1946L128.238 39.2916L131.661 39.2894L136.371 44.3157L153.256 68.9189C156.846 74.1497 155.813 81.6416 150.766 85.2518C148.826 86.6401 146.494 87.6141 143.771 87.6141H113.914L114.812 64.5756Z" fill="#34609D"/>
<path d="M78.8498 42.5173C87.5623 42.5173 94.6253 34.9799 94.6253 25.6819C94.6253 16.3839 87.5623 8.84644 78.8498 8.84644C70.1372 8.84644 63.0742 16.3839 63.0742 25.6819C63.0742 34.9799 70.1372 42.5173 78.8498 42.5173Z" fill="#FFB6B6"/>
<path d="M48.5245 176.282L48.1501 159.409L57.1527 157.835L56.9537 175.691C57.2875 176.103 57.5715 176.574 57.7887 177.099C58.9702 179.953 57.76 183.289 55.0857 184.55C52.4113 185.811 49.2855 184.519 48.104 181.665C47.3505 179.845 47.5731 177.831 48.5245 176.282Z" fill="#FFB6B6"/>
<path d="M48.2599 63.9597C44.7083 63.7424 41.8368 67.0057 42.2631 70.7748L33.6475 122.005L32.2773 125.084L33.8487 126.816L34.179 130.785L47.2968 167.758L63.6893 168.406L57.5825 91.0573L53.3375 68.0746C52.5867 65.7286 50.5791 64.1017 48.2599 63.9597Z" fill="#34609D"/>
<path d="M128.079 21.2414C128.079 28.6895 123.341 35.9849 115.442 33.443C108.761 31.2925 100.245 32.184 106.865 19.6243C98.0385 14.9145 106.867 2.7785 115.442 6.47108C123.115 1.97576 128.079 13.7933 128.079 21.2414Z" fill="#FF6584"/>
<path d="M114.987 6.77386C111.913 7.54132 113.493 7.87166 114.846 3.55669C115.439 1.66372 117.333 0.440215 119.154 0.0218144C120.145 -0.205884 120.569 1.41881 119.574 1.64734C118.159 1.97239 116.943 2.9205 116.265 4.293C115.535 5.76954 115.604 4.4732 116.351 5.92303C116.84 6.87441 115.477 7.72595 114.987 6.77386Z" fill="#3F3D56"/>
<path d="M188.06 333.144C188.06 333.662 187.67 334.078 187.184 334.078H0.875312C0.389867 334.078 0 333.662 0 333.144C0 332.626 0.389867 332.21 0.875312 332.21H187.184C187.67 332.21 188.06 332.626 188.06 333.144Z" fill="#CCCCCC"/>
<path d="M92.0277 12.1865C92.984 12.6889 93.8813 13.3169 94.6904 14.039C94.9258 14.251 92.6971 14.5336 92.9178 14.7534C91.3363 17.4694 97.9269 20.8683 95.1244 21.0332C94.5654 19.7615 85.9373 16.7865 85.0032 15.8052C85.1356 16.9356 88.6295 18.3407 88.5044 19.4633C85.3636 19.2513 78.3611 17.9953 74.5289 16.3233C76.8377 21.2335 76.8551 25.0928 71.5866 26.528C67.6435 26.528 64.8906 30.6969 66.2169 34.6597L67.1733 37.5177L63.4955 33.5928C61.9659 31.9605 59.0036 28.0989 58.0287 23.976C57.3285 21.0151 57.8989 17.9126 59.3563 15.2845C59.4101 15.1874 59.4589 15.0937 59.5014 15.0046C58.6703 15.4127 57.8023 15.7268 56.9123 15.9387C56.8755 14.2274 63.0983 11.0562 63.4955 10.0435C65.3418 5.32581 62.6496 5.33367 70.1155 5.33367C70.7591 4.87577 72.052 5.65802 73.7933 5.33367C76.9977 4.73678 78.3223 2.40311 82.3008 3.29541C85.7342 4.06544 89.075 5.1949 91.6662 6.3471L92.9178 6.90363C93.6754 8.1988 93.9843 9.4077 93.9402 10.5066C93.874 10.491 93.8004 10.4753 93.7342 10.4674C92.4323 10.2712 93.3076 11.8882 92.0277 12.1865Z" fill="#2F2E41"/>
<path d="M440.559 146.691C441.526 146.097 442.286 145.273 442.754 144.313C443.221 143.354 443.377 142.297 443.204 141.262C443.031 140.227 442.535 139.257 441.773 138.46C441.012 137.664 440.015 137.073 438.895 136.755L424.463 132.658L416.533 138.774L434.039 147.032C435.057 147.512 436.203 147.734 437.353 147.674C438.502 147.614 439.611 147.274 440.559 146.691Z" fill="#FFB9B9"/>
<path d="M416.569 142.675L425.97 133.167L390.964 99.7504L374.847 67.157C373.785 65.0094 371.894 63.2539 369.503 62.1952C367.112 61.1365 364.371 60.8414 361.757 61.3612C360.047 61.7011 358.449 62.3783 357.086 63.3406C355.723 64.303 354.631 65.5251 353.894 66.9129C353.156 68.3008 352.794 69.8176 352.833 71.3468C352.872 72.876 353.313 74.3771 354.121 75.7346L375.157 111.077L416.569 142.675Z" fill="black"/>
<path d="M439.079 268.599L437.237 266.108H433.836V265.021H437.917L440.128 268.01L439.079 268.599Z" fill="#3F3D56"/>
<path d="M431.476 265.737H424.439V264.755H431.476V265.737ZM422.094 265.737H415.057V264.755H422.094V265.737ZM412.711 265.737H405.674V264.755H412.711L412.711 265.737ZM403.328 265.737H396.292V264.755H403.328V265.737ZM393.946 265.737H386.909V264.755H393.946V265.737ZM384.563 265.737L378.044 265.733L377.451 265.669L377.613 264.696L378.166 264.755H384.563V265.737ZM375.126 265.421L368.15 264.678L368.312 263.704L375.288 264.448L375.126 265.421ZM365.825 264.43L358.85 263.686L359.011 262.712L365.987 263.456L365.825 264.43ZM356.525 263.438L349.549 262.694L349.71 261.721L356.686 262.464L356.525 263.438ZM347.224 262.446L340.248 261.703L340.409 260.729L347.385 261.473L347.224 262.446Z" fill="#3F3D56"/>
<path d="M335.041 263.591L333.957 263.563L334.067 260.013L337.889 260.481L337.746 261.471L335.117 261.15L335.041 263.591Z" fill="#3F3D56"/>
<path d="M333.768 292.21L332.381 292.179L332.646 284.968L334.033 284.998L333.768 292.21ZM334.121 282.594L332.735 282.564L333 275.352L334.387 275.383L334.121 282.594ZM334.475 272.979L333.088 272.949L333.353 265.737L334.74 265.768L334.475 272.979Z" fill="#3F3D56"/>
<path d="M332.381 297.934L332.516 294.356L333.846 294.384L333.753 296.844L336.996 296.653L337.1 297.656L332.381 297.934Z" fill="#3F3D56"/>
<path d="M339.556 297.934L339.461 296.862L346.483 296.382L346.578 297.454L339.556 297.934ZM348.918 297.294L348.823 296.222L355.845 295.742L355.94 296.814L348.918 297.294ZM358.281 296.655L358.186 295.583L365.208 295.103L365.302 296.175L358.281 296.655ZM367.643 296.015L367.549 294.943L374.57 294.463L374.665 295.535L367.643 296.015ZM377.005 295.376L376.911 294.304L383.933 293.824L384.027 294.896L377.005 295.376ZM386.368 294.736L386.273 293.664L393.295 293.185L393.389 294.257L386.368 294.736ZM395.73 294.097L395.636 293.025L402.658 292.545L402.752 293.617L395.73 294.097ZM405.093 293.458L404.998 292.386L412.02 291.906L412.114 292.978L405.093 293.458ZM414.455 292.818L414.36 291.746L421.383 291.266L421.477 292.338L414.455 292.818ZM423.818 292.179L423.723 291.107L430.745 290.627L430.839 291.699L423.818 292.179ZM433.18 291.539L433.085 290.467L440.107 289.987L440.202 291.059L433.18 291.539ZM442.542 290.9L442.448 289.828L449.47 289.348L449.564 290.42L442.542 290.9Z" fill="#3F3D56"/>
<path d="M452.016 290.063L451.922 289.051L454.528 288.881L453.112 287.036L454.128 286.486L456.641 289.761L452.016 290.063Z" fill="#3F3D56"/>
<path d="M450.889 285.055L446.277 278.863L447.311 278.286L451.924 284.478L450.889 285.055ZM444.739 276.799L440.127 270.607L441.161 270.03L445.774 276.222L444.739 276.799Z" fill="#3F3D56"/>
<path d="M428.328 312.958C451.349 312.958 470.01 296.782 470.01 276.827C470.01 256.872 451.349 240.695 428.328 240.695C405.308 240.695 386.646 256.872 386.646 276.827C386.646 296.782 405.308 312.958 428.328 312.958Z" fill="#34609D"/>
<path d="M462.933 318.682L401.749 224.955L388.221 236.638L448.483 318.417L462.933 318.682Z" fill="#3F3D56"/>
<path d="M278.117 316.25L415.393 196.336L426.756 215.66L296.544 321.544L278.117 316.25Z" fill="#3F3D56"/>
<path d="M333.953 303.657C349.156 303.657 361.479 292.926 361.479 279.689C361.479 266.452 349.156 255.72 333.953 255.72C318.751 255.72 306.428 266.452 306.428 279.689C306.428 292.926 318.751 303.657 333.953 303.657Z" fill="#3F3D56"/>
<path d="M297.604 286.486C297.442 286.486 297.286 286.546 297.172 286.654C297.057 286.761 296.992 286.906 296.992 287.058V291.637C296.992 291.789 297.057 291.935 297.172 292.042C297.286 292.149 297.442 292.21 297.604 292.21H312.896C313.058 292.21 313.214 292.149 313.328 292.042C313.443 291.935 313.507 291.789 313.508 291.637V287.058C313.507 286.906 313.443 286.761 313.328 286.654C313.214 286.546 313.058 286.486 312.896 286.486H297.604Z" fill="#34609D"/>
<path d="M332.207 227.817C332.045 227.817 331.89 227.87 331.775 227.964C331.66 228.057 331.596 228.185 331.596 228.317V232.324C331.596 232.457 331.66 232.584 331.775 232.678C331.89 232.772 332.045 232.825 332.207 232.825H347.499C347.662 232.825 347.817 232.772 347.932 232.678C348.046 232.584 348.111 232.457 348.111 232.324V228.317C348.111 228.185 348.046 228.057 347.932 227.964C347.817 227.87 347.662 227.817 347.499 227.817H332.207Z" fill="#34609D"/>
<path d="M407.094 218.516H391.365V207.783L397.415 205.637L407.094 212.076V218.516Z" fill="#3F3D56"/>
<path d="M393.017 203.305L391.357 203.986L394.497 209.745L396.156 209.064L393.017 203.305Z" fill="#3F3D56"/>
<path d="M394.513 196.336C394.4 196.336 394.29 196.365 394.196 196.421L383.772 202.49C383.641 202.567 383.549 202.687 383.515 202.826C383.482 202.964 383.511 203.109 383.596 203.228L386.149 206.823C386.234 206.942 386.367 207.026 386.52 207.056C386.673 207.086 386.833 207.06 386.964 206.983L397.388 200.914C397.519 200.837 397.611 200.717 397.645 200.578C397.678 200.44 397.649 200.295 397.564 200.176L395.011 196.581C394.969 196.522 394.915 196.471 394.851 196.431C394.787 196.391 394.716 196.363 394.64 196.348C394.598 196.34 394.556 196.336 394.513 196.336Z" fill="#34609D"/>
<path d="M418.922 217.77L406.307 164.836L421.076 162.708L431.146 205.351C431.579 206.897 431.582 208.509 431.156 210.056C430.73 211.604 429.886 213.042 428.694 214.253C427.502 215.464 425.995 216.415 424.296 217.026C422.598 217.637 420.756 217.892 418.922 217.77Z" fill="#3F3D56"/>
<path d="M465.173 154.12L450.695 153.23C450.502 153.218 450.314 153.166 450.148 153.08C449.983 152.993 449.843 152.873 449.742 152.731C449.641 152.588 449.58 152.427 449.566 152.26C449.551 152.094 449.583 151.927 449.659 151.773L470.689 109.022C470.768 108.861 470.893 108.72 471.052 108.611C471.21 108.502 471.398 108.428 471.598 108.398L485.878 106.202C486.092 106.169 486.311 106.186 486.515 106.251C486.718 106.315 486.898 106.425 487.035 106.57C487.173 106.714 487.263 106.887 487.297 107.072C487.331 107.256 487.307 107.445 487.228 107.618L466.396 153.455C466.301 153.664 466.131 153.841 465.911 153.961C465.691 154.08 465.433 154.136 465.173 154.12Z" fill="#3F3D56"/>
<path d="M452.709 150.197L464.364 151.261L483.381 109.763L471.112 111.359L452.709 150.197Z" fill="#34609D"/>
<path d="M326.088 263.855L310.939 277.185L289.125 193.474L301.244 195.073L326.088 263.855Z" fill="#3F3D56"/>
<path d="M308.47 195.115L305.785 194.461C300.511 196.349 294.773 197.225 289.015 197.023C287.771 196.981 286.596 196.549 285.737 195.818C284.878 195.087 284.401 194.114 284.408 193.104C284.408 192.063 284.917 191.066 285.824 190.33C286.73 189.594 287.96 189.181 289.241 189.181H312.687C313.321 189.181 313.93 189.386 314.379 189.75C314.828 190.114 315.08 190.608 315.08 191.123C315.08 191.773 314.893 192.414 314.533 192.994C314.174 193.575 313.652 194.079 313.01 194.467C312.368 194.855 311.623 195.115 310.834 195.228C310.046 195.34 309.236 195.302 308.47 195.115Z" fill="#3F3D56"/>
<path d="M454.702 143.391C454.105 143.39 453.524 143.557 453.049 143.868L434.066 156.289L412.817 158.66C409.158 159.069 406.624 162.474 406.307 165.57L431.32 162.598C434.794 162.312 438.078 161.106 440.715 159.148L456.483 147.479C456.904 147.168 457.203 146.755 457.341 146.295C457.479 145.835 457.449 145.35 457.255 144.904C457.061 144.459 456.712 144.076 456.256 143.805C455.799 143.534 455.257 143.39 454.702 143.391Z" fill="#3F3D56"/>
<path d="M445.307 135.52C444.719 135.519 444.147 135.687 443.68 135.997L424.988 148.418L404.066 150.79C400.464 151.198 397.969 154.604 397.656 157.7L422.284 154.728C425.706 154.441 428.939 153.235 431.535 151.278L447.061 139.608C447.475 139.298 447.769 138.885 447.905 138.425C448.041 137.965 448.011 137.479 447.82 137.034C447.629 136.589 447.286 136.205 446.837 135.935C446.387 135.664 445.854 135.519 445.307 135.52Z" fill="#3F3D56"/>
<path d="M457.096 167.001C452.719 166.993 448.405 166.097 444.501 164.383C440.598 162.67 437.213 160.188 434.619 157.136L437.087 155.569C439.067 157.91 441.574 159.879 444.458 161.357C447.342 162.835 450.542 163.792 453.865 164.17C457.187 164.548 460.564 164.339 463.791 163.556C467.018 162.772 470.028 161.431 472.639 159.612C475.251 157.794 477.409 155.536 478.983 152.975C480.558 150.415 481.517 147.604 481.801 144.714C482.086 141.824 481.691 138.913 480.639 136.159C479.588 133.405 477.902 130.863 475.684 128.689L477.979 126.935C481.528 130.414 483.841 134.706 484.64 139.295C485.44 143.884 484.693 148.575 482.488 152.805C480.283 157.036 476.714 160.625 472.21 163.144C467.706 165.662 462.458 167.001 457.096 167.001Z" fill="#3F3D56"/>
<path d="M477.875 315.82H261.602V329.414H477.875V315.82Z" fill="#3F3D56"/>
<path d="M425.199 160.18C426.28 159.81 427.219 159.188 427.908 158.384C428.597 157.581 429.009 156.628 429.098 155.634C429.186 154.64 428.948 153.644 428.409 152.76C427.87 151.877 427.053 151.14 426.05 150.633L413.123 144.106L403.949 148.295L418.817 159.268C419.681 159.906 420.734 160.328 421.859 160.489C422.984 160.65 424.14 160.543 425.199 160.18Z" fill="#FFB9B9"/>
<path d="M323.696 207.129L332.307 211.361L385.477 177.704C387.427 176.558 389.08 175.078 390.333 173.357C391.586 171.635 392.411 169.709 392.757 167.7C393.19 165.161 392.845 162.568 391.758 160.177C390.671 157.786 388.879 155.68 386.557 154.066C374.815 145.865 360.303 138.425 344.915 131.227L322.158 140.748C331.537 157.286 341.948 170.921 357.217 170.897L323.696 207.129Z" fill="#34609D"/>
<path d="M319.691 217.714C326.931 223.885 336.466 228.301 347.116 231.863C347.919 232.13 348.801 232.182 349.64 232.01C350.479 231.839 351.234 231.453 351.801 230.905C352.49 230.241 352.857 229.382 352.828 228.501C352.799 227.619 352.377 226.779 351.646 226.148L344.742 220.185L340.571 207.688C331.615 211.412 325.742 210.578 324.584 202.775L318.938 209.252C317.847 210.508 317.323 212.049 317.461 213.6C317.599 215.15 318.39 216.609 319.691 217.714Z" fill="#2F2E41"/>
<path d="M295.942 273.792L308.947 274.323L338.673 143.154L287.582 129.081C282.481 145.435 290.054 172.204 303.374 203.693L295.942 273.792Z" fill="#34609D"/>
<path d="M394.906 57.5332C405.982 57.5332 414.961 49.6851 414.961 40.004C414.961 30.3229 405.982 22.4749 394.906 22.4749C383.83 22.4749 374.852 30.3229 374.852 40.004C374.852 49.6851 383.83 57.5332 394.906 57.5332Z" fill="#FFB9B9"/>
<path d="M358.334 61.6472L371.11 69.6963L390.578 52.5249L380.844 41.7927L358.334 61.6472Z" fill="#FFB9B9"/>
<path d="M285.98 130.766C301.783 142.015 319.039 149.409 340.285 146.224C346.705 137.257 351.446 118.369 359.505 110.245C377.106 92.504 385.835 76.6911 380.251 62.273C374.823 59.1729 375.061 59.1781 371.098 48.9475C340.055 53.9646 310.002 84.5772 285.98 130.766Z" fill="#2F2E41"/>
<path d="M295.843 284.706C304.939 288.4 315.439 289.791 326.623 290.062C327.465 290.082 328.294 289.876 328.995 289.474C329.696 289.073 330.235 288.494 330.537 287.818C330.905 286.998 330.899 286.089 330.522 285.272C330.145 284.455 329.423 283.79 328.501 283.409L319.798 279.814L310.998 269.314C304.268 275.377 298.551 276.286 294.383 269.314L291.784 277.001C291.284 278.49 291.417 280.084 292.161 281.496C292.905 282.908 294.21 284.046 295.843 284.706Z" fill="#2F2E41"/>
<path d="M402.574 151.976L414.172 144.508L388.534 105.034L381.117 70.0366C380.628 67.7306 379.231 65.6469 377.168 64.1471C375.104 62.6473 372.505 61.8262 369.821 61.8262C368.066 61.8262 366.334 62.1776 364.759 62.8536C363.183 63.5295 361.806 64.512 360.732 65.7255C359.659 66.9391 358.918 68.3514 358.567 69.8541C358.215 71.3569 358.262 72.91 358.705 74.3942L370.22 113.036L402.574 151.976Z" fill="#2F2E41"/>
<path d="M344.18 232.11H337.102V264.306H344.18V232.11Z" fill="#3F3D56"/>
<path d="M410.843 34.8637C411.625 35.6787 412.627 36.3116 413.76 36.7055C414.893 37.0993 416.121 37.2416 417.333 37.1197C419.736 36.7938 421.875 35.0104 422.029 32.8988C422.162 31.0754 420.93 29.403 419.637 27.9631C416.784 24.7879 413.396 22.0058 409.588 19.711C407.772 18.6174 405.769 17.6107 403.565 17.4928C402.474 17.4344 401.381 17.598 400.289 17.5572C398.282 17.4821 396.4 16.7265 394.442 16.3351C392.431 15.9454 390.348 15.936 388.333 16.3075C386.317 16.6789 384.417 17.4227 382.761 18.4883C381.656 19.2225 380.657 20.0696 379.786 21.0113C377.374 23.5771 375.757 26.6367 375.088 29.8993C374.035 35.0711 375.349 40.7432 372.492 45.3702C375.844 45.0979 378.532 42.8744 381.716 41.924C384.079 41.2261 386.644 41.246 388.992 41.9804C389.597 42.2502 390.279 42.3611 390.955 42.2998C391.514 42.1283 392.002 41.8177 392.359 41.4068L398.449 35.6427C399.688 34.4697 401.096 33.2199 402.917 33.0575C404.005 33.0248 405.087 33.2114 406.078 33.6029C408.519 34.406 410.881 35.3822 413.139 36.5217" fill="#2F2E41"/>
<path d="M399.499 156.057L397.656 157.117L409.945 167.717L417.318 161.887L405.029 153.407L399.499 156.057Z" fill="#3F3D56"/>
<path d="M525.291 346.079L522.986 342.097L506.449 350.018L508.754 354L525.291 346.079Z" fill="#E6E6E6"/>
</svg>
