<svg width="409" height="373" viewBox="0 0 409 373" fill="none" xmlns="http://www.w3.org/2000/svg">
<path d="M285.397 361.487L276.623 361.486L272.449 323.569L285.398 323.57L285.397 361.487Z" fill="#A0616A"/>
<path d="M285.165 358.274L275.804 354.014L275.528 353.887L270.359 358.274C267.522 358.274 264.795 359.501 262.746 361.699C260.697 363.897 259.485 366.897 259.362 370.072C259.348 370.247 259.348 370.429 259.348 370.612V371.017H287.636V358.274H285.165Z" fill="#2F2E41"/>
<path d="M264.851 352.338L256.575 355.601L241.406 321.385L253.621 316.57L264.851 352.338Z" fill="#A0616A"/>
<path d="M263.678 349.395L253.586 348.857L253.288 348.84L249.712 354.901C247.036 355.956 244.826 358.127 243.545 360.963C242.263 363.798 242.008 367.079 242.833 370.12C242.871 370.29 242.925 370.462 242.979 370.634L243.099 371.016L269.784 360.495L266.009 348.476L263.678 349.395Z" fill="#2F2E41"/>
<path d="M288.497 197.997C296.524 197.649 286.581 269.317 286.581 269.317C286.581 269.317 289.489 332.239 288.873 335.541C288.256 338.843 288.795 347.749 288.795 347.749C287.223 344.542 270.999 346.962 270.999 346.962L268.792 283.191L257.524 232.096L241.902 266.346L256.875 318.918C256.875 318.918 262.939 325.205 262.294 327.689C261.649 330.174 245.766 335.777 242.848 335.903C239.929 336.03 241.247 331.879 241.105 327.791C240.964 323.703 227.23 285.816 222.399 272.925C217.568 260.034 221.324 241.857 223.79 228.648C226.256 215.44 239.229 190.653 239.229 190.653C255.332 170.302 280.471 198.346 288.497 197.997Z" fill="#2F2E41"/>
<path d="M190.683 140.079C191.123 141.021 191.741 141.842 192.495 142.487C193.249 143.131 194.119 143.583 195.046 143.809C195.972 144.036 196.931 144.032 197.856 143.798C198.781 143.564 199.649 143.106 200.398 142.456L219.7 156.566L219.641 143.147L201.321 131.805C200.263 130.467 198.803 129.609 197.218 129.396C195.633 129.183 194.033 129.628 192.722 130.648C191.411 131.668 190.479 133.191 190.103 134.93C189.727 136.668 189.934 138.5 190.683 140.079Z" fill="#A0616A"/>
<path d="M284.328 209.486C264.424 209.487 253.455 205.023 247.63 201.036C240.508 196.162 239.289 191.022 239.241 190.805L239.227 190.743L239.92 180.967L240.223 180.207C241.62 176.703 241.806 172.742 240.743 169.093L240.721 169.018L240.727 168.94L245.381 101.306L261.851 95.2605L266.642 89.8662L287.975 89.5195L290.948 96.2717L307.766 103.366L299.503 158.474L295.542 166.124L297.136 174.457L297.125 174.532L291.929 209.283L291.643 209.297C289.08 209.426 286.642 209.489 284.328 209.486Z" fill="#3F3D56"/>
<path d="M232.834 167.291L225.025 162.104L224.536 161.312C223.542 159.709 222.226 158.39 220.694 157.46C219.163 156.53 217.458 156.016 215.717 155.958L215.626 155.955L204.871 148.87L209.329 134.237L226.189 139.818L237.943 107.094C238.589 105.297 239.666 103.735 241.056 102.583C242.447 101.431 244.095 100.734 245.818 100.569C247.54 100.404 249.27 100.778 250.814 101.649C252.359 102.52 253.658 103.853 254.566 105.502C255.496 107.225 255.979 109.205 255.959 111.219V132.631L255.888 132.737L232.834 167.291Z" fill="#3F3D56"/>
<path d="M285.039 196.9C285.206 195.855 285.576 194.863 286.122 193.994C286.668 193.126 287.377 192.402 288.2 191.874C289.023 191.346 289.939 191.027 290.884 190.939C291.828 190.85 292.779 190.995 293.668 191.363L308.295 171.407L311.837 184.226L297.404 201.211C296.754 202.844 295.591 204.153 294.137 204.89C292.682 205.627 291.037 205.741 289.513 205.21C287.989 204.678 286.692 203.539 285.867 202.007C285.042 200.476 284.748 198.659 285.039 196.9Z" fill="#A0616A"/>
<path d="M306.909 194.379L297.197 183.495L303.379 166.615L312.34 152.906C302.792 147.698 295.625 135.36 290.431 125.146L290.373 125.032L291.666 113.683C291.969 111.028 292.918 108.519 294.409 106.429C295.706 104.611 297.372 103.168 299.269 102.22C301.165 101.272 303.237 100.846 305.311 100.979C307.384 101.112 309.399 101.799 311.187 102.983C312.975 104.167 314.483 105.813 315.587 107.784L333 151.159L332.804 151.487L318.798 178.24L314.975 181.018L306.909 194.379Z" fill="#3F3D56"/>
<path d="M292.626 66.7687C291.986 71.9986 289.519 76.7298 285.767 79.9228C282.015 83.1158 277.286 84.5094 272.618 83.7975C267.949 83.0856 263.724 80.3264 260.871 76.1261C258.017 71.9257 256.768 66.6279 257.398 61.3964L257.432 61.1137C258.169 55.9521 260.687 51.3218 264.443 48.2215C268.199 45.1213 272.892 43.7996 277.509 44.5416C282.127 45.2836 286.3 48.0298 289.127 52.1878C291.954 56.3458 293.209 61.5824 292.621 66.7678L292.626 66.7687Z" fill="#A0616A"/>
<path d="M288.101 77.0283C289.014 74.9505 289.952 72.7197 289.695 70.4217C289.439 68.1236 287.427 65.9271 285.452 66.6101C284.271 67.0185 283.379 68.3252 282.144 68.3921C280.446 68.4841 279.472 66.3058 278.943 64.4947L276.79 57.1187C274.722 58.9244 272.324 60.1964 269.767 60.8438C267.21 61.4913 264.557 61.4982 261.997 60.8642C259.998 60.3521 257.978 59.3535 256.805 57.4683C255.632 55.5831 255.639 52.6588 257.248 51.2333C258.037 50.5343 259.086 50.2687 259.84 49.5229C260.308 49.0602 260.63 48.4411 260.759 47.7573C260.888 47.0734 260.817 46.3612 260.557 45.7259C260.297 45.0906 259.861 44.566 259.314 44.2298C258.768 43.8936 258.139 43.7636 257.521 43.8591L262.942 43.0998L261.327 39.826C261.941 40.2943 262.636 40.6137 263.366 40.7639C264.097 40.9141 264.847 40.8917 265.57 40.6982C267.028 40.4039 268.402 39.7309 269.829 39.2821C273.288 38.2924 276.941 38.5948 280.232 40.1435C283.524 41.6922 286.274 44.4025 288.066 47.8626C289.4 47.3634 290.838 47.3302 292.189 47.7674C293.541 48.2047 294.742 49.0917 295.633 50.3109C297.085 52.3751 297.479 55.1296 297.536 57.7566C297.641 62.9365 296.633 68.0688 294.597 72.7205C294.013 74.1981 293.174 75.5317 292.128 76.6446C291.601 77.1964 290.974 77.6124 290.288 77.8635C289.603 78.1146 288.877 78.1946 288.162 78.098" fill="#2F2E41"/>
<path d="M0.0417183 56.5339C0.331774 61.173 1.5515 65.6792 3.61017 69.7172C7.94891 78.2552 15.3893 84.4367 23.4028 88.1109C33.4144 92.7014 44.5748 92.8429 55.1997 91.8193C65.0682 90.8686 74.8363 88.6649 84.7412 88.2107C92.4011 87.9361 100.069 88.141 107.708 88.8246C122.53 90.0033 137.29 92.1904 151.955 94.8418C155.926 95.5511 159.89 96.3131 163.844 97.1279C164.218 97.1649 164.588 97.2419 164.949 97.3578C165.02 97.3908 165.136 97.365 165.202 97.4114C165.321 97.4956 164.719 97.1978 165.084 97.5359C165.593 98.134 166.046 98.7881 166.438 99.4883L171.854 107.298C173.407 109.538 174.849 112.259 176.856 114.024C178.271 115.249 179.979 115.978 181.763 116.117C183.548 116.256 185.329 115.8 186.882 114.807C188.505 113.658 189.799 112.011 190.61 110.062C191.856 107.502 193.342 105.098 195.044 102.891C201.488 94.4685 210.443 89.2879 217.933 82.201C221.561 78.9088 224.658 74.9427 227.087 70.4759C229.16 66.4337 230.449 61.9473 230.87 57.3092C231.767 47.8904 229.187 38.2851 224.849 30.2724C220.13 21.664 213.35 14.7112 205.281 10.2041C196.216 5.02926 186.185 2.50863 176.13 1.25253C165.455 -0.0810837 154.655 -0.0769265 143.928 0.057716C131.888 0.207878 119.871 0.801113 107.875 1.8374C95.8628 2.87919 83.8981 4.36 71.9808 6.27985C60.5455 8.12204 48.9706 10.0421 37.7771 13.3017C27.8887 16.1813 18.0281 20.6823 10.644 28.8375C4.07855 36.0886 -0.487844 46.0113 0.0417183 56.5339Z" fill="#34609D"/>
<path d="M55.316 59.5302C54.8271 59.5056 54.3481 59.3677 53.9091 59.1255C53.4701 58.8832 53.0806 58.5418 52.7652 58.1226C52.4497 57.7034 52.2151 57.2156 52.0762 56.6899C51.9372 56.1641 51.8969 55.6118 51.9577 55.0678L52.2118 52.8265C52.2603 52.3966 52.2149 51.9599 52.0795 51.554C51.9441 51.1481 51.7228 50.7852 51.4345 50.4963L49.9321 48.992C49.4401 48.4995 49.0808 47.8626 48.895 47.1533C48.7092 46.444 48.7043 45.6906 48.8807 44.9783C49.0572 44.266 49.408 43.6232 49.8935 43.1227C50.379 42.6222 50.9798 42.2839 51.628 42.1461L53.6087 41.7245C53.9884 41.6438 54.3449 41.4608 54.6475 41.1914C54.9501 40.922 55.1897 40.5742 55.3457 40.178L56.1587 38.1093C56.4249 37.433 56.8546 36.8537 57.3993 36.4367C57.9439 36.0198 58.5818 35.7818 59.2409 35.7498C59.8999 35.7178 60.5538 35.893 61.1286 36.2556C61.7034 36.6181 62.1763 37.1536 62.4937 37.8015L63.4629 39.7819C63.6488 40.1621 63.9145 40.486 64.237 40.7255C64.5595 40.965 64.9292 41.1129 65.3142 41.1566L67.3194 41.3836C67.9758 41.458 68.6005 41.7367 69.1229 42.1882C69.6453 42.6397 70.0445 43.246 70.2753 43.9384C70.5062 44.6309 70.5596 45.382 70.4294 46.1067C70.2992 46.8314 69.9906 47.5008 69.5385 48.0392L68.1575 49.6843C67.8924 49.9995 67.6998 50.3823 67.5963 50.7997C67.4929 51.217 67.4817 51.6563 67.5637 52.0796L67.9898 54.2887C68.1293 55.011 68.0856 55.7627 67.8637 56.4586C67.6419 57.1546 67.2507 57.7671 66.7344 58.227C66.2181 58.6869 65.5973 58.9758 64.9422 59.0611C64.287 59.1463 63.6237 59.0245 63.0271 58.7094L61.2035 57.7466C60.8539 57.561 60.4693 57.4738 60.0828 57.4924C59.6963 57.511 59.3197 57.6349 58.9856 57.8534L57.2433 58.9903C56.66 59.3727 55.9912 59.5601 55.316 59.5302Z" fill="white"/>
<path d="M83.7061 58.6062C82.8066 58.5597 81.9559 58.1342 81.3245 57.4148C80.943 56.9621 80.6584 56.418 80.4923 55.8237C80.3262 55.2295 80.283 54.6007 80.3658 53.985L80.599 51.9285C80.6486 51.4907 80.6025 51.0458 80.4646 50.6323C80.3267 50.2188 80.1012 49.8491 79.8074 49.555L78.4137 48.1595C78.0026 47.7664 77.675 47.2755 77.4546 46.7226C77.2342 46.1697 77.1267 45.5686 77.1397 44.9633C77.1702 44.0665 77.4716 43.2079 77.9945 42.5282C78.5175 41.8485 79.2309 41.3879 80.018 41.222L81.9758 40.8054C82.3629 40.723 82.7263 40.5363 83.0347 40.2615C83.3431 39.9867 83.5872 39.632 83.746 39.2279L84.4756 37.3715C84.7364 36.6669 85.1657 36.0566 85.7162 35.6077C86.2666 35.1589 86.9169 34.889 87.5955 34.8276C88.2606 34.7854 88.9227 34.9556 89.5048 35.3185C90.087 35.6814 90.5651 36.222 90.8838 36.8775L91.8417 38.8349C92.0313 39.2223 92.3022 39.5522 92.631 39.7962C92.9598 40.0402 93.3366 40.1909 93.7289 40.2353L95.5874 40.4457C96.1265 40.493 96.6494 40.6744 97.1179 40.9769C97.5865 41.2794 97.9888 41.6952 98.2957 42.1941C98.7408 42.9397 98.9469 43.8326 98.8803 44.7265C98.8136 45.6205 98.478 46.4626 97.9286 47.1151L96.5636 48.7412C96.2939 49.0624 96.0979 49.4524 95.9926 49.8774C95.8872 50.3023 95.8756 50.7497 95.9587 51.1808L96.3521 53.2205C96.4782 53.8093 96.4861 54.422 96.3752 55.0146C96.2643 55.6071 96.0373 56.1647 95.7107 56.647C95.2173 57.3557 94.5231 57.8546 93.7425 58.0616C92.9619 58.2685 92.1416 58.1711 91.4171 57.7853L89.6125 56.8325C89.2565 56.6445 88.865 56.5563 88.4719 56.5755C88.0787 56.5947 87.6956 56.7206 87.3555 56.9425L85.6334 58.0662C85.0501 58.4487 84.3813 58.636 83.7061 58.6062Z" fill="white"/>
<path d="M112.171 58.4716C111.683 58.447 111.204 58.3092 110.765 58.0669C110.326 57.8246 109.936 57.4832 109.621 57.064C109.305 56.6448 109.071 56.157 108.932 55.6313C108.793 55.1055 108.752 54.5533 108.813 54.0092L109.067 51.7679C109.116 51.338 109.07 50.9013 108.935 50.4954C108.8 50.0895 108.578 49.7265 108.29 49.4377L106.788 47.9334C106.296 47.4409 105.936 46.804 105.751 46.0947C105.565 45.3854 105.56 44.632 105.736 43.9197C105.913 43.2074 106.263 42.5647 106.749 42.0641C107.234 41.5636 107.835 41.2253 108.483 41.0874L110.464 40.6659C110.844 40.5852 111.2 40.4022 111.503 40.1328C111.806 39.8634 112.045 39.5156 112.201 39.1194L113.014 37.0507C113.28 36.3744 113.71 35.7951 114.255 35.3781C114.799 34.9612 115.437 34.7232 116.096 34.6912C116.755 34.6592 117.409 34.8344 117.984 35.1969C118.559 35.5595 119.032 36.095 119.349 36.7429L120.318 38.7233C120.504 39.1035 120.77 39.4274 121.092 39.6669C121.415 39.9064 121.785 40.0543 122.17 40.098L124.175 40.325C124.831 40.3994 125.456 40.6781 125.978 41.1296C126.501 41.5811 126.9 42.1874 127.131 42.8798C127.362 43.5723 127.415 44.3234 127.285 45.0481C127.155 45.7727 126.846 46.4421 126.394 46.9805L125.013 48.6257C124.748 48.9409 124.555 49.3237 124.452 49.7411C124.348 50.1584 124.337 50.5977 124.419 51.0209L124.845 53.2301C124.985 53.9524 124.941 54.7041 124.719 55.4C124.497 56.096 124.106 56.7085 123.59 57.1684C123.074 57.6283 122.453 57.9172 121.798 58.0024C121.142 58.0877 120.479 57.9659 119.883 57.6507L118.059 56.688C117.709 56.5024 117.325 56.4151 116.938 56.4338C116.552 56.4524 116.175 56.5763 115.841 56.7948L114.099 57.9316C113.515 58.3141 112.847 58.5015 112.171 58.4716Z" fill="white"/>
<path d="M139.462 58.5527C138.974 58.528 138.495 58.3902 138.056 58.148C137.617 57.9057 137.227 57.5642 136.912 57.1451C136.596 56.7259 136.362 56.2381 136.223 55.7123C136.084 55.1866 136.043 54.6343 136.104 54.0903L136.358 51.849C136.407 51.4191 136.361 50.9824 136.226 50.5765C136.091 50.1706 135.869 49.8076 135.581 49.5187L134.079 48.0144C133.587 47.522 133.227 46.8851 133.042 46.1758C132.856 45.4665 132.851 44.713 133.027 44.0008C133.204 43.2885 133.555 42.6457 134.04 42.1452C134.525 41.6447 135.126 41.3063 135.774 41.1685L137.755 40.747C138.135 40.6662 138.491 40.4833 138.794 40.2139C139.097 39.9445 139.336 39.5967 139.492 39.2005L140.305 37.1317C140.571 36.4555 141.001 35.8761 141.546 35.4592C142.09 35.0422 142.728 34.8043 143.387 34.7723C144.046 34.7403 144.7 34.9154 145.275 35.278C145.85 35.6406 146.323 36.1761 146.64 36.824L147.609 38.8044C147.795 39.1846 148.061 39.5084 148.383 39.7479C148.706 39.9874 149.076 40.1354 149.461 40.179L151.466 40.406C152.122 40.4804 152.747 40.7591 153.269 41.2106C153.792 41.6621 154.191 42.2684 154.422 42.9609C154.653 43.6534 154.706 44.4044 154.576 45.1291C154.446 45.8538 154.137 46.5232 153.685 47.0616L152.304 48.7068C152.039 49.022 151.846 49.4048 151.743 49.8221C151.639 50.2394 151.628 50.6787 151.71 51.102L152.136 53.3111C152.276 54.0335 152.232 54.7851 152.01 55.4811C151.788 56.177 151.397 56.7896 150.881 57.2495C150.365 57.7094 149.744 57.9983 149.089 58.0835C148.433 58.1687 147.77 58.0469 147.174 57.7318L145.35 56.769C145 56.5835 144.616 56.4962 144.229 56.5148C143.843 56.5334 143.466 56.6573 143.132 56.8758L141.39 58.0127C140.807 58.3951 140.138 58.5825 139.462 58.5527Z" fill="white"/>
<path d="M407.158 372.539H111.613C111.389 372.539 111.175 372.439 111.016 372.262C110.858 372.085 110.77 371.845 110.77 371.594C110.77 371.344 110.858 371.103 111.016 370.926C111.175 370.749 111.389 370.649 111.613 370.649H407.158C407.382 370.649 407.596 370.749 407.754 370.926C407.912 371.103 408.001 371.344 408.001 371.594C408.001 371.845 407.912 372.085 407.754 372.262C407.596 372.439 407.382 372.539 407.158 372.539Z" fill="#CACACA"/>
<path d="M167.787 58.5527C167.298 58.528 166.819 58.3902 166.38 58.148C165.941 57.9057 165.551 57.5642 165.236 57.1451C164.92 56.7259 164.686 56.2381 164.547 55.7123C164.408 55.1866 164.368 54.6343 164.428 54.0903L164.683 51.849C164.731 51.4191 164.686 50.9824 164.55 50.5765C164.415 50.1706 164.193 49.8076 163.905 49.5187L162.403 48.0144C161.911 47.522 161.552 46.8851 161.366 46.1758C161.18 45.4665 161.175 44.713 161.351 44.0008C161.528 43.2885 161.879 42.6457 162.364 42.1452C162.85 41.6447 163.451 41.3063 164.099 41.1685L166.079 40.747C166.459 40.6662 166.816 40.4833 167.118 40.2139C167.421 39.9445 167.66 39.5967 167.816 39.2005L168.629 37.1317C168.896 36.4555 169.325 35.8761 169.87 35.4592C170.415 35.0422 171.053 34.8043 171.712 34.7723C172.371 34.7403 173.024 34.9154 173.599 35.278C174.174 35.6406 174.647 36.1761 174.964 36.824L175.934 38.8044C176.119 39.1846 176.385 39.5084 176.708 39.7479C177.03 39.9874 177.4 40.1354 177.785 40.179L179.79 40.406C180.446 40.4804 181.071 40.7591 181.594 41.2106C182.116 41.6621 182.515 42.2684 182.746 42.9609C182.977 43.6534 183.03 44.4044 182.9 45.1291C182.77 45.8538 182.461 46.5232 182.009 47.0616L180.628 48.7068C180.363 49.022 180.17 49.4048 180.067 49.8221C179.964 50.2394 179.952 50.6787 180.034 51.102L180.461 53.3111C180.6 54.0335 180.556 54.7851 180.334 55.4811C180.113 56.177 179.721 56.7896 179.205 57.2495C178.689 57.7094 178.068 57.9983 177.413 58.0835C176.758 58.1687 176.094 58.0469 175.498 57.7318L173.674 56.769C173.325 56.5835 172.94 56.4962 172.553 56.5148C172.167 56.5334 171.79 56.6573 171.456 56.8758L169.714 58.0127C169.131 58.3951 168.462 58.5825 167.787 58.5527Z" fill="white"/>
</svg>
