<svg width="313" height="413" viewBox="0 0 313 413" fill="none" xmlns="http://www.w3.org/2000/svg">
<path d="M251.039 142.7H220.16V131.484C220.16 112.684 233.996 97.4206 251.039 97.4206L251.039 142.7Z" fill="#2F2E41"/>
<path d="M244.195 121.762L249.505 148.105L218.393 142.406L231.071 117.493L244.195 121.762Z" fill="#A0616A"/>
<path opacity="0.1" d="M244.195 121.762L249.505 148.105L218.393 142.406L231.071 117.493L244.195 121.762Z" fill="black"/>
<path d="M214.367 226.734H244.195V178.036H214.367V226.734Z" fill="#A0616A"/>
<path d="M263.583 266.548L257.021 305.375C257.021 305.375 261.197 332.356 248.669 359.995L240.317 388.293L227.789 386.318C227.789 386.318 235.544 365.26 235.544 356.047C235.544 346.834 237.334 311.297 237.334 311.297L236.439 270.748L263.583 266.548Z" fill="#2F2E41"/>
<path d="M225.999 385.66C225.999 385.66 240.317 379.738 241.51 388.293L240.913 392.241C240.913 392.241 246.282 410.009 238.527 411.326C230.772 412.642 223.613 414.616 223.016 410.667C222.42 406.719 222.429 401.79 223.916 398.332C225.403 394.874 225.999 385.66 225.999 385.66Z" fill="#2F2E41"/>
<path d="M218.422 260.525L214.937 299.833C214.937 299.833 204.123 324.469 209.189 354.861L210.077 384.605L222.608 386.552C222.608 386.552 220.468 363.945 222.791 355.095C225.113 346.245 232.354 311.562 232.354 311.562L243.436 272.886L218.422 260.525Z" fill="#2F2E41"/>
<path d="M224.494 386.468C224.494 386.468 212.234 376.387 208.931 384.238L208.509 388.214C208.509 388.214 198.872 403.634 205.99 407.278C213.107 410.921 219.486 415.014 221.054 411.404C222.623 407.794 223.856 403.057 223.3 399.279C222.744 395.501 224.494 386.468 224.494 386.468Z" fill="#2F2E41"/>
<path d="M256.424 204.359C270.455 218.803 271.496 241.655 263.284 268.851C263.284 268.851 237.036 288.594 217.945 263.587L208.4 212.914L256.424 204.359Z" fill="#2F2E41"/>
<path d="M232.86 133.945L247.774 136.577L246.581 178.036L263.285 214.888L241.809 226.734C241.809 226.734 225.105 191.856 222.122 170.139C219.139 148.422 220.929 132.628 220.929 132.628L232.86 133.945Z" fill="#316AB3"/>
<path d="M221.525 135.261L206.611 137.893L207.804 179.352L204.225 217.521L212.577 228.05C212.577 228.05 229.28 193.172 232.263 171.455C235.246 149.739 233.456 133.945 233.456 133.945L221.525 135.261Z" fill="#316AB3"/>
<path d="M239.423 136.248L242.704 135.261C242.704 135.261 254.337 133.616 256.127 138.88C257.917 144.145 257.32 175.075 257.32 175.075C257.32 175.075 260.398 213.036 248.419 213.469C236.44 213.902 238.827 182.314 238.827 182.314L239.423 136.248Z" fill="#316AB3"/>
<path d="M238.989 128.992C247.516 128.992 254.428 121.366 254.428 111.96C254.428 102.554 247.516 94.9282 238.989 94.9282C230.461 94.9282 223.549 102.554 223.549 111.96C223.549 121.366 230.461 128.992 238.989 128.992Z" fill="#A0616A"/>
<path d="M219.736 137.564L216.455 136.577C216.455 136.577 204.822 134.932 203.032 140.196C201.243 145.461 201.839 176.391 201.839 176.391C201.839 176.391 198.761 214.352 210.74 214.785C222.719 215.217 220.333 183.63 220.333 183.63L219.736 137.564Z" fill="#316AB3"/>
<path d="M230.071 135.4C226.759 134.473 223.003 138.376 221.682 144.119C221.126 146.405 221.074 148.805 221.531 151.118L220.108 157.646L220.003 157.64L208.777 186.825C206.167 193.611 206.442 201.402 209.772 207.793C211.752 211.595 214.352 214.151 217.405 211.542C222.47 207.212 225.779 182.423 227.289 168.182L230.782 153.707C232.184 151.914 233.177 149.777 233.676 147.474C234.997 141.733 233.383 136.327 230.071 135.4Z" fill="#A0616A"/>
<path d="M209.431 125.739C210.216 123.105 211.766 120.798 212.46 118.133C213.381 114.594 215.342 122.445 215.533 118.769C215.897 111.783 225.563 93.8107 231.081 90.3586C236.6 86.9064 239.769 87.9473 245.391 91.1894C245.391 91.1894 248.12 91.3809 251.518 93.2312C254.916 95.0816 257.974 98.045 259.295 101.962C260.343 105.067 260.227 108.477 260.577 111.768C261.552 120.935 266.21 129.653 265.21 138.817C264.898 141.676 263.913 144.632 261.794 146.314C259.675 147.995 256.251 147.813 254.856 145.378C254.381 144.548 254.179 143.562 253.771 142.689C253.363 141.815 252.626 141.001 251.736 141.028C250.397 141.069 249.716 143.05 250.244 144.407C250.772 145.765 252.012 146.584 253.176 147.314C250.403 148.69 246.962 148.261 244.537 146.237C242.112 144.213 240.802 140.678 241.248 137.359C241.877 132.683 248.053 133.651 248.781 128.992C249.31 125.6 251.17 119.925 250.663 116.529C250.157 113.134 247.724 117.245 250.287 115.283C247.467 116.783 241.435 106.524 238.483 105.375C235.531 104.226 233.029 101.738 231.686 98.6186C228.555 103.625 225.801 102.266 224.68 108.221C223.558 114.177 224.595 127.707 229.212 131.032C227.364 132.422 225.891 134.411 225.024 136.686C224.533 137.975 224.215 139.385 223.4 140.455C221.843 142.499 218.968 142.623 216.676 141.764C213.835 140.698 211.405 138.358 210.066 135.395C208.726 132.432 208.493 128.884 209.431 125.739Z" fill="#2F2E41"/>
<path d="M198.238 61.106H78.4496C64.8656 61.106 53.8535 71.7223 53.8535 84.8181V388.272C53.8535 401.368 64.8655 411.984 78.4496 411.984H198.238C211.822 411.984 222.834 401.368 222.834 388.272V84.8181C222.834 71.7223 211.822 61.106 198.238 61.106Z" fill="white"/>
<path d="M198.238 412.545H78.45C64.5666 412.545 53.2715 401.656 53.2715 388.272V84.8181C53.2715 71.4337 64.5666 60.5444 78.45 60.5444H198.238C212.122 60.5444 223.417 71.4337 223.417 84.8181V388.272C223.417 401.656 212.122 412.545 198.238 412.545ZM78.45 61.6674C65.2088 61.6674 54.4363 72.0527 54.4363 84.8181V388.272C54.4363 401.037 65.2088 411.422 78.45 411.422H198.238C211.48 411.422 222.252 401.037 222.252 388.272V84.8181C222.252 72.0527 211.48 61.6674 198.238 61.6674H78.45Z" fill="#3F3D56"/>
<path d="M43.9557 113.644C42.904 113.644 42.0488 114.468 42.0488 115.482V130.188C42.0488 131.202 42.904 132.027 43.9557 132.027C45.0073 132.027 45.8625 131.202 45.8625 130.188V115.482C45.8625 114.468 45.0073 113.644 43.9557 113.644Z" fill="#3F3D56"/>
<path d="M206.917 109.654H158.768C156.726 109.654 155.064 108.052 155.064 106.083C155.064 104.115 156.726 102.513 158.768 102.513H206.917C208.959 102.513 210.62 104.115 210.62 106.083C210.62 108.052 208.959 109.654 206.917 109.654Z" fill="#E6E6E6"/>
<path d="M161.745 137.733H114.943C113.763 137.733 112.803 136.808 112.803 135.67C112.803 134.533 113.763 133.607 114.943 133.607H161.745C162.925 133.607 163.885 134.533 163.885 135.67C163.885 136.808 162.925 137.733 161.745 137.733Z" fill="#316AB3"/>
<path d="M45.8071 147.915C66.6831 147.915 83.6064 131.944 83.6064 112.242C83.6064 92.5402 66.6831 76.5688 45.8071 76.5688C24.9311 76.5688 8.00781 92.5402 8.00781 112.242C8.00781 131.944 24.9311 147.915 45.8071 147.915Z" fill="#316AB3"/>
<path d="M57.9073 95.8614C52.6415 103.51 47.3757 111.159 42.1099 118.808C38.7538 114.078 35.416 109.339 32.0517 104.613C30.8898 102.98 27.7294 104.448 28.8942 106.085C32.7942 111.564 36.6538 117.061 40.5538 122.54C41.2206 123.477 43.0514 123.499 43.7113 122.54C49.4958 114.138 55.2803 105.736 61.0648 97.3337C62.1983 95.6873 59.0416 94.2138 57.9073 95.8614Z" fill="white"/>
<path d="M95.5966 68.7749H68.876C68.7762 68.7749 68.6953 68.8529 68.6953 68.9491V71.948C68.6953 72.0442 68.7762 72.1222 68.876 72.1222H95.5966C95.6964 72.1222 95.7773 72.0442 95.7773 71.948V68.9491C95.7773 68.8529 95.6964 68.7749 95.5966 68.7749Z" fill="#E6E6E6"/>
<path d="M185.6 72.1222C187.134 72.1222 188.378 70.9233 188.378 69.4444C188.378 67.9655 187.134 66.7666 185.6 66.7666C184.066 66.7666 182.822 67.9655 182.822 69.4444C182.822 70.9233 184.066 72.1222 185.6 72.1222Z" fill="#E6E6E6"/>
<path d="M193.237 72.1222C194.771 72.1222 196.014 70.9233 196.014 69.4444C196.014 67.9655 194.771 66.7666 193.237 66.7666C191.703 66.7666 190.459 67.9655 190.459 69.4444C190.459 70.9233 191.703 72.1222 193.237 72.1222Z" fill="#E6E6E6"/>
<path d="M200.877 72.1222C202.411 72.1222 203.655 70.9233 203.655 69.4444C203.655 67.9655 202.411 66.7666 200.877 66.7666C199.343 66.7666 198.1 67.9655 198.1 69.4444C198.1 70.9233 199.343 72.1222 200.877 72.1222Z" fill="#E6E6E6"/>
<path d="M78.1602 148.777C78.1602 149.147 78.4689 149.445 78.8533 149.445H197.838C198.223 149.445 198.531 149.147 198.531 148.777C198.531 148.406 198.223 148.108 197.838 148.108H78.8533C78.4689 148.108 78.1602 148.406 78.1602 148.777Z" fill="#3F3D56"/>
<path d="M186.428 201.294H115.023C113.843 201.294 112.883 200.369 112.883 199.231C112.883 198.094 113.843 197.168 115.023 197.168H186.428C187.608 197.168 188.567 198.094 188.567 199.231C188.567 200.369 187.608 201.294 186.428 201.294Z" fill="#316AB3"/>
<path d="M186.428 231.054H115.023C113.843 231.054 112.883 230.128 112.883 228.99C112.883 227.853 113.843 226.928 115.023 226.928H186.428C187.608 226.928 188.567 227.853 188.567 228.99C188.567 230.128 187.608 231.054 186.428 231.054Z" fill="#316AB3"/>
<path d="M186.428 260.813H115.023C113.843 260.813 112.883 259.888 112.883 258.75C112.883 257.613 113.843 256.688 115.023 256.688H186.428C187.608 256.688 188.567 257.613 188.567 258.75C188.567 259.888 187.608 260.813 186.428 260.813Z" fill="#316AB3"/>
<path d="M93.3649 204.029C96.26 204.029 98.6068 201.767 98.6068 198.976C98.6068 196.185 96.26 193.922 93.3649 193.922C90.4699 193.922 88.123 196.185 88.123 198.976C88.123 201.767 90.4699 204.029 93.3649 204.029Z" fill="#316AB3"/>
<path d="M92.7832 207.399V206.276C97.1187 206.276 100.646 202.875 100.646 198.695C100.646 194.516 97.1187 191.115 92.7832 191.115V189.992C97.7612 189.992 101.811 193.896 101.811 198.695C101.811 203.495 97.7612 207.399 92.7832 207.399Z" fill="#3F3D56"/>
<path d="M93.3649 233.789C96.26 233.789 98.6068 231.527 98.6068 228.736C98.6068 225.945 96.26 223.682 93.3649 223.682C90.4699 223.682 88.123 225.945 88.123 228.736C88.123 231.527 90.4699 233.789 93.3649 233.789Z" fill="#316AB3"/>
<path d="M92.7832 237.158V236.035C97.1187 236.035 100.646 232.635 100.646 228.455C100.646 224.275 97.1187 220.875 92.7832 220.875V219.752C97.7612 219.752 101.811 223.656 101.811 228.455C101.811 233.254 97.7612 237.158 92.7832 237.158Z" fill="#3F3D56"/>
<path d="M93.3649 263.549C96.26 263.549 98.6068 261.286 98.6068 258.495C98.6068 255.704 96.26 253.442 93.3649 253.442C90.4699 253.442 88.123 255.704 88.123 258.495C88.123 261.286 90.4699 263.549 93.3649 263.549Z" fill="#316AB3"/>
<path d="M92.7832 266.918V265.795C97.1187 265.795 100.646 262.395 100.646 258.214C100.646 254.034 97.1187 250.634 92.7832 250.634V249.511C97.7612 249.511 101.811 253.415 101.811 258.214C101.811 263.014 97.7612 266.918 92.7832 266.918Z" fill="#3F3D56"/>
<path d="M229.088 134.084C232.4 133.157 236.155 137.059 237.476 142.803C238.033 145.089 238.084 147.489 237.628 149.801L239.051 156.33L239.155 156.324L250.382 185.509C252.992 192.295 252.716 200.085 249.387 206.477C247.406 210.279 244.807 212.835 241.754 210.226C236.689 205.896 233.38 181.106 231.869 166.866L228.376 152.391C226.974 150.598 225.982 148.46 225.483 146.158C224.161 140.417 225.776 135.011 229.088 134.084Z" fill="#A0616A"/>
<path d="M241.841 150.077L229.281 159.926L235.561 203.553L243.437 214.789L252.612 211.289L255.295 190.666L252.138 170.721L241.841 150.077Z" fill="#316AB3"/>
</svg>
