<svg width="479" height="299" viewBox="0 0 479 299" fill="none" xmlns="http://www.w3.org/2000/svg">
<path d="M348.588 179.365L348.544 179.361C340.363 177.923 331.275 177.923 320.76 179.363H320.756C320.493 179.366 320.233 179.314 319.99 179.21C319.746 179.105 319.525 178.951 319.338 178.755C319.151 178.559 319.002 178.326 318.9 178.068C318.798 177.811 318.745 177.535 318.744 177.255V167.116C318.745 166.557 318.954 166.021 319.325 165.625C319.697 165.23 320.2 165.007 320.726 165.007C329.985 163.721 339.362 163.722 348.621 165.009H348.625C349.144 165.017 349.64 165.243 350.004 165.637C350.368 166.032 350.571 166.563 350.57 167.116V177.255C350.569 177.815 350.36 178.351 349.989 178.746C349.617 179.142 349.113 179.364 348.588 179.365Z" fill="white"/>
<path d="M348.588 179.365L348.544 179.361C340.363 177.923 331.275 177.923 320.76 179.363H320.756C320.493 179.366 320.233 179.314 319.99 179.21C319.746 179.105 319.525 178.951 319.338 178.755C319.151 178.559 319.002 178.326 318.9 178.068C318.798 177.811 318.745 177.535 318.744 177.255V167.116C318.745 166.557 318.954 166.021 319.325 165.625C319.697 165.23 320.2 165.007 320.726 165.007C329.985 163.721 339.362 163.722 348.621 165.009H348.625C349.144 165.017 349.64 165.243 350.004 165.637C350.368 166.032 350.571 166.563 350.57 167.116V177.255C350.569 177.815 350.36 178.351 349.989 178.746C349.617 179.142 349.113 179.364 348.588 179.365ZM334.303 164.619C329.774 164.61 325.25 164.931 320.762 165.578C320.57 165.575 320.379 165.612 320.201 165.688C320.022 165.764 319.859 165.876 319.722 166.019C319.585 166.162 319.475 166.333 319.4 166.521C319.324 166.709 319.285 166.912 319.284 167.116V177.255C319.284 177.662 319.436 178.053 319.706 178.34C319.977 178.628 320.343 178.79 320.726 178.791C331.249 177.348 340.382 177.347 348.609 178.79C348.988 178.784 349.349 178.62 349.615 178.332C349.881 178.045 350.03 177.658 350.03 177.255V167.116C350.03 166.709 349.878 166.319 349.607 166.031C349.337 165.743 348.97 165.581 348.588 165.581C343.85 164.948 339.079 164.627 334.303 164.619Z" fill="#34609D"/>
<path d="M334.659 175.722C336.744 175.722 338.435 173.922 338.435 171.702C338.435 169.482 336.744 167.682 334.659 167.682C332.573 167.682 330.883 169.482 330.883 171.702C330.883 173.922 332.573 175.722 334.659 175.722Z" fill="#34609D"/>
<path d="M324.948 169.601H321.711C321.497 169.601 321.291 169.51 321.14 169.349C320.988 169.187 320.903 168.968 320.902 168.74V167.591C320.903 167.363 320.988 167.144 321.14 166.982C321.291 166.821 321.497 166.73 321.711 166.729H324.948C325.162 166.73 325.368 166.821 325.52 166.982C325.672 167.144 325.757 167.363 325.757 167.591V168.74C325.757 168.968 325.672 169.187 325.52 169.349C325.368 169.51 325.162 169.601 324.948 169.601Z" fill="#34609D"/>
<path d="M347.602 177.642H344.366C344.151 177.642 343.946 177.551 343.794 177.39C343.642 177.228 343.557 177.009 343.557 176.781V175.632C343.557 175.404 343.642 175.185 343.794 175.023C343.946 174.862 344.151 174.771 344.366 174.771H347.602C347.817 174.771 348.022 174.862 348.174 175.023C348.326 175.185 348.411 175.404 348.411 175.632V176.781C348.411 177.009 348.326 177.228 348.174 177.39C348.022 177.551 347.817 177.642 347.602 177.642Z" fill="#34609D"/>
<path d="M343.983 175.172L343.944 175.15C336.932 170.437 328.559 166.675 318.346 163.647L318.342 163.645C318.099 163.54 317.878 163.384 317.692 163.187C317.506 162.99 317.359 162.756 317.258 162.498C317.157 162.24 317.105 161.964 317.105 161.684C317.106 161.405 317.158 161.128 317.259 160.871L320.962 151.53C321.167 151.015 321.555 150.607 322.042 150.397C322.528 150.186 323.074 150.19 323.558 150.407C332.558 153.056 341.197 156.94 349.257 161.959L349.26 161.961C349.736 162.183 350.11 162.597 350.301 163.111C350.492 163.625 350.485 164.199 350.282 164.708L346.579 174.048C346.374 174.564 345.986 174.971 345.499 175.182C345.012 175.392 344.467 175.389 343.983 175.172Z" fill="white"/>
<path d="M343.983 175.172L343.944 175.15C336.932 170.437 328.559 166.675 318.346 163.647L318.342 163.645C318.099 163.54 317.878 163.384 317.692 163.187C317.506 162.99 317.359 162.756 317.258 162.498C317.157 162.24 317.105 161.964 317.105 161.684C317.106 161.405 317.158 161.128 317.259 160.871L320.962 151.53C321.167 151.015 321.555 150.607 322.042 150.397C322.528 150.186 323.074 150.19 323.558 150.407C332.558 153.056 341.197 156.94 349.257 161.959L349.26 161.961C349.736 162.183 350.11 162.597 350.301 163.111C350.492 163.625 350.485 164.199 350.282 164.708L346.579 174.048C346.374 174.564 345.986 174.971 345.499 175.182C345.012 175.392 344.467 175.389 343.983 175.172ZM336.208 155.671C332.039 153.788 327.754 152.21 323.383 150.948C323.207 150.866 323.018 150.821 322.825 150.817C322.633 150.813 322.442 150.849 322.263 150.924C322.085 150.999 321.921 151.11 321.783 151.253C321.645 151.395 321.535 151.565 321.459 151.753L317.756 161.094C317.607 161.469 317.605 161.892 317.749 162.269C317.893 162.646 318.171 162.947 318.523 163.106C328.746 166.134 337.159 169.915 344.212 174.651C344.563 174.802 344.956 174.8 345.306 174.645C345.656 174.491 345.934 174.196 346.082 173.825L349.785 164.484C349.933 164.109 349.936 163.686 349.792 163.309C349.648 162.932 349.369 162.631 349.017 162.473C344.883 159.927 340.605 157.656 336.208 155.671Z" fill="#34609D"/>
<path d="M333.948 166.363C336.033 166.363 337.724 164.564 337.724 162.343C337.724 160.123 336.033 158.323 333.948 158.323C331.862 158.323 330.172 160.123 330.172 162.343C330.172 164.564 331.862 166.363 333.948 166.363Z" fill="#34609D"/>
<path d="M325.771 156.388L322.789 155.048C322.592 154.959 322.435 154.79 322.355 154.578C322.274 154.367 322.275 154.129 322.358 153.919L322.778 152.861C322.862 152.65 323.02 152.484 323.219 152.398C323.418 152.312 323.64 152.313 323.838 152.402L326.82 153.742C327.017 153.831 327.174 154 327.254 154.212C327.335 154.423 327.334 154.66 327.25 154.871L326.831 155.929C326.747 156.139 326.589 156.306 326.39 156.392C326.191 156.478 325.969 156.476 325.771 156.388Z" fill="#34609D"/>
<path d="M343.704 173.176L340.723 171.836C340.525 171.747 340.369 171.578 340.288 171.367C340.207 171.155 340.209 170.918 340.292 170.707L340.711 169.649C340.795 169.439 340.954 169.272 341.152 169.186C341.351 169.101 341.574 169.102 341.772 169.191L344.753 170.531C344.951 170.62 345.107 170.789 345.188 171C345.269 171.212 345.267 171.449 345.184 171.659L344.765 172.718C344.681 172.928 344.522 173.094 344.324 173.18C344.125 173.266 343.902 173.265 343.704 173.176Z" fill="#34609D"/>
<path d="M351.415 169.621C352.095 169.186 352.676 168.597 353.119 167.897C353.561 167.196 353.854 166.401 353.977 165.566C354.1 164.732 354.049 163.88 353.829 163.069C353.609 162.257 353.224 161.508 352.702 160.872L362.254 143.045L352.258 143.733L344.72 160.556C343.775 161.56 343.209 162.899 343.129 164.318C343.049 165.737 343.461 167.138 344.286 168.255C345.111 169.372 346.293 170.129 347.607 170.38C348.921 170.632 350.276 170.362 351.415 169.621Z" fill="#FFB6B6"/>
<path d="M424.949 291.147H418.335L415.189 263.988L424.95 263.988L424.949 291.147Z" fill="#FFB6B6"/>
<path d="M426.634 297.973L405.311 297.972V297.685C405.311 295.341 406.185 293.093 407.742 291.436C409.298 289.779 411.409 288.848 413.61 288.848H413.611L426.634 288.848L426.634 297.973Z" fill="#2F2E41"/>
<path d="M379.638 291.147H373.025L369.879 263.988L379.639 263.988L379.638 291.147Z" fill="#FFB6B6"/>
<path d="M381.323 297.973L360 297.972V297.685C360 295.341 360.875 293.093 362.431 291.436C363.988 289.779 366.099 288.848 368.3 288.848H368.3L381.324 288.848L381.323 297.973Z" fill="#2F2E41"/>
<path d="M362.634 143.812C362.634 143.812 360.815 171.392 364.397 185.282C367.98 199.173 368.619 283.173 368.619 283.173H380.628L391.036 168.831L415.03 283.576L426.468 282.739L420.195 147.527L362.634 143.812Z" fill="#2F2E41"/>
<path d="M415.231 50.8387L406.051 43.7061L390.668 47.2724L386.504 57.8071L379.329 61.5948C376.97 62.8403 374.93 64.677 373.385 66.9472C371.839 69.2174 370.835 71.8531 370.457 74.6279L360.207 149.995L420.193 147.526L427.455 58.7666C427.531 57.8394 427.431 56.9054 427.162 56.0199C426.893 55.1345 426.46 54.3155 425.888 53.6114C425.316 52.9074 424.618 52.3327 423.834 51.9212C423.05 51.5097 422.196 51.2699 421.324 51.2158L415.231 50.8387Z" fill="#E4E4E4"/>
<path d="M375.535 67.4819L369.995 75.4342L345.863 153.8L357.175 158.622L375.287 122.105L375.535 67.4819Z" fill="#E4E4E4"/>
<path d="M395.368 39.0978C405.508 39.0978 413.728 30.3454 413.728 19.5489C413.728 8.75233 405.508 0 395.368 0C385.228 0 377.008 8.75233 377.008 19.5489C377.008 30.3454 385.228 39.0978 395.368 39.0978Z" fill="#2F2E41"/>
<path d="M395.617 39.9824C403.016 39.9824 409.015 33.5956 409.015 25.7171C409.015 17.8385 403.016 11.4517 395.617 11.4517C388.217 11.4517 382.219 17.8385 382.219 25.7171C382.219 33.5956 388.217 39.9824 395.617 39.9824Z" fill="#FFB9B9"/>
<path d="M405.789 23.8675C397.258 20.5911 394.371 18.5783 384.948 23.8675L381.475 9.07373H409.263L405.789 23.8675Z" fill="#2F2E41"/>
<path opacity="0.1" d="M419.711 71.9951L415.973 111.673L402.771 139.376L419.711 71.9951Z" fill="black"/>
<path d="M24.5431 194.114H21.3066V196.986H24.5431V194.114Z" fill="#F0F0F0"/>
<path d="M330.677 196.986H324.3V194.114H330.677V196.986ZM317.922 196.986H311.544V194.114H317.922V196.986ZM305.166 196.986H298.789V194.114H305.166V196.986ZM292.411 196.986H286.033V194.114H292.411V196.986ZM279.655 196.986H273.278V194.114H279.655V196.986ZM266.9 196.986H260.522V194.114H266.9L266.9 196.986ZM254.144 196.986H247.767V194.114H254.144V196.986ZM241.389 196.986H235.011V194.114H241.389V196.986ZM228.633 196.986H222.255V194.114H228.633V196.986ZM215.878 196.986H209.5V194.114H215.878L215.878 196.986ZM203.122 196.986H196.744V194.114H203.122L203.122 196.986ZM190.366 196.986H183.989V194.114H190.366L190.366 196.986ZM177.611 196.986H171.233V194.114H177.611L177.611 196.986ZM164.855 196.986H158.478V194.114H164.855L164.855 196.986ZM152.1 196.986H145.722V194.114H152.1L152.1 196.986ZM139.344 196.986H132.966V194.114H139.344L139.344 196.986ZM126.589 196.986H120.211V194.114H126.589L126.589 196.986ZM113.833 196.986H107.455V194.114H113.833L113.833 196.986ZM101.077 196.986H94.6998V194.114H101.077L101.077 196.986ZM88.3217 196.986H81.9442V194.114H88.3219L88.3217 196.986ZM75.5662 196.986H69.1887V194.114H75.5663L75.5662 196.986ZM62.8107 196.986H56.4329V194.114H62.8108L62.8107 196.986ZM50.0551 196.986H43.6774V194.114H50.0553L50.0551 196.986ZM37.2996 196.986H30.9219V194.114H37.2998L37.2996 196.986Z" fill="black"/>
<path d="M24.5431 121.173H21.3066V124.045H24.5431V121.173Z" fill="#F0F0F0"/>
<path d="M330.677 124.045H324.3V121.173H330.677V124.045ZM317.922 124.045H311.544V121.173H317.922V124.045ZM305.166 124.045H298.789V121.173H305.166V124.045ZM292.411 124.045H286.033V121.173H292.411V124.045ZM279.655 124.045H273.278V121.173H279.655V124.045ZM266.9 124.045H260.522V121.173H266.9L266.9 124.045ZM254.144 124.045H247.767V121.173H254.144V124.045ZM241.389 124.045H235.011V121.173H241.389V124.045ZM228.633 124.045H222.255V121.173H228.633V124.045ZM215.878 124.045H209.5V121.173H215.878L215.878 124.045ZM203.122 124.045H196.744V121.173H203.122L203.122 124.045ZM190.366 124.045H183.989V121.173H190.366L190.366 124.045ZM177.611 124.045H171.233V121.173H177.611L177.611 124.045ZM164.855 124.045H158.478V121.173H164.855L164.855 124.045ZM152.1 124.045H145.722V121.173H152.1L152.1 124.045ZM139.344 124.045H132.966V121.173H139.344L139.344 124.045ZM126.589 124.045H120.211V121.173H126.589L126.589 124.045ZM113.833 124.045H107.455V121.173H113.833L113.833 124.045ZM101.077 124.045H94.6998V121.173H101.077L101.077 124.045ZM88.3217 124.045H81.9442V121.173H88.3219L88.3217 124.045ZM75.5662 124.045H69.1887V121.173H75.5663L75.5662 124.045ZM62.8107 124.045H56.4329V121.173H62.8108L62.8107 124.045ZM50.0551 124.045H43.6774V121.173H50.0553L50.0551 124.045ZM37.2996 124.045H30.9219V121.173H37.2998L37.2996 124.045Z" fill="black"/>
<path d="M24.5431 48.2324H21.3066V51.1041H24.5431V48.2324Z" fill="#F0F0F0"/>
<path d="M330.677 51.1041H324.3V48.2324H330.677V51.1041ZM317.922 51.1041H311.544V48.2324H317.922V51.1041ZM305.166 51.1041H298.789V48.2324H305.166V51.1041ZM292.411 51.1041H286.033V48.2324H292.411V51.1041ZM279.655 51.1041H273.278V48.2324H279.655V51.1041ZM266.9 51.1041H260.522V48.2324H266.9L266.9 51.1041ZM254.144 51.1041H247.767V48.2324H254.144V51.1041ZM241.389 51.1041H235.011V48.2324H241.389V51.1041ZM228.633 51.1041H222.255V48.2324H228.633V51.1041ZM215.878 51.1041H209.5V48.2324H215.878L215.878 51.1041ZM203.122 51.1041H196.744V48.2324H203.122L203.122 51.1041ZM190.366 51.1041H183.989V48.2324H190.366L190.366 51.1041ZM177.611 51.1041H171.233V48.2324H177.611L177.611 51.1041ZM164.855 51.1041H158.478V48.2324H164.855L164.855 51.1041ZM152.1 51.1041H145.722V48.2324H152.1L152.1 51.1041ZM139.344 51.1041H132.966V48.2324H139.344L139.344 51.1041ZM126.589 51.1041H120.211V48.2324H126.589L126.589 51.1041ZM113.833 51.1041H107.455V48.2324H113.833L113.833 51.1041ZM101.077 51.1041H94.6998V48.2324H101.077L101.077 51.1041ZM88.3217 51.1041H81.9442V48.2324H88.3219L88.3217 51.1041ZM75.5662 51.1041H69.1887V48.2324H75.5663L75.5662 51.1041ZM62.8107 51.1041H56.4329V48.2324H62.8108L62.8107 51.1041ZM50.0551 51.1041H43.6774V48.2324H50.0553L50.0551 51.1041ZM37.2996 51.1041H30.9219V48.2324H37.2998L37.2996 51.1041Z" fill="black"/>
<path d="M126.763 194.976H100.332V298.356H126.763V194.976Z" fill="#3F3D56"/>
<path d="M131.617 194.976H105.186V298.356H131.617V194.976Z" fill="#34609D"/>
<path d="M189.336 122.035H162.904V298.356H189.336V122.035Z" fill="#3F3D56"/>
<path d="M194.189 122.035H167.758V298.356H194.189V122.035Z" fill="#34609D"/>
<path d="M251.908 49.0938H225.477V298.357H251.908V49.0938Z" fill="#3F3D56"/>
<path d="M256.761 49.0938H230.33V298.357H256.761V49.0938Z" fill="#34609D"/>
<path d="M21.5765 56.56C25.1514 56.56 28.0495 53.4743 28.0495 49.6679C28.0495 45.8616 25.1514 42.7759 21.5765 42.7759C18.0016 42.7759 15.1035 45.8616 15.1035 49.6679C15.1035 53.4743 18.0016 56.56 21.5765 56.56Z" fill="black"/>
<path d="M21.5765 129.501C25.1514 129.501 28.0495 126.415 28.0495 122.609C28.0495 118.802 25.1514 115.717 21.5765 115.717C18.0016 115.717 15.1035 118.802 15.1035 122.609C15.1035 126.415 18.0016 129.501 21.5765 129.501Z" fill="black"/>
<path d="M21.5765 202.442C25.1514 202.442 28.0495 199.356 28.0495 195.55C28.0495 191.743 25.1514 188.658 21.5765 188.658C18.0016 188.658 15.1035 191.743 15.1035 195.55C15.1035 199.356 18.0016 202.442 21.5765 202.442Z" fill="black"/>
<path d="M479 297.713H0V299H479V297.713Z" fill="#3F3D56"/>
<path d="M404.149 166.73L404.105 166.726C395.924 165.287 386.835 165.288 376.321 166.727H376.316C376.054 166.731 375.794 166.679 375.55 166.574C375.307 166.47 375.085 166.316 374.898 166.12C374.711 165.924 374.563 165.69 374.461 165.433C374.359 165.176 374.306 164.899 374.305 164.62V154.481C374.305 153.922 374.514 153.385 374.886 152.99C375.257 152.594 375.761 152.372 376.286 152.371C385.546 151.086 394.923 151.087 404.182 152.374H404.186C404.705 152.382 405.2 152.608 405.564 153.002C405.928 153.397 406.132 153.928 406.13 154.481V164.62C406.13 165.179 405.921 165.716 405.549 166.111C405.178 166.507 404.674 166.729 404.149 166.73Z" fill="white"/>
<path d="M404.149 166.73L404.105 166.726C395.924 165.287 386.835 165.288 376.321 166.727H376.316C376.054 166.731 375.794 166.679 375.55 166.574C375.307 166.47 375.085 166.316 374.898 166.12C374.711 165.924 374.563 165.69 374.461 165.433C374.359 165.176 374.306 164.899 374.305 164.62V154.481C374.305 153.922 374.514 153.385 374.886 152.99C375.257 152.594 375.761 152.372 376.286 152.371C385.546 151.086 394.923 151.087 404.182 152.374H404.186C404.705 152.382 405.2 152.608 405.564 153.002C405.928 153.397 406.132 153.928 406.13 154.481V164.62C406.13 165.179 405.921 165.716 405.549 166.111C405.178 166.507 404.674 166.729 404.149 166.73ZM389.864 151.983C385.335 151.975 380.811 152.295 376.323 152.943C376.131 152.94 375.94 152.977 375.761 153.053C375.583 153.128 375.42 153.241 375.283 153.384C375.145 153.527 375.036 153.697 374.96 153.886C374.885 154.074 374.846 154.276 374.844 154.481V164.62C374.845 165.027 374.997 165.417 375.267 165.705C375.537 165.993 375.904 166.155 376.286 166.155C386.81 164.712 395.942 164.712 404.17 166.155C404.548 166.149 404.91 165.984 405.175 165.697C405.441 165.41 405.59 165.023 405.591 164.62V154.481C405.59 154.074 405.438 153.684 405.168 153.396C404.898 153.108 404.531 152.946 404.149 152.946C399.41 152.313 394.639 151.991 389.864 151.983Z" fill="#34609D"/>
<path d="M390.217 163.087C392.303 163.087 393.993 161.287 393.993 159.067C393.993 156.846 392.303 155.046 390.217 155.046C388.132 155.046 386.441 156.846 386.441 159.067C386.441 161.287 388.132 163.087 390.217 163.087Z" fill="#34609D"/>
<path d="M380.508 156.966H377.272C377.057 156.966 376.852 156.875 376.7 156.713C376.548 156.552 376.463 156.333 376.463 156.104V154.956C376.463 154.727 376.548 154.508 376.7 154.347C376.852 154.185 377.057 154.094 377.272 154.094H380.508C380.723 154.094 380.929 154.185 381.08 154.347C381.232 154.508 381.317 154.727 381.318 154.956V156.104C381.317 156.333 381.232 156.552 381.08 156.713C380.929 156.875 380.723 156.966 380.508 156.966Z" fill="#34609D"/>
<path d="M403.165 165.007H399.928C399.714 165.007 399.508 164.916 399.356 164.754C399.205 164.593 399.119 164.374 399.119 164.145V162.997C399.119 162.768 399.205 162.549 399.356 162.388C399.508 162.226 399.714 162.136 399.928 162.135H403.165C403.379 162.136 403.585 162.226 403.737 162.388C403.888 162.549 403.974 162.768 403.974 162.997V164.145C403.974 164.374 403.888 164.593 403.737 164.754C403.585 164.916 403.379 165.007 403.165 165.007Z" fill="#34609D"/>
<path d="M398.086 153.439C398.03 152.597 398.149 151.752 398.433 150.964C398.717 150.176 399.161 149.464 399.732 148.878C400.302 148.291 400.987 147.846 401.737 147.572C402.487 147.298 403.285 147.203 404.073 147.293L412.293 128.728L417.505 137.836L408.901 154.068C408.671 155.469 407.967 156.731 406.922 157.616C405.877 158.5 404.564 158.946 403.231 158.869C401.898 158.791 400.637 158.196 399.689 157.195C398.741 156.194 398.17 154.858 398.086 153.439Z" fill="#FFB6B6"/>
<path d="M420.432 56.3315L423.817 51.6312C423.817 51.6312 432.064 49.8426 433.465 61.9045L432.583 115.528L414.51 145.816L402.771 142.625L418.118 106.645L420.432 56.3315Z" fill="#E4E4E4"/>
</svg>
