<svg width="282" height="282" viewBox="0 0 282 282" fill="none" xmlns="http://www.w3.org/2000/svg">
<path d="M72.704 91.9583L53.6249 96.0121L53.5368 158.757C53.5368 170.346 62.2612 177.836 73.8496 177.836C80.2827 177.836 84.9974 176.646 87.5971 175.236V160.343C85.0855 161.357 72.748 164.97 72.748 153.426V125.578H87.5971V108.922H72.748L72.704 91.9583ZM111.964 114.695L110.774 108.922H93.854V176.426H113.374V130.998C118 124.917 125.799 126.107 128.311 126.9V108.922C125.667 107.997 116.546 106.279 111.964 114.695ZM152.633 82.8374L132.981 87.0233V102.974L152.633 98.788V82.8374ZM19.7849 128.795C19.7849 125.754 22.3405 124.565 26.4384 124.521C32.3868 124.521 39.9655 126.327 45.914 129.544V111.126C39.4368 108.57 32.9596 107.556 26.4824 107.556C10.6199 107.556 0.0449219 115.84 0.0449219 129.676C0.0449219 151.355 29.7871 147.83 29.7871 157.171C29.7871 160.784 26.6587 161.974 22.2965 161.974C15.8193 161.974 7.44742 159.286 0.882109 155.717V173.342C8.15242 176.47 15.5109 177.792 22.2524 177.792C38.5115 177.792 49.7034 170.83 49.7034 156.73C49.7034 133.421 19.7849 137.607 19.7849 128.795ZM282.001 143.467C282.001 123.419 272.307 107.601 253.713 107.601C235.118 107.601 223.794 123.419 223.794 143.335C223.794 166.909 237.145 177.792 256.18 177.792C265.521 177.792 272.527 175.677 277.859 172.725V158.008C272.527 160.696 266.403 162.326 258.648 162.326C251.025 162.326 244.327 159.638 243.446 150.473H281.736C281.825 149.46 282.001 145.362 282.001 143.467ZM243.27 136.065C243.27 127.252 248.69 123.551 253.581 123.551C258.383 123.551 263.495 127.252 263.495 136.065H243.27ZM193.523 107.601C185.856 107.601 180.921 111.214 178.19 113.725L177.176 108.878H159.948V199.118L179.512 194.976L179.556 172.857C182.376 174.928 186.561 177.792 193.391 177.792C207.403 177.792 220.181 167.57 220.181 142.718C220.225 119.982 207.271 107.601 193.523 107.601ZM188.853 161.577C184.27 161.577 181.538 159.903 179.644 157.876L179.512 128.795C181.538 126.547 184.358 124.917 188.853 124.917C195.991 124.917 200.926 132.936 200.926 143.159C200.97 153.69 196.123 161.577 188.853 161.577ZM133.026 176.426H152.677V108.922H133.026V176.426Z" fill="black"/>
</svg>
