<svg width="343" height="374" viewBox="0 0 343 374" fill="none" xmlns="http://www.w3.org/2000/svg">
<path d="M294.012 161.219C290.414 160.574 281.076 151.596 281.076 151.596C281.076 151.596 292.586 146.381 296.18 147.027C297.91 147.336 299.456 148.38 300.478 149.929C301.499 151.479 301.914 153.406 301.629 155.287C301.345 157.169 300.385 158.85 298.96 159.962C297.536 161.073 295.764 161.524 294.035 161.214L294.012 161.219Z" fill="#34609D"/>
<path d="M265.983 145.511C266.475 149.326 274.522 159.518 274.522 159.518C274.522 159.518 279.715 147.476 279.223 143.647C279.126 142.719 278.852 141.821 278.419 141.005C277.985 140.19 277.4 139.474 276.698 138.898C275.997 138.323 275.192 137.901 274.332 137.657C273.473 137.412 272.575 137.35 271.692 137.475C270.809 137.599 269.959 137.907 269.191 138.381C268.423 138.854 267.754 139.484 267.222 140.233C266.69 140.982 266.306 141.835 266.094 142.741C265.881 143.647 265.843 144.589 265.983 145.511Z" fill="#34609D"/>
<path opacity="0.25" d="M294.012 161.219C290.414 160.574 281.076 151.596 281.076 151.596C281.076 151.596 292.586 146.381 296.18 147.027C297.91 147.336 299.456 148.38 300.478 149.929C301.499 151.479 301.914 153.406 301.629 155.287C301.345 157.169 300.385 158.85 298.96 159.962C297.536 161.073 295.764 161.524 294.035 161.214L294.012 161.219Z" fill="black"/>
<path opacity="0.25" d="M265.983 145.511C266.475 149.326 274.522 159.518 274.522 159.518C274.522 159.518 279.715 147.476 279.223 143.647C279.126 142.719 278.852 141.821 278.419 141.005C277.985 140.19 277.4 139.474 276.698 138.898C275.997 138.323 275.192 137.901 274.332 137.657C273.473 137.412 272.575 137.35 271.692 137.475C270.809 137.599 269.959 137.907 269.191 138.381C268.423 138.854 267.754 139.484 267.222 140.233C266.69 140.982 266.306 141.835 266.094 142.741C265.881 143.647 265.843 144.589 265.983 145.511Z" fill="black"/>
<path d="M288.062 149.214C284.378 150.155 271.973 146.264 271.973 146.264C271.973 146.264 280.92 136.801 284.604 135.841C286.372 135.381 288.25 135.644 289.824 136.573C291.399 137.502 292.541 139.02 293 140.793C293.458 142.567 293.196 144.45 292.27 146.029C291.344 147.609 289.83 148.754 288.062 149.214Z" fill="#34609D"/>
<path d="M270.069 117.516C272.527 120.438 284.721 124.268 284.721 124.268C284.721 124.268 282.663 111.142 280.205 108.219C279.625 107.509 278.915 106.926 278.118 106.505C277.32 106.084 276.45 105.833 275.559 105.766C274.668 105.699 273.772 105.817 272.925 106.115C272.078 106.412 271.296 106.883 270.625 107.499C269.953 108.115 269.405 108.864 269.013 109.703C268.621 110.542 268.393 111.454 268.341 112.386C268.29 113.318 268.416 114.251 268.712 115.132C269.009 116.012 269.47 116.823 270.069 117.516Z" fill="#34609D"/>
<path d="M255.869 146.73C257.865 150.029 269.544 155.933 269.544 155.933C269.544 155.933 269.643 142.686 267.661 139.382C266.674 137.857 265.142 136.782 263.388 136.385C261.634 135.988 259.797 136.301 258.266 137.257C256.735 138.213 255.631 139.736 255.188 141.505C254.745 143.273 254.998 145.148 255.892 146.73H255.869Z" fill="#34609D"/>
<path d="M242.832 43.6135C243.629 40.6442 244.588 37.6602 245.26 34.6519C244.454 37.6602 243.49 40.6539 242.832 43.6135Z" fill="url(#paint0_linear_2826_78536)"/>
<path d="M245.814 73.6141C245.75 73.4994 245.704 73.3847 245.654 73.2796C245.654 73.2318 245.608 73.1936 245.59 73.1458C245.49 73.1949 245.388 73.238 245.283 73.2748C245.082 73.3561 244.877 73.4325 244.667 73.4946C244.456 73.5568 244.369 73.5902 244.21 73.6284C244.077 73.6762 243.941 73.713 243.803 73.7383L243.839 73.8243C244.008 73.7861 244.173 73.7527 244.342 73.7049L244.388 74.2974C244.58 74.2974 244.758 74.2687 244.932 74.2687C245.014 74.264 245.096 74.264 245.178 74.2687C245.535 74.2687 245.846 74.2687 246.092 74.2687C245.996 74.0537 245.896 73.8291 245.814 73.6141ZM338.585 228.019C336.437 224.994 332.15 192.53 332.15 192.53C332.15 192.53 323.718 169.445 326.017 160.233C328.316 151.02 319.738 127.448 319.738 127.448C319.738 127.448 314.071 124.872 313.765 121.049C313.765 121.049 290.627 113.404 289.544 107.67C288.667 102.968 274.317 99.5944 269.162 98.5288C267.59 91.8963 266.008 85.7083 264.843 82.3299C264.528 81.2787 264.231 80.3708 263.957 79.654C261.987 74.3978 255.9 73.9199 251.485 74.3404C251.294 73.4446 250.938 72.5959 250.438 71.8413C250.365 71.5819 250.221 71.3508 250.023 71.1771C249.928 71.0927 249.827 71.016 249.721 70.9477C249.641 70.7929 249.536 70.6538 249.41 70.5368C249.285 70.4187 249.147 70.3161 248.999 70.231C248.893 70.1709 248.783 70.1182 248.67 70.0733C248.405 69.9678 248.131 69.8894 247.852 69.8391C247.526 69.7691 247.196 69.7244 246.865 69.7053C247.671 69.3364 248.39 68.7867 248.971 68.095C249.367 67.6094 249.661 67.0431 249.835 66.4321C249.98 65.924 250.045 65.3947 250.027 64.8648C249.909 65.0832 249.771 65.2895 249.616 65.4812C249.808 63.3644 248.738 61.2141 248.126 59.1068C247.384 56.3634 247.247 53.4798 247.724 50.6729C248.336 46.4392 249.853 42.1577 250.882 37.8476C250.884 37.8238 250.884 37.7997 250.882 37.7759C251.421 35.6354 251.755 33.444 251.878 31.2343C252.056 26.776 250.964 22.3273 249.209 18.2656C247.651 14.6675 245.352 11.1267 241.833 9.66448C239.219 8.56066 236.29 8.73746 233.475 8.55588C227.159 8.14494 221.136 5.82263 215.131 3.71056C209.126 1.5985 202.947 -0.322424 196.627 0.0455143C190.306 0.413453 183.803 3.60066 180.92 9.44945C180.006 11.2748 179.48 13.3056 178.388 15.0211C176.34 18.2561 172.675 19.876 169.618 22.1075C166.561 24.339 163.869 27.5071 162.763 31.2868C162.159 33.3232 162.074 35.4892 162.516 37.5705C162.616 38.0405 162.744 38.5033 162.9 38.9562C163.334 40.2188 164.01 41.3751 164.888 42.3537C165.55 43.0769 166.311 43.6937 167.146 44.1838C168.194 44.7915 169.316 45.2479 170.482 45.5409C170.44 45.6842 170.399 45.8371 170.354 45.9853C170.281 46.229 170.217 46.4631 170.148 46.7259C169.997 47.3137 169.856 47.911 169.737 48.513C169.732 48.5559 169.732 48.5992 169.737 48.6421C169.175 51.36 168.893 54.1329 168.896 56.9135C168.895 58.2286 168.959 59.5428 169.088 60.8509C170.916 80.2418 186.225 95.5375 205.141 96.5314C205.789 96.5649 206.443 96.584 207.106 96.584C207.407 96.584 207.704 96.584 208.02 96.584C208.317 96.9949 208.609 97.4154 208.888 97.8264C209.167 98.2373 209.423 98.6578 209.665 99.0687L209.002 98.352L208.34 97.7165C208.16 97.9743 207.96 98.2156 207.741 98.438C207.309 98.2791 206.868 98.1482 206.42 98.0462C204.524 97.6065 201.635 97.4441 197.833 98.6435C194.337 99.7377 190.064 101.988 185.064 106.265L160.702 121.556L147.522 129.937L142.774 142.075C142.774 142.075 139.205 156.496 135.233 173.02C135.078 173.067 134.927 173.115 134.776 173.173C134.455 173.134 134.131 173.115 133.807 173.115C131.503 173.11 129.287 174.038 127.623 175.705C125.96 177.372 124.979 179.648 124.887 182.056C116.99 192.09 116.542 202.125 118.397 206.731C118.565 207.163 118.777 207.575 119.028 207.959C120.244 209.794 122.515 214.525 124.818 219.566C124.759 219.982 124.722 220.331 124.704 220.594C124.7 220.68 124.7 220.766 124.704 220.852C124.704 220.852 126.075 242.503 121.505 248.71C120.504 250.062 120.655 251.84 121.505 253.808C124.567 260.89 136.673 270.346 136.673 270.346C136.673 270.346 151.192 270.265 159.281 269.343C159.258 270.194 159.239 271.039 159.221 271.866C159.038 280.219 159.038 287.219 159.038 287.219L158.737 295.978C158.737 295.978 155.995 314.437 154.624 319.526C153.76 322.718 154.756 352.273 155.625 374H298.675C300.357 361.146 297.985 322.092 297.985 322.092C297.985 322.092 295.732 311.995 295.649 303.193C295.645 303.184 295.643 303.173 295.643 303.162C295.643 303.152 295.645 303.141 295.649 303.131C295.649 302.362 295.649 301.612 295.677 300.876L296.714 300.838L298.579 300.771H298.748C298.748 300.771 298.794 300.589 298.899 300.293C299.146 299.555 299.482 298.853 299.9 298.205C300.695 296.977 301.938 295.772 303.807 295.691C304.84 295.648 306.439 294.774 308.244 293.484C308.256 293.486 308.269 293.486 308.281 293.484C313.139 290.048 319.56 283.707 321.118 282.665C323.261 281.232 333.526 271.675 333.526 271.675C333.526 271.675 335.057 269.649 336.688 267.207L336.748 267.121C338.777 264.063 340.934 260.407 340.404 259.256C339.49 257.191 341.016 252.255 341.016 252.255C345.782 243.133 340.733 231.044 338.585 228.019ZM250.215 81.0445C250.258 81.1872 250.286 81.3347 250.297 81.4842C250.183 81.3265 250.068 81.1592 249.954 81.0063L249.844 80.8534L249.767 80.7387L249.94 80.4902C249.94 80.4902 249.94 80.4902 249.94 80.5237C250.061 80.6786 250.154 80.8551 250.215 81.0445ZM248.679 76.8109C248.181 76.916 247.788 77.0116 247.532 77.0832C247.207 76.4811 246.897 75.8791 246.618 75.2674C247.351 75.7119 248.041 76.2287 248.679 76.8109ZM247.82 77.5658C247.819 77.5563 247.819 77.5467 247.82 77.5372L247.856 77.5658C248.044 77.6949 248.227 77.8191 248.396 77.9481C248.546 78.0628 248.684 78.1727 248.821 78.2874C248.729 78.4546 248.629 78.6267 248.528 78.7652C248.368 78.5024 248.217 78.2492 248.071 77.9864C247.98 77.8812 247.898 77.7379 247.82 77.5658ZM245.078 71.6693C245.961 71.5782 246.85 71.5782 247.733 71.6693C247.856 71.6693 247.966 71.6932 248.076 71.7123C248.324 71.7523 248.567 71.818 248.802 71.9082C249.342 72.6982 249.675 73.6225 249.767 74.5889L249.52 74.6271L249.278 74.6749C248.821 74.7561 248.364 74.8374 248.007 74.9138L247.55 75.0142C246.942 75.1527 246.59 75.2579 246.577 75.2626C246.517 75.1336 246.458 75.0142 246.394 74.8899C246.293 74.6845 246.188 74.4742 246.097 74.2687C246.006 74.0633 245.887 73.8291 245.791 73.6141C245.727 73.4994 245.681 73.3847 245.631 73.2796C245.631 73.2318 245.585 73.1936 245.567 73.1458C245.54 73.0951 245.517 73.0424 245.498 72.9881C245.219 72.3956 244.964 71.8031 244.717 71.2201C244.689 71.1628 244.667 71.1006 244.644 71.0433L244.991 71.0194V71.1437L245.078 71.6693ZM136.042 368.094C136.005 360.979 135.512 353.281 134.141 346.056C133.556 342.983 132.953 339.911 132.34 336.891C132.185 336.136 132.034 335.39 131.883 334.645L130.476 334.841H130.348C126.509 315.914 122.497 299.237 122.497 299.237C122.497 299.237 114.526 267.417 115.45 264.88C115.568 264.55 115.418 263.661 115.079 262.357C113.151 255.122 105.099 235.187 102.283 228.373C102.283 228.344 102.261 228.311 102.251 228.287C101.794 227.145 101.465 226.375 101.365 226.151L102.027 215.982L102.064 215.371L102.151 214.071L102.114 214.038L102.151 213.435C102.151 213.435 95.1953 207.472 83.4139 203.167C82.9569 202.995 82.4724 202.827 81.9926 202.665C82.5821 198.551 83.3636 193.906 84.3827 189.381C84.4787 188.927 84.5838 188.487 84.6935 188.043C84.7894 187.599 84.8991 187.169 85.0088 186.734C85.1825 186.026 85.3698 185.329 85.5618 184.641C86.197 184.43 86.8231 184.196 87.44 183.948L87.6777 183.852C95.278 180.76 101.549 174.893 105.33 167.337C109.111 159.782 110.146 151.05 108.243 142.758C107.157 138.055 105.153 133.638 102.357 129.784C102.146 129.488 101.922 129.192 101.698 128.9C101.475 128.609 101.205 128.284 100.954 127.988C102.274 124.848 103.833 121.862 103.961 118.808C103.983 118.422 103.983 118.034 103.961 117.647V117.599C103.792 115.636 102.96 113.648 101.022 111.56C98.1933 108.497 94.1671 106.944 90.1409 106.198C86.1147 105.453 82.0109 105.434 77.9618 104.932C71.2485 104.091 64.7088 101.926 57.9955 101.262C49.7264 100.461 41.4012 101.944 33.8522 105.563C28.8571 107.952 23.7981 112.128 23.4965 117.858C23.2497 122.593 26.403 127.132 25.6079 131.81C24.8172 136.407 20.3386 140.025 20.7317 144.674C20.8825 146.49 21.7736 148.114 22.8887 149.562C23.2726 150.04 23.6793 150.518 24.0998 150.996C25.7267 152.797 27.5181 154.527 28.4276 156.797C28.4641 156.892 28.5007 156.988 28.5327 157.084C29.305 159.325 28.9577 162.158 27.0474 163.444C27.058 163.452 27.0659 163.464 27.0703 163.477C27.0977 163.515 27.1251 163.544 27.1479 163.582C27.1508 163.575 27.1508 163.566 27.1479 163.558C27.8253 164.398 28.7383 164.993 29.7574 165.259L30.1459 165.384C29.8305 165.742 29.5335 166.115 29.2319 166.507L29.0354 166.779C28.5317 167.487 28.0737 168.229 27.6644 169.001C27.4313 169.431 27.2074 169.861 27.02 170.291C26.3936 171.602 25.9401 172.996 25.6718 174.434C25.1829 177.597 25.8729 180.894 25.1326 183.991C24.2186 187.814 21.3258 190.748 19.6943 194.298C16.6049 200.988 18.3553 208.839 18.9768 216.226C19.8222 226.261 18.4512 236.338 17.0848 246.306C16.3597 251.607 15.6346 256.913 14.9095 262.223C13.0815 275.552 11.2535 288.88 9.42547 302.209C8.75825 307.093 7.96764 312.244 4.85547 316.014H4.88746C4.88746 316.014 4.88746 316.043 4.85547 316.052C5.78972 316.479 6.78332 316.747 7.79855 316.845C11.8613 317.271 16.1662 315.216 19.8222 312.97C22.7175 311.221 25.4595 309.207 28.0163 306.954C27.6415 308.387 27.2394 309.95 26.8098 311.632C26.8112 311.648 26.8112 311.664 26.8098 311.68C21.6502 332.227 13.3511 369.895 13.3511 369.895C13.3511 369.895 12.5971 371.534 11.6191 373.976H140.493C138.985 372.065 137.582 370.235 136.485 368.758L136.042 368.094ZM40.6203 178.104C40.6523 178.046 40.6752 177.994 40.7072 177.941C40.7072 178.094 40.7072 178.242 40.7072 178.386C40.7072 178.529 40.7072 178.658 40.7072 178.792C40.7072 178.926 40.7072 178.911 40.7072 178.978C40.7072 179.174 40.666 179.37 40.634 179.566C40.634 179.566 40.634 179.59 40.634 179.609L41.091 179.786L41.6212 180.015C44.7531 181.309 47.9247 182.479 51.1359 183.527C51.465 183.637 51.7986 183.742 52.1322 183.843L52.2007 184.435C52.283 185.042 52.3607 185.659 52.4338 186.275C52.4338 186.275 52.4338 186.304 52.4338 186.323C52.6394 188.029 52.8405 189.73 53.0188 191.393C53.0188 191.393 44.6282 188.048 44.7333 193.127C44.7285 193.218 44.7285 193.309 44.7333 193.4C44.724 193.52 44.724 193.642 44.7333 193.763C44.811 197.719 45.9947 200.065 46.2323 201.27C46.2181 201.32 46.193 201.365 46.1592 201.403C45.9564 201.865 45.8866 202.378 45.9581 202.88C45.9501 203.735 46.0144 204.589 46.15 205.432C45.9033 205.589 45.661 205.747 45.4188 205.909C45.236 206.029 45.0624 206.163 44.8841 206.297C43.763 202.23 42.2963 198.277 40.5015 194.484C39.2448 191.78 37.8326 188.96 37.8463 185.993C37.8463 185.802 37.8463 185.606 37.8692 185.41C37.9201 184.55 38.0768 183.7 38.3353 182.882C38.4404 182.572 38.5547 182.266 38.6827 181.965C38.9813 181.249 39.3154 180.551 39.6835 179.872C39.9211 179.423 40.1725 178.978 40.4147 178.529C40.4924 178.395 40.5655 178.257 40.6386 178.123L40.6203 178.104ZM245.814 73.6141C245.75 73.4994 245.704 73.3847 245.654 73.2796C245.654 73.2318 245.608 73.1936 245.59 73.1458C245.49 73.1949 245.388 73.238 245.283 73.2748C245.082 73.3561 244.877 73.4325 244.667 73.4946C244.456 73.5568 244.369 73.5902 244.21 73.6284L243.803 73.7383L243.839 73.8243C244.008 73.7861 244.173 73.7527 244.342 73.7049L244.388 74.2974C244.58 74.2974 244.758 74.2687 244.932 74.2687H245.178C245.535 74.2687 245.846 74.2687 246.092 74.2687C245.996 74.0537 245.896 73.8291 245.814 73.6141Z" fill="url(#paint1_linear_2826_78536)"/>
<path d="M139.233 141.744L136.46 143.009C136.46 143.009 118.381 215.544 118.381 221.406C118.381 227.268 156.716 259.888 156.716 259.888L162.698 218.193C162.698 218.193 154.109 122.577 139.233 141.744Z" fill="#E8F5FF"/>
<path d="M222.608 118.891L206.863 110.267C205.981 106.32 204.416 102.577 202.246 99.2235C199.942 95.7316 196.879 92.3017 193.062 90.5129C183.415 85.9715 233.869 62.1343 233.869 62.1343C234.664 64.9978 235.599 67.8161 236.673 70.5777C239.272 77.3134 243.584 86.024 249.142 88.5046C258.589 92.7263 222.608 118.891 222.608 118.891Z" fill="#A0616A"/>
<path opacity="0.1" d="M236.76 70.5669C234.6 78.5159 230.108 85.5541 223.919 90.6875C217.729 95.8209 210.155 98.7901 202.266 99.1758C199.958 95.6884 196.889 92.263 193.064 90.4764C183.398 85.9409 233.951 62.1343 233.951 62.1343C234.747 64.9941 235.685 67.8088 236.76 70.5669Z" fill="black"/>
<path d="M237.975 58.5401C237.977 66.3395 235.771 73.9642 231.636 80.45C227.501 86.9357 221.623 91.9912 214.745 94.977C207.867 97.9627 200.299 98.7447 192.997 97.2239C185.695 95.7032 178.988 91.948 173.723 86.4333C168.458 80.9187 164.873 73.8923 163.421 66.2429C161.968 58.5934 162.714 50.6645 165.563 43.459C168.412 36.2534 173.237 30.0949 179.427 25.7623C185.618 21.4297 192.896 19.1176 200.341 19.1186C205.289 19.0946 210.193 20.0979 214.769 22.0704C219.345 24.043 223.502 26.9458 227.001 30.6111C230.501 34.2765 233.272 38.6318 235.155 43.4255C237.039 48.2192 237.997 53.3563 237.975 58.5401Z" fill="#A0616A"/>
<path d="M243.439 113.525L233.118 138.655L224.014 155.336H194.873L186.373 132.53L189.818 108.88H212.074L226.443 108.035L231.297 106.345L234.426 108.198L243.439 113.525Z" fill="#575A89"/>
<path opacity="0.1" d="M239.867 80.0756C239.867 80.0756 246.299 81.5123 240.539 86.4595C234.779 91.4067 214.906 107.139 214.906 107.139C214.906 107.139 221.887 113.652 220.442 121.281L243.57 107.776L247.684 86.1673C247.684 86.1673 248.146 79.6733 239.867 80.0756Z" fill="black"/>
<path opacity="0.1" d="M219.441 106.942L204.886 109.49C204.886 109.49 207.889 121.269 206.388 124.614C206.342 124.717 206.305 124.825 206.275 124.935L200.336 141.963L204.787 155.335L220.192 133.048L214.941 124.614C214.941 124.614 220.49 116.812 223.792 114.106C227.094 111.4 219.441 106.942 219.441 106.942Z" fill="black"/>
<path d="M219.441 106.345L204.886 108.888C204.886 108.888 207.889 120.669 206.388 124.013C206.342 124.117 206.305 124.225 206.275 124.335L200.336 141.365L204.787 154.738L220.192 132.435L214.941 123.999C214.941 123.999 220.49 116.197 223.792 113.49C227.094 110.784 219.441 106.345 219.441 106.345Z" fill="#DCE6F2"/>
<path d="M240.483 78.8807C240.483 78.8807 246.915 80.3176 241.151 85.2654C235.386 90.2131 214.906 107.217 214.906 107.217C214.906 107.217 222.49 112.461 221.05 120.086L244.177 106.584L248.291 84.9732C248.291 84.9732 248.748 78.4784 240.483 78.8807Z" fill="#575A89"/>
<path opacity="0.1" d="M202.962 100.371C202.962 100.371 204.383 103.117 210.658 108.068C210.658 108.068 200.211 113.808 204.207 121.879L188.227 117.573L185.768 109.637L202.962 100.371Z" fill="black"/>
<path d="M202.353 99.7729C202.353 99.7729 203.775 102.519 210.05 107.472C210.05 107.472 199.602 113.185 203.599 121.281L187.62 116.975L185.16 109.041L202.353 99.7729Z" fill="#575A89"/>
<path opacity="0.1" d="M243.439 113.472L233.118 138.634L224.032 155.335H194.873L186.373 132.501L189.813 108.821H196.003C195.902 114.346 197.833 120.838 197.709 123.252C197.499 127.219 203.373 148.624 203.373 148.624C203.373 148.624 215.665 127.85 220.519 126C223.57 124.839 230.035 115.173 234.422 108.137L243.439 113.472Z" fill="black"/>
<path d="M284.255 246.263L283.207 247.638C283.207 247.638 290.798 287.413 288.698 296.446C288.341 298.074 288.137 299.735 288.09 301.404V301.476C287.719 310.666 290.377 322.593 290.377 322.593C290.377 322.593 292.5 357.749 291.292 372.208H149.167C148.335 350.828 147.438 323.128 148.252 320.057C149.625 314.989 152.37 296.603 152.37 296.603L152.672 287.891C152.672 287.891 152.672 279.47 152.919 270.088C153.024 265.871 153.18 261.443 153.404 257.516C153.693 252.577 154.095 248.417 154.649 246.373C154.99 244.823 155.186 243.242 155.234 241.653C155.234 241.505 155.234 241.352 155.262 241.2C155.262 240.722 155.308 240.206 155.326 239.676C155.326 239.528 155.326 239.38 155.326 239.198C155.413 236.122 155.381 232.473 155.285 228.69C155.285 228.484 155.285 228.274 155.285 228.064C155.207 225.227 155.093 222.332 154.964 219.581C154.566 210.983 154.049 203.713 154.049 203.713L136.594 143.336L141.297 131.242L154.351 122.892L178.487 107.679C190.26 97.5762 198.011 98.7895 200.967 99.8977C201.254 99.9999 201.535 100.12 201.809 100.256C201.9 100.304 201.974 100.342 202.042 100.385C202.136 100.431 202.226 100.486 202.312 100.547C201.503 100.954 200.799 101.558 200.262 102.31C199.657 103.165 199.226 104.14 198.995 105.176C198.84 105.818 198.732 106.471 198.67 107.129C198.61 107.822 198.588 108.539 198.588 109.26C198.62 110.842 198.75 112.42 198.977 113.984C198.977 114.013 198.977 114.051 198.977 114.089C199.128 115.207 199.315 116.301 199.498 117.328C199.496 117.345 199.496 117.363 199.498 117.38C199.709 118.579 199.919 119.687 200.061 120.643C200.088 120.814 200.111 120.972 200.134 121.12C200.235 121.751 200.282 122.391 200.276 123.031C200.328 124.576 200.527 126.112 200.871 127.616C200.99 128.247 201.127 128.92 201.278 129.623C201.484 130.578 201.708 131.619 201.951 132.68C202.083 133.262 202.225 133.864 202.372 134.461C202.426 134.7 202.486 134.939 202.541 135.183L202.632 135.56C203.607 139.606 204.664 143.632 205.314 146.068C205.698 147.501 205.94 148.385 205.94 148.385C205.94 148.385 212.831 136.754 218.331 130.134C218.413 130.038 218.487 129.947 218.564 129.861C219.109 129.207 219.644 128.61 220.157 128.084C221.278 126.919 222.284 126.088 223.094 125.782C223.267 125.716 223.434 125.635 223.593 125.539C225.844 124.206 229.477 119.367 232.877 114.299C233.211 113.822 233.536 113.301 233.865 112.809C234.62 111.672 235.352 110.53 236.043 109.437C236.574 108.601 237.082 107.789 237.562 107.015C239.85 103.299 241.46 100.528 241.46 100.528L244.636 100.38L245.189 100.351H245.56L259.978 99.6541C259.978 99.6541 260.6 99.7639 261.625 99.9789C261.68 99.9789 261.735 99.9789 261.794 100.017C266.909 101.078 281.121 104.435 281.99 109.093C283.052 114.796 305.975 122.405 305.975 122.405C306.277 126.226 311.891 128.744 311.891 128.744C311.891 128.744 320.393 152.197 318.119 161.387C315.872 170.463 323.966 192.913 324.181 193.543L322.63 195.588L284.255 246.263Z" fill="#E8F5FF"/>
<path opacity="0.1" d="M240.216 78.6753C240.216 78.6753 254.23 74.5269 257.414 83.0669C260.599 91.607 267.722 126.096 267.722 126.096C267.722 126.096 249.226 129.734 244.379 126.096C241.535 123.937 238.016 122.976 234.524 123.407L224.065 130.84L220.977 129.887C220.977 129.887 237.708 103.928 241.345 95.1069C244.982 86.2855 246.211 82.3421 240.216 78.6753Z" fill="black"/>
<path d="M239.591 76.8828C239.591 76.8828 253.612 72.7344 256.81 81.2745C260.008 89.8145 267.116 124.304 267.116 124.304C267.116 124.304 248.627 127.942 243.776 124.304C240.934 122.144 237.416 121.184 233.926 121.614L223.459 129.048L220.371 128.094C220.371 128.094 237.101 102.136 240.738 93.3144C244.374 84.493 245.585 80.5592 239.591 76.8828Z" fill="#E8F5FF"/>
<path opacity="0.1" d="M145.254 214.482C145.254 214.482 155.621 217.233 157.578 223.544C159.535 229.855 149.914 230.016 149.914 230.016C149.914 230.016 144.054 218.852 145.254 214.482Z" fill="black"/>
<path opacity="0.1" d="M183.946 259.888C183.946 259.888 159.021 315.246 164.774 320.526C170.527 325.807 183.946 259.888 183.946 259.888Z" fill="black"/>
<path opacity="0.1" d="M219.764 219.859C219.764 219.859 240.008 273.103 235.958 281.326C231.908 289.549 244.654 281.326 244.654 281.326L219.764 219.859Z" fill="black"/>
<path d="M247.905 272.435C247.905 272.435 179.07 275.941 199.15 298.567C219.23 321.194 260.436 299.528 260.436 299.528L247.905 272.435Z" fill="#A0616A"/>
<path opacity="0.1" d="M237.976 58.3374C237.982 63.4833 237.012 68.5798 235.121 73.3338C234.489 73.4097 233.856 73.4571 233.246 73.4856C232.335 71.4035 232.822 68.999 232.841 66.7083C232.859 64.4175 232.049 61.7237 229.932 61.1071C225.712 59.8693 222.798 68.0884 218.637 66.6039C215.45 65.4752 216.283 60.4384 214.449 57.5312C212.997 55.231 210.088 54.5812 207.825 53.1394C203.013 50.0614 203.159 45.1385 200.923 40.4812C198.584 35.6009 193.64 37.0427 189.347 39.9215C186.087 42.1127 183.274 45.0484 179.786 46.7937C176.768 48.3114 173.377 48.8615 170.031 48.9421C167.971 49.0253 165.91 48.7985 163.912 48.2687C166.262 39.065 171.745 31.0658 179.339 25.763C186.932 20.4602 196.118 18.2157 205.183 19.4482C214.247 20.6806 222.573 25.3057 228.605 32.4611C234.638 39.6165 237.967 48.8137 237.971 58.3374H237.976Z" fill="black"/>
<path d="M189.333 38.5603C186.062 40.7611 183.246 43.7049 179.751 45.4674C176.726 46.987 173.326 47.5396 169.972 47.6206C165.866 47.7158 161.444 46.9632 158.638 43.8669C156.06 41.0088 155.444 36.6121 156.534 32.8632C157.625 29.1143 160.239 26.0037 163.31 23.7505C166.381 21.4974 169.945 19.9397 171.98 16.7148C173.057 15.0095 173.577 12.9993 174.472 11.1843C177.333 5.37761 183.767 2.23368 189.986 1.84307C196.205 1.45246 202.37 3.38645 208.293 5.48241C214.216 7.57836 220.184 9.88391 226.436 10.3174C229.219 10.4984 232.112 10.3174 234.695 11.4178C238.167 12.8897 240.444 16.4099 241.996 19.9921C243.734 24.0316 244.816 28.4426 244.633 32.8536C244.25 42.2711 238.29 51.5124 240.91 60.5345C241.603 62.9401 242.904 65.4076 242.21 67.8132C241.197 71.3239 236.858 72.1242 233.349 72.2909C232.436 70.1997 232.924 67.7798 232.943 65.4838C232.961 63.1878 232.149 60.4773 230.031 59.8581C225.797 58.6243 222.876 66.8652 218.715 65.379C215.544 64.2405 216.365 59.1864 214.522 56.2664C213.066 53.9513 210.146 53.3035 207.882 51.8553C203.059 48.7638 203.205 43.8193 200.965 39.1415C198.601 34.216 193.641 35.6641 189.333 38.5603Z" fill="black"/>
<path d="M122.159 220.249L118.651 221.516C118.651 221.516 120.03 243.001 115.434 249.162C110.837 255.324 130.529 270.642 130.529 270.642C130.529 270.642 157.521 270.485 158.284 268.261C159.047 266.038 156.905 228.454 156.905 228.454C156.905 228.454 142.416 222.606 143.634 213.288C143.634 213.288 139.212 235.244 132.657 234.296C126.103 233.349 118.661 227.677 122.159 220.249Z" fill="#E8F5FF"/>
<path opacity="0.1" d="M133.861 241.367C139.058 241.367 143.271 237.355 143.271 232.406C143.271 227.456 139.058 223.444 133.861 223.444C128.664 223.444 124.451 227.456 124.451 232.406C124.451 237.355 128.664 241.367 133.861 241.367Z" fill="black"/>
<path d="M143.878 220.903C143.878 220.903 142.058 162.79 126.21 175.738C110.362 188.686 110.207 204.171 113.224 208.746C116.242 213.32 125.918 236.222 125.918 236.222C127.432 237.139 129.132 237.669 130.879 237.766C132.626 237.864 134.37 237.528 135.968 236.785C137.567 236.042 138.975 234.913 140.076 233.491C141.177 232.07 141.94 230.395 142.304 228.605L143.878 220.903Z" fill="#A0616A"/>
<path opacity="0.1" d="M242.924 73.2147C242.85 72.9587 242.707 72.7302 242.513 72.5561C241.73 71.8069 240.043 71.5444 237.5 71.7735L237.605 73.0333C240.996 72.7279 241.666 73.4342 241.752 73.5535V73.6728L241.857 73.8303C242.28 74.4252 242.579 75.1061 242.736 75.8292C242.893 76.5524 242.904 77.3019 242.769 78.0297C242.026 81.919 237.464 85.0161 237.418 85.0495L237.309 85.1163L237.241 85.226C235.272 88.2849 224.139 96.9177 221.226 99.151L220.971 98.8456C219.668 100.029 208.211 110.532 207.591 114.555C207.19 117.08 204.474 118.058 203.49 118.33C202.451 117.505 199.078 114.694 197.324 111.544C195.678 108.581 202.3 102.797 202.883 100.54L201.972 99.5614C201.876 99.9241 193.372 108.247 195.738 112.499C197.634 115.911 201.097 118.831 202.309 119.795C201.922 123.479 199.511 145.111 195.806 150.236C191.203 156.607 187.334 188.714 187.763 199.923C188.141 209.883 185.657 228.694 177.363 236.774C175.927 238.234 174.195 239.335 172.295 239.996C170.396 240.657 168.378 240.861 166.394 240.591H166.293H166.193C166.074 240.591 154.043 241.88 143.935 232.956C135.664 225.669 130.979 213.777 130.004 197.599H129.803L129.721 192.889C131.964 192.523 133.984 191.26 135.356 189.367C136.728 187.474 137.347 185.097 137.081 182.737C136.815 180.377 135.686 178.216 133.93 176.709C132.175 175.202 129.93 174.466 127.668 174.656C125.405 174.846 123.301 175.947 121.797 177.727C120.293 179.508 119.507 181.829 119.604 184.204C119.7 186.578 120.672 188.821 122.315 190.462C123.958 192.102 126.144 193.011 128.413 192.999H128.514L128.596 197.681L128.195 197.709C129.197 214.412 134.119 226.767 142.778 234.397C149.359 240.108 157.766 242.989 166.298 242.457C166.903 242.527 167.512 242.562 168.121 242.562C172.032 242.583 175.795 240.999 178.602 238.148C187.339 229.63 189.996 210.126 189.581 199.828C189.125 187.95 193.186 156.998 197.26 151.363C201.252 145.832 203.672 124.281 204.096 120.105C205.54 119.681 208.808 118.34 209.364 114.856C209.765 112.336 217.417 104.572 222.124 100.272L221.983 100.101C224.517 98.1632 232.396 92.0549 236.302 88.1322C237.514 86.9154 238.717 85.6985 239.975 84.5388C241.488 83.1358 243.411 80.9073 243.917 78.2731C244.09 77.4035 244.09 76.5063 243.92 75.6364C243.749 74.7665 243.41 73.9424 242.924 73.2147Z" fill="black"/>
<path d="M202.298 119.489C202.106 119.352 197.562 115.992 195.285 111.948C192.922 107.749 201.436 99.534 201.527 99.1758L202.439 100.142C201.86 102.367 195.231 108.083 196.878 111.005C198.954 114.696 203.325 117.924 203.37 117.957L202.298 119.489Z" fill="#353146"/>
<path d="M221.086 100.37L220.371 99.3354C220.518 99.2247 234.908 88.2866 237.176 84.748L237.249 84.6421L237.355 84.5699C237.4 84.5362 241.986 81.4165 242.733 77.4881C242.871 76.7546 242.861 75.9989 242.703 75.2699C242.545 74.541 242.243 73.8549 241.817 73.2563L241.712 73.0926V72.9771C241.62 72.8519 240.946 72.1442 237.538 72.4523L237.432 71.1765C239.993 70.9454 241.684 71.2102 242.472 71.9661C242.668 72.1435 242.813 72.3754 242.889 72.6353C243.384 73.3672 243.732 74.1981 243.91 75.0766C244.088 75.9551 244.093 76.8627 243.924 77.7432C243.416 80.4056 241.487 82.6538 239.961 84.0644C238.702 85.2343 237.487 86.4716 236.273 87.6896C231.669 92.3258 221.59 99.9901 221.086 100.37Z" fill="#E8F5FF"/>
<path d="M129.007 191.404L127.795 191.427L127.93 199.124L129.142 199.1L129.007 191.404Z" fill="#E8F5FF"/>
<path d="M127.791 192.377C132.653 192.377 136.594 188.231 136.594 183.117C136.594 178.002 132.653 173.856 127.791 173.856C122.929 173.856 118.988 178.002 118.988 183.117C118.988 188.231 122.929 192.377 127.791 192.377Z" fill="#34609D"/>
<path d="M127.486 191.182C131.51 191.182 134.771 187.705 134.771 183.415C134.771 179.126 131.51 175.648 127.486 175.648C123.463 175.648 120.201 179.126 120.201 183.415C120.201 187.705 123.463 191.182 127.486 191.182Z" fill="#E8F5FF"/>
<path d="M167.478 241.965C166.868 241.966 166.259 241.932 165.652 241.864C157.107 242.391 148.688 239.506 142.093 233.79C133.42 226.141 128.5 213.779 127.486 197.033L129.312 196.913C130.289 213.119 134.982 225.037 143.271 232.332C153.396 241.248 165.442 239.981 165.561 239.981H165.661H165.762C167.75 240.249 169.771 240.045 171.674 239.383C173.577 238.721 175.313 237.618 176.753 236.156C185.057 228.063 187.545 209.218 187.166 199.241C186.709 188.002 190.585 155.839 195.2 149.462C199.239 143.874 201.745 118.685 201.773 118.432L201.841 117.715L202.517 117.591C202.558 117.591 206.502 116.807 206.995 113.718C207.634 109.693 219.091 99.1713 220.392 97.981L221.584 99.4151C216.85 103.718 209.186 111.5 208.802 114.029C208.246 117.528 204.973 118.867 203.53 119.288C203.074 123.475 200.668 145.059 196.683 150.6C192.602 156.246 188.535 187.252 188.992 199.151C189.384 209.467 186.75 229.01 178 237.538C175.182 240.401 171.404 241.99 167.478 241.965Z" fill="#353146"/>
<g opacity="0.1">
<path d="M241.986 47.0531C242.736 44.1574 243.642 41.2425 244.273 38.3086C243.519 41.2569 242.608 44.1574 241.986 47.0531Z" fill="black"/>
<path d="M234.335 69.8079C233.42 67.7102 233.909 65.2828 233.928 62.9796C233.946 60.6764 233.132 57.9813 231.01 57.3363C226.765 56.0987 223.838 64.3701 219.667 62.8745C216.465 61.7324 217.311 56.6625 215.464 53.7333C214.005 51.411 211.082 50.7612 208.813 49.3085C203.975 46.2073 204.121 41.2473 201.88 36.5549C199.524 31.6331 194.562 33.0858 190.244 35.9911C186.965 38.1987 184.143 41.1565 180.64 42.9198C177.607 44.4441 174.2 44.9984 170.838 45.0796C166.745 45.18 162.29 44.4202 159.477 41.3142C157.309 38.925 156.527 35.4224 156.975 32.1396C156.898 32.3642 156.829 32.5888 156.76 32.8134C155.663 36.574 156.303 40.9941 158.869 43.8516C161.682 46.9575 166.136 47.7125 170.23 47.617C173.596 47.5357 176.999 46.9814 180.036 45.4571C183.548 43.6891 186.37 40.736 189.641 38.5284C193.958 35.6231 198.925 34.1705 201.276 39.0923C203.517 43.7847 203.375 48.7447 208.21 51.8459C210.497 53.2794 213.401 53.9484 214.865 56.2707C216.694 59.2094 215.884 64.2698 219.068 65.4118C223.234 66.9027 226.162 58.636 230.406 59.8736C232.528 60.4948 233.347 63.2185 233.324 65.5169C233.301 67.8153 232.825 70.2476 233.731 72.3453C237.248 72.178 241.598 71.3896 242.618 67.8536C242.758 67.3461 242.823 66.8191 242.81 66.291C241.323 68.9717 237.5 69.6598 234.335 69.8079Z" fill="black"/>
</g>
<path opacity="0.1" d="M317.189 187.555L322.511 193.412C322.511 193.412 326.769 225.687 328.896 228.706C331.023 231.725 336.047 243.735 331.33 252.754C331.33 252.754 329.808 257.661 330.72 259.717C331.632 261.773 323.881 272.06 323.881 272.06C323.881 272.06 313.692 281.552 311.56 282.978C309.429 284.404 298.18 295.793 294.38 295.95C290.581 296.108 289.338 301.016 289.338 301.016L267.896 301.807C267.896 301.807 256.051 301.163 253.475 302.904C253.475 302.904 254.85 284.075 241.617 271.731L258.494 265.402C258.494 265.402 264.884 262.541 266.86 259.55C268.103 257.717 269.866 256.334 271.902 255.596C271.902 255.596 276.614 252.115 276.765 250.216C276.916 248.318 282.527 245.991 282.527 245.991L279.35 217.779L281.023 170.943C281.023 170.943 286.345 131.7 297.598 133.918C308.851 136.136 317.189 187.555 317.189 187.555Z" fill="black"/>
<path d="M319.011 187.555L324.333 193.412C324.333 193.412 328.591 225.687 330.718 228.706C332.845 231.725 337.869 243.735 333.152 252.754C333.152 252.754 331.635 257.661 332.547 259.717C333.459 261.773 325.704 272.06 325.704 272.06C325.704 272.06 315.514 281.552 313.383 282.978C311.251 284.404 300.003 295.793 296.203 295.95C292.403 296.108 291.161 301.016 291.161 301.016L269.718 301.807C269.718 301.807 257.864 301.163 255.298 302.904C255.298 302.904 256.673 284.075 243.439 271.731L260.317 265.402C260.317 265.402 266.706 262.541 268.682 259.55C269.925 257.717 271.688 256.334 273.724 255.596C273.724 255.596 278.436 252.115 278.587 250.216C278.739 248.318 284.349 245.991 284.349 245.991L281.173 217.779L282.846 170.943C282.846 170.943 288.167 131.7 299.421 133.918C310.674 136.136 319.011 187.555 319.011 187.555Z" fill="#E8F5FF"/>
<path opacity="0.1" d="M299.289 234.679C299.289 234.679 314.788 230.328 318.853 235.646C322.917 240.964 299.289 234.679 299.289 234.679Z" fill="black"/>
<path opacity="0.1" d="M295.646 241.965C300.846 245.984 316.894 246.147 316.894 246.147L295.646 241.965Z" fill="black"/>
<path opacity="0.1" d="M303.541 261.681C303.996 261.833 314.757 273.509 319.275 269.977C323.792 266.445 303.541 261.681 303.541 261.681Z" fill="black"/>
<path opacity="0.1" d="M157.84 160.712C157.84 160.712 161.189 183.382 159.539 192.615C157.888 201.848 163.911 213.287 163.911 213.287L157.84 160.712Z" fill="black"/>
<path d="M87.3932 169.821C83.7612 172.805 81.1099 179.868 79.1896 187.63C75.8391 201.171 74.745 216.872 74.745 216.872C74.745 216.872 45.8256 209.924 47.9321 206.768C49.2578 204.783 47.4782 189.829 45.9936 178.987C45.1083 172.581 44.3184 167.608 44.3184 167.608C44.3184 167.608 97.3356 161.606 87.3932 169.821Z" fill="#A0616A"/>
<path opacity="0.1" d="M87.3932 169.158C83.7612 172.103 81.1099 179.058 79.1896 186.708C73.4277 188.515 67.2998 188.678 61.4555 187.18C55.6113 185.681 50.2685 182.577 45.9936 178.195C45.1083 171.878 44.3184 166.977 44.3184 166.977C44.3184 166.977 97.3356 161.068 87.3932 169.158Z" fill="black"/>
<path d="M103.204 152.036C103.207 160.287 100.396 168.273 95.2691 174.58C90.1419 180.887 83.0289 185.11 75.1889 186.5C67.349 187.891 59.2876 186.359 52.4316 182.177C45.5756 177.994 40.367 171.431 37.7276 163.648C35.0882 155.865 35.1882 147.364 38.01 139.65C40.8317 131.936 46.1932 125.507 53.1456 121.499C60.098 117.492 68.1929 116.165 75.9978 117.753C83.8027 119.341 90.8143 123.743 95.7916 130.178C100.588 136.377 103.203 144.088 103.204 152.036Z" fill="#A0616A"/>
<path opacity="0.1" d="M129.885 372.208H120.072L119.245 354.517L118.381 336.206C118.381 336.206 120.61 335.867 124.161 335.362L125.595 335.166H125.712C126.488 338.882 127.254 342.697 127.992 346.508C129.221 353.274 129.861 360.137 129.904 367.018C129.904 367.495 129.904 367.972 129.904 368.42C129.932 369.694 129.904 370.967 129.885 372.208Z" fill="black"/>
<path d="M128.072 372.208H7.89258C8.4128 370.969 8.75961 370.219 8.75961 370.219C8.75961 370.219 18.3745 326.142 23.2619 307.494C23.2633 307.478 23.2633 307.462 23.2619 307.446C23.8725 304.913 24.6097 302.415 25.4705 299.963C25.5261 299.797 25.598 299.636 25.685 299.485C28.1035 295.363 31.1336 290.921 26.8943 284.576C22.6549 278.231 24.1563 250.312 24.1563 250.312C24.1563 250.312 29.3037 226.514 34.7523 213.824C35.5792 211.858 36.7527 210.073 38.2113 208.564C38.6855 208.078 39.1918 207.627 39.7263 207.215C40.1327 206.895 40.5563 206.6 40.9949 206.331L41.0816 206.273C43.3705 204.914 45.9122 204.087 48.5336 203.849C50.3956 203.645 52.2752 203.7 54.1236 204.012C62.9582 205.37 70.0314 207.641 75.6534 210.228C90.8903 217.242 95.5039 226.643 95.5951 226.839L95.6316 226.92C96.2431 228.417 105.187 250.297 108.409 260.506C109.244 263.164 109.7 265.034 109.518 265.546C108.605 268.08 116.481 299.805 116.481 299.805C116.481 299.805 120.132 315.106 123.783 333.042C123.942 333.788 124.093 334.534 124.239 335.289C124.892 338.546 125.54 341.864 126.165 345.178C127.376 352.007 128.001 358.936 128.031 365.882C128.098 368.046 128.112 370.155 128.072 372.208Z" fill="#34609D"/>
<path opacity="0.1" d="M47.6853 192.87C47.6853 192.87 39.3591 189.498 39.4599 194.614C39.5607 199.73 41.4899 202.177 40.8804 202.924C40.271 203.67 41.1829 208.146 41.1829 208.146C41.1829 208.146 52.4327 208.146 57.6016 210.593C62.7706 213.04 81.8242 217.944 84.2574 219.437C86.6907 220.93 95.7134 227.626 95.7134 227.626L96.5245 214.947C96.5245 214.947 87.1993 206.85 71.8987 202.697C56.5981 198.545 47.6853 192.87 47.6853 192.87Z" fill="black"/>
<path d="M47.684 192.273C47.684 192.273 39.3591 188.9 39.4599 194.016C39.5607 199.132 41.4896 201.579 40.8802 202.326C40.2708 203.073 41.1826 207.548 41.1826 207.548C41.1826 207.548 52.4306 207.548 57.5987 210C62.7668 212.452 81.8173 217.351 84.2502 218.839C86.6831 220.328 95.7044 227.029 95.7044 227.029L96.5245 214.388C96.5245 214.388 87.2008 206.291 71.9026 202.138C56.6045 197.986 47.684 192.273 47.684 192.273Z" fill="#316AB3"/>
<path opacity="0.1" d="M72.8496 222.847C72.8496 222.847 88.8102 240.633 87.9965 245.559C87.1829 250.485 72.8496 222.847 72.8496 222.847Z" fill="black"/>
<path opacity="0.1" d="M47.1244 287.371C47.1244 287.371 35.4265 298.742 31.9792 299.386C28.5318 300.031 34.6221 302.175 38.5842 300.463C42.5463 298.751 50.9946 294.247 50.9946 294.247L47.1244 287.371Z" fill="black"/>
<path d="M132.95 372.208H105.662C101.846 368.767 98.2369 365.58 95.938 363.664C92.2598 360.596 89.6069 356.081 87.9149 352.449C87.5333 351.622 87.2023 350.848 86.9218 350.146C86.4196 348.936 85.9776 347.7 85.5977 346.443L105.805 333.971C106.922 334.958 107.971 336.025 108.945 337.163L109.189 337.455C110.311 338.831 111.299 340.393 111.386 341.674C111.488 343.165 115.478 348.932 119.557 354.47C123.695 360.104 127.934 365.489 128.214 365.852C128.214 365.852 128.913 366.841 130.053 368.361C130.858 369.46 131.851 370.779 132.95 372.208Z" fill="#A0616A"/>
<path opacity="0.1" d="M95.9192 130.234C94.9521 132.505 94.0858 134.861 93.9575 137.39C93.5954 144.688 94.1821 161.007 86.4176 164.671C82.572 166.474 78.4559 162.515 74.2391 162.419C71.2048 162.352 68.4226 164.356 66.5708 166.86C64.7191 169.365 63.5686 172.336 62.2256 175.17C61.0031 177.742 59.595 180.214 58.0133 182.564C57.5406 183.283 57.0198 183.967 56.4549 184.61C51.7204 182.531 47.5044 179.355 44.1281 175.323C40.7519 171.291 38.3045 166.51 36.9724 161.345C35.6403 156.18 35.4588 150.766 36.4415 145.517C37.4243 140.268 39.5454 135.321 42.6434 131.054C45.7413 126.787 49.7342 123.312 54.3179 120.895C58.9016 118.477 63.9551 117.18 69.0933 117.103C74.2315 117.026 79.3189 118.17 83.9677 120.449C88.6166 122.728 92.7042 126.081 95.9192 130.253V130.234Z" fill="black"/>
<path d="M93.5177 135.804C93.151 143.117 93.7424 159.47 85.9717 163.136C82.1254 164.943 78.0086 160.98 73.7909 160.884C70.756 160.813 67.9779 162.825 66.1212 165.33C64.2645 167.835 63.123 170.817 61.7752 173.661C60.552 176.238 59.1436 178.715 57.5621 181.071C56.6177 182.466 55.5724 183.867 54.1192 184.651C51.5886 186.027 48.5216 185.253 45.8076 184.369C42.2867 183.212 38.8179 181.909 35.4009 180.459C35.4794 179.921 35.5192 179.378 35.5201 178.833C35.4193 179.034 35.3093 179.221 35.1992 179.421L34.9838 179.813C34.5941 180.53 34.2136 181.247 33.8652 181.984C33.7322 182.266 33.6038 182.557 33.4892 182.849C33.0282 183.934 32.7387 185.09 32.632 186.271C32.3981 189.46 33.9064 192.485 35.2451 195.353C40.3934 206.448 43.575 219.421 39.7011 231.06C38.0232 236.122 35.1167 240.62 32.9941 245.51C29.2837 254.171 28.1915 263.805 29.863 273.129C30.922 278.923 33.0446 284.659 32.5219 290.534C31.605 300.643 23.243 308.167 14.8673 313.339C10.3425 316.121 4.80448 318.597 0 316.398C3.0624 312.67 3.85092 307.512 4.51108 302.646C6.31735 289.374 8.1282 276.095 9.94363 262.809C10.668 257.523 11.3908 252.236 12.1121 246.949C13.4599 237.016 14.826 226.973 13.9825 216.978C13.3682 209.612 11.6353 201.792 14.6977 195.124C16.316 191.591 19.1996 188.666 20.0981 184.861C20.8362 181.768 20.1486 178.48 20.6345 175.33C20.9005 173.897 21.3508 172.507 21.9732 171.2C22.7657 169.425 23.8003 167.78 25.0447 166.315C23.8161 165.942 22.67 165.43 21.9732 164.36C23.9445 163.021 24.2425 160.005 23.3485 157.739C22.4545 155.473 20.6666 153.748 19.0575 151.96C17.4483 150.172 15.8988 148.088 15.6971 145.65C15.3074 141.009 19.7543 137.414 20.5382 132.835C21.3313 128.175 18.1956 123.643 18.4477 118.925C18.7411 113.223 23.7657 109.078 28.726 106.674C36.2114 103.061 44.4802 101.577 52.6934 102.372C59.3775 103.032 65.8461 105.187 72.5119 106.024C76.5324 106.502 80.608 106.55 84.601 107.286C88.594 108.022 92.5962 109.575 95.4065 112.63C102.815 120.684 93.9395 127.314 93.5177 135.804Z" fill="black"/>
<path opacity="0.1" d="M87.038 352.438C84.7046 351.38 80.4587 352.012 73.1704 349.688C65.882 347.365 64.4774 336.862 64.4774 336.862V336.829C64.3905 336.589 63.7133 335.027 59.1289 329.555C54.0641 323.514 43.1155 292.998 43.1155 292.998C43.1155 292.998 33.4069 282.079 33.7134 278.054C34.0199 274.029 31.9885 263.321 32.1898 251.343C32.3912 239.365 54.0458 231.421 54.0458 231.421C95.7401 223.683 85.9216 274.02 84.8098 277.834C83.698 281.647 89.4674 291.949 89.4674 291.949C88.653 296.433 92.8073 303.376 92.8073 303.376C92.8073 303.376 93.8139 309.518 94.0198 311.852C94.0312 311.959 94.0542 312.066 94.0884 312.168C94.7564 314.367 100.201 316.36 102.415 317.572C104.744 318.847 112.234 329.972 112.234 329.972C113.849 338.141 89.3622 353.512 87.038 352.438Z" fill="black"/>
<path d="M88.252 350.646C85.9229 349.582 81.6721 350.219 74.3875 347.89C67.103 345.561 65.6936 335.066 65.6936 335.066V335.033C65.6113 334.788 64.9295 333.231 60.3446 327.758C55.2793 321.715 44.3296 291.189 44.3296 291.189C44.3296 291.189 34.6199 280.272 34.9219 276.247C35.2239 272.222 33.2015 261.511 33.4028 249.54C33.6041 237.569 55.2473 229.629 55.2473 229.629C96.9458 221.889 87.1263 272.236 86.0144 276.051C84.9025 279.865 90.6725 290.168 90.6725 290.168C89.858 294.654 94.0128 301.598 94.0128 301.598C94.0128 301.598 95.0195 307.741 95.2299 310.075C95.2376 310.183 95.2591 310.289 95.294 310.391C95.962 312.591 101.407 314.584 103.626 315.797C105.951 317.067 113.446 328.199 113.446 328.199C115.07 336.355 90.581 351.729 88.252 350.646Z" fill="#34609D"/>
<path opacity="0.1" d="M56.457 255.706C56.457 255.706 74.3249 276.019 78.9882 276.019C83.6515 276.019 56.457 255.706 56.457 255.706Z" fill="black"/>
<path d="M88.1624 350.645C85.8292 349.573 81.5709 350.216 74.2736 347.869C66.9762 345.523 65.5645 334.951 65.5645 334.951V334.917C70.4003 331.537 82.6481 321.993 87.4748 318.503C90.8714 316.055 93.6445 312.459 95.2672 310.074C95.9364 312.29 101.391 314.298 103.614 315.519C105.943 316.799 113.451 328.013 113.451 328.013C115.028 336.249 90.4955 351.736 88.1624 350.645Z" fill="#316AB3"/>
<g opacity="0.1">
<path d="M21.9941 164.469C22.017 164.507 22.049 164.54 22.0765 164.579C22.2137 164.397 22.3555 164.215 22.5018 164.043C22.3459 164.202 22.1759 164.344 21.9941 164.469Z" fill="black"/>
<path d="M32.6031 186.373C32.7952 183.721 34.1536 181.384 35.4251 179.053C34.5926 178.718 33.7602 178.379 32.937 178.025C33.0154 177.489 33.0551 176.948 33.0559 176.405C31.7707 178.794 30.3711 181.145 30.1745 183.836C29.9412 187.028 31.4459 190.048 32.7815 192.915C37.9223 204.001 41.0919 216.969 37.2271 228.61C35.5485 233.665 32.6534 238.166 30.5358 243.055C26.8354 251.711 25.7473 261.341 27.4165 270.66C28.4639 276.456 30.5861 282.185 30.0647 288.058C29.15 298.164 20.8121 305.685 12.4514 310.851C9.03486 312.963 5.04202 314.898 1.22298 314.76C0.869474 315.354 0.475098 315.921 0.0429688 316.456C4.84077 318.668 10.3612 316.179 14.8755 313.388C23.2407 308.228 31.5969 300.725 32.5116 290.6C33.033 284.727 30.9108 278.998 29.8589 273.202C28.1891 263.884 29.2739 254.255 32.969 245.597C35.0729 240.713 38 236.207 39.6603 231.152C43.5251 219.511 40.3509 206.543 35.2147 195.457C33.8837 192.571 32.3698 189.565 32.6031 186.373Z" fill="black"/>
<path d="M95.2172 112.761C94.7674 112.279 94.2843 111.832 93.772 111.423C99.3153 118.935 91.3113 125.319 90.9134 133.404C90.5567 140.715 91.1421 157.067 83.3897 160.727C79.5569 162.538 75.4452 158.572 71.2419 158.476C68.2096 158.41 65.4379 160.421 63.5856 162.925C61.7332 165.429 60.5944 168.411 59.2543 171.249C58.0318 173.825 56.6252 176.301 55.0465 178.656C54.1318 180.056 53.0615 181.451 51.6071 182.24C49.0915 183.611 46.0318 182.842 43.3196 181.953C40.6821 181.086 38.0689 180.131 35.4802 179.086C35.4749 179.583 35.4352 180.08 35.3613 180.572C38.7733 182.025 42.2356 183.327 45.7482 184.481C48.4558 185.369 51.5156 186.139 54.0357 184.767C55.4856 183.979 56.5375 182.579 57.4751 181.179C59.0549 178.827 60.4601 176.353 61.6783 173.777C63.023 170.939 64.1573 167.952 66.0142 165.448C67.8711 162.944 70.6382 160.937 73.666 161.004C77.8738 161.1 81.9855 165.066 85.8183 163.255C93.5707 159.595 92.9807 143.243 93.342 135.932C93.7628 127.431 102.617 120.808 95.2172 112.761Z" fill="black"/>
</g>
<path opacity="0.1" d="M35.2093 179.848C34.8093 180.55 34.4187 181.251 34.061 181.972C33.9245 182.247 33.7928 182.533 33.6751 182.818C31.2091 180.349 25.2042 174.48 21.8535 172.661C22.6682 170.926 23.7301 169.316 25.0066 167.882C25.0066 167.882 32.9927 172.076 35.2093 179.848Z" fill="black"/>
<path d="M35.2093 179.583C33.3899 170.828 24.9552 166.089 24.9552 166.089C23.6985 167.598 22.6538 169.292 21.8535 171.119C25.3302 173.141 31.7372 179.922 33.8621 182.22L35.2093 179.583Z" fill="#34609D"/>
<defs>
<linearGradient id="paint0_linear_2826_78536" x1="244.046" y1="43.6135" x2="244.046" y2="34.6519" gradientUnits="userSpaceOnUse">
<stop stop-color="#808080" stop-opacity="0.25"/>
<stop offset="0.54" stop-color="#808080" stop-opacity="0.12"/>
<stop offset="1" stop-color="#808080" stop-opacity="0.1"/>
</linearGradient>
<linearGradient id="paint1_linear_2826_78536" x1="173.959" y1="373.99" x2="173.959" y2="-0.00704427" gradientUnits="userSpaceOnUse">
<stop stop-color="#808080" stop-opacity="0.25"/>
<stop offset="0.54" stop-color="#808080" stop-opacity="0.12"/>
<stop offset="1" stop-color="#808080" stop-opacity="0.1"/>
</linearGradient>
</defs>
</svg>
