<svg width="374" height="334" viewBox="0 0 374 334" fill="none" xmlns="http://www.w3.org/2000/svg">
<path d="M281.186 327.404L272.461 327.403L268.311 297.805L281.188 297.806L281.186 327.404Z" fill="#FFB6B6"/>
<path d="M251.29 327.23C251.018 327.632 250.875 328.931 250.875 329.399C250.875 330.837 252.201 332.003 253.836 332.003H280.857C281.973 332.003 282.877 331.208 282.877 330.226V329.237C282.877 329.237 284.214 326.264 281.462 322.599C281.462 322.599 278.042 325.468 272.931 320.973L271.424 318.572L260.514 325.589L254.467 326.244C253.144 326.387 251.971 326.222 251.29 327.23Z" fill="#2F2E41"/>
<path d="M314.239 327.404L305.514 327.403L301.363 297.805L314.241 297.806L314.239 327.404Z" fill="#FFB6B6"/>
<path d="M284.343 327.23C284.071 327.632 283.928 328.931 283.928 329.399C283.928 330.837 285.254 332.003 286.889 332.003H313.91C315.026 332.003 315.93 331.208 315.93 330.226V329.237C315.93 329.237 317.267 326.264 314.515 322.599C314.515 322.599 311.094 325.468 305.984 320.973L304.476 318.572L293.567 325.589L287.519 326.244C286.196 326.387 285.023 326.222 284.343 327.23Z" fill="#2F2E41"/>
<path d="M264.728 149.464L264.537 313.302H287.197L297.899 192.148L298.205 313.302L319.147 313.085L335.359 173.716C335.359 173.716 337.542 159.165 330.665 151.728C323.788 144.29 264.728 149.464 264.728 149.464Z" fill="#2F2E41"/>
<path d="M264.481 168.838C264.964 174.044 262.259 178.481 258.439 178.748C254.619 179.015 251.13 175.011 250.647 169.804C250.435 167.525 250.834 165.393 251.671 163.694L249.941 141.61L261.908 141.127L262.342 162.949C263.481 164.51 264.269 166.559 264.481 168.838Z" fill="#FFB6B6"/>
<path d="M209.903 79.1473V29.015C209.903 12.9905 197.631 3.97618e-09 182.491 3.97618e-09H82.1449C67.0057 -0.000262427 54.7327 12.99 54.7324 29.0146V304.044C54.7324 320.069 67.0052 333.059 82.1445 333.059H182.49C197.629 333.059 209.902 320.069 209.902 304.044V114.832C210.856 114.832 211.629 114.014 211.629 113.005L211.63 80.975C211.63 79.9656 210.857 79.1473 209.903 79.1473Z" fill="#3F3D56"/>
<path d="M203.42 26.6923V305.425C187.587 304.384 171.912 323.814 182.879 327.414H81.6709C70.3223 327.416 61.1206 317.572 61.1172 305.425V26.6923C61.1206 14.5464 70.3218 4.70255 81.67 4.7041H89.134C87.1014 10.054 103.506 11.7946 104.764 11.7963H156.597C161.993 11.789 175.011 5.95095 174.538 4.70411H182.876C194.219 4.70618 203.415 14.5468 203.42 26.688L203.42 26.6923Z" fill="white"/>
<path d="M194.737 281.312H70.7107C69.4428 281.311 68.4154 280.162 68.4141 278.746V244.364C68.4157 242.947 69.443 241.799 70.7107 241.797H194.737C196.005 241.799 197.032 242.947 197.034 244.364V278.746C197.032 280.163 196.005 281.311 194.737 281.313V281.312ZM70.7107 242.824C69.9498 242.825 69.3331 243.514 69.3325 244.364V278.746C69.3331 279.597 69.9498 280.286 70.7107 280.286H194.737C195.498 280.286 196.114 279.597 196.115 278.746V244.364C196.114 243.514 195.498 242.825 194.737 242.824H70.7107Z" fill="#E6E6E6"/>
<path d="M194.737 281.312H70.7107C69.4428 281.311 68.4154 280.162 68.4141 278.746V244.364C68.4157 242.947 69.443 241.799 70.7107 241.797H194.737C196.005 241.799 197.032 242.947 197.034 244.364V278.746C197.032 280.163 196.005 281.311 194.737 281.313V281.312ZM70.7107 242.824C69.9498 242.825 69.3331 243.514 69.3325 244.364V278.746C69.3331 279.597 69.9498 280.286 70.7107 280.286H194.737C195.498 280.286 196.114 279.597 196.115 278.746V244.364C196.114 243.514 195.498 242.825 194.737 242.824H70.7107Z" fill="#316AB3"/>
<path d="M95.5522 254.969C94.6712 254.969 93.957 255.811 93.957 256.85C93.957 257.889 94.6712 258.731 95.5522 258.731H170.749C171.63 258.771 172.371 257.962 172.405 256.923C172.438 255.885 171.752 255.011 170.871 254.971C170.848 254.97 170.825 254.97 170.801 254.97L95.5522 254.969Z" fill="#316AB3"/>
<path d="M95.5522 266.259C94.6712 266.259 93.957 267.101 93.957 268.14C93.957 269.179 94.6712 270.021 95.5522 270.021H170.749C171.63 270.061 172.371 269.252 172.405 268.213C172.438 267.175 171.752 266.301 170.871 266.261C170.848 266.26 170.825 266.26 170.801 266.26L95.5522 266.259Z" fill="#316AB3"/>
<path d="M373.024 334H0.976282C0.436765 334 0 333.754 0 333.452C0 333.15 0.437254 332.904 0.976282 332.904H373.024C373.563 332.904 374 333.15 374 333.452C374 333.754 373.563 334 373.024 334Z" fill="#E6E6E6"/>
<path d="M314.499 45.6961L290.215 44.2197L282.949 54.3463L265.449 60.637V110.538C267.27 115.37 268.211 120.426 268.238 125.519C268.17 135.46 265.281 147.171 266.281 149.737C276.064 174.819 329.865 149.737 329.865 149.737L328.887 122.924L330.215 62.3288L319.221 54.5755L314.499 45.6961Z" fill="#E6E6E6"/>
<path d="M269.708 59.2734L269.408 59.3162C263.727 60.128 258.887 63.2528 256.471 67.6678C253.364 73.3391 249.029 155.537 249.029 155.537C249.029 155.537 260.617 154.795 266.384 157.121C266.384 157.121 268.988 145.016 267.428 142.911C265.869 140.805 268.79 119.752 268.79 119.752C275.13 105.758 272.628 82.7269 269.708 59.2734Z" fill="#E6E6E6"/>
<path d="M347.434 166.972C347.413 171.935 344.358 175.949 340.611 175.938C336.863 175.927 333.842 171.894 333.863 166.931C333.873 164.758 334.463 162.767 335.439 161.216L335.841 140.186L347.546 140.555L345.907 161.248C346.87 162.805 347.444 164.799 347.434 166.972Z" fill="#FFB6B6"/>
<path d="M324.742 60.2139L325.035 60.2437C330.569 60.8149 335.425 63.7369 338.014 68.0535C341.34 73.6 350.016 144.209 349.738 145.498C349.461 146.787 350.284 155.734 350.284 155.734C350.284 155.734 339.044 155.486 333.606 158.062L329.12 120.741L324.742 60.2139Z" fill="#E6E6E6"/>
<path d="M53.3203 85.2793C52.5889 85.2793 51.9941 85.9078 51.9941 86.6808V97.8925C51.9941 98.6654 52.5889 99.294 53.3203 99.294C54.0518 99.294 54.6466 98.6654 54.6466 97.8925V86.6808C54.6466 85.9078 54.0518 85.2793 53.3203 85.2793Z" fill="#3F3D56"/>
<path d="M53.3203 118.915C52.5889 118.915 51.9941 119.543 51.9941 120.316V142.039C51.9941 142.812 52.5889 143.44 53.3203 143.44C54.0518 143.44 54.6466 142.812 54.6466 142.039V120.316C54.6466 119.543 54.0518 118.915 53.3203 118.915Z" fill="#3F3D56"/>
<path d="M53.3203 149.747C52.5889 149.747 51.9941 150.375 51.9941 151.148V172.871C51.9941 173.644 52.5889 174.272 53.3203 174.272C54.0518 174.272 54.6466 173.644 54.6466 172.871V151.148C54.6466 150.375 54.0518 149.747 53.3203 149.747Z" fill="#3F3D56"/>
<path d="M302.849 41.3973C313.429 41.3973 322.006 33.8151 322.006 24.4621C322.006 15.109 313.429 7.52686 302.849 7.52686C292.27 7.52686 283.693 15.109 283.693 24.4621C283.693 33.8151 292.27 41.3973 302.849 41.3973Z" fill="#FFB6B6"/>
<path d="M316.173 37.6338C318.8 35.8318 319.055 32.3972 321.296 30.2317C325.044 26.612 326.805 22.7167 324.842 18.4278C323.105 14.6342 323.475 9.97045 319.734 7.52866C321.571 6.94608 315.216 7.52942 317.176 5.24797C319.137 2.96652 315.425 3.8675 315.671 2.9334C315.916 1.99929 312.576 0.288325 310.405 2.15159C310.079 2.43176 309.794 2.74646 309.556 3.08845C307.347 0.18677 301.305 -0.946877 297.922 0.894244C294.602 2.70073 296.717 5.26091 293.147 4.72348C291.469 4.47057 287.847 4.26621 286.701 5.36967C285.624 6.56162 289.023 8.99273 287.296 8.8489C285.622 8.5719 281.337 13.3847 281.337 13.3847L279.747 11.676C277.222 13.119 278.051 16.8833 280.593 18.2999C281.549 18.8325 283.759 20.161 284.87 20.282C285.769 20.3799 286.517 16.6029 287.446 16.5185C288.421 16.4298 288.431 18.9879 289.366 18.7869C292.891 18.03 296.53 17.7665 300.148 18.0063C305.676 18.6905 309.525 24.4796 307.478 29.035C309.602 27.2074 313.53 28.7241 314.63 31.1478C315.73 33.5715 312.713 34.5113 311.898 37.02" fill="#2F2E41"/>
<path opacity="0.1" d="M95.5774 213.62C104.471 213.62 111.68 212.457 111.68 211.021C111.68 209.585 104.471 208.421 95.5774 208.421C86.6841 208.421 79.4746 209.585 79.4746 211.021C79.4746 212.457 86.6841 213.62 95.5774 213.62Z" fill="#34609D"/>
<path opacity="0.1" d="M170.637 213.56C181.734 213.56 190.73 212.396 190.73 210.96C190.73 209.525 181.734 208.361 170.637 208.361C159.539 208.361 150.543 209.525 150.543 210.96C150.543 212.396 159.539 213.56 170.637 213.56Z" fill="#34609D"/>
<path opacity="0.1" d="M173.247 141.947H168.547V146.671H173.247V141.947Z" fill="#34609D"/>
<path opacity="0.1" d="M173.247 153.599H168.547V158.323H173.247V153.599Z" fill="#34609D"/>
<path opacity="0.1" d="M173.247 165.249H168.547V169.973H173.247V165.249Z" fill="#34609D"/>
<path opacity="0.1" d="M173.247 176.901H168.547V181.625H173.247V176.901Z" fill="#34609D"/>
<path d="M111.148 146.743C111.148 146.743 110.497 146.652 110.497 145.699C110.497 144.745 110.031 142.965 110.031 142.965C110.031 142.956 109.628 139.863 109.071 139.372C108.514 138.88 107.799 135.993 107.799 135.993C107.799 135.993 107.676 134.427 107.427 134.09C107.177 133.753 106.84 132.927 106.343 131.749C105.845 130.572 103.771 129.756 103.771 129.756C103.771 129.756 100.022 127.57 98.959 126.858C98.8624 126.799 98.7722 126.731 98.6897 126.653C98.5046 126.409 97.6981 126.404 97.6981 126.404C97.6138 125.869 97.5329 125.255 97.5064 124.698C97.5064 124.639 97.5064 124.579 97.4981 124.519C98.683 123.815 99.5755 122.705 100.012 121.393C100.032 121.33 100.048 121.263 100.066 121.2C100.137 121.177 100.203 121.139 100.258 121.088C100.314 121.038 100.358 120.977 100.389 120.908C100.484 120.694 100.486 120.443 100.605 120.244C100.744 120.008 101.008 119.882 101.216 119.704C101.742 119.255 101.877 118.5 101.853 117.812C101.836 117.255 101.747 116.694 101.782 116.141L101.792 116.001C101.801 115.918 101.813 115.835 101.828 115.756C101.909 115.344 102.086 114.955 102.185 114.546C102.284 114.138 102.294 113.678 102.063 113.326C101.724 112.809 101.018 112.706 100.398 112.653C99.6961 112.593 99.0681 112.671 98.6186 112.085C98.4082 111.778 98.1715 111.491 97.9113 111.226C97.8187 111.14 96.9197 110.588 96.9197 110.552C96.0423 110.143 95.0478 110.067 94.1186 110.336C93.6526 110.472 93.213 110.694 92.7404 110.806C91.7207 111.048 90.5474 110.786 89.6814 111.372C89.1989 111.704 88.9097 112.233 88.6386 112.747C88.4183 113.172 88.1947 113.595 87.9677 114.018C87.6025 114.714 87.2306 115.422 87.077 116.192C87.0446 116.36 87.0248 116.53 87.0175 116.701V116.709C87.0175 116.77 87.0175 116.832 87.0175 116.893V116.971C87.0175 117.03 87.0175 117.086 87.0274 117.138C87.0373 117.189 87.0356 117.206 87.0406 117.241C87.0456 117.275 87.0538 117.353 87.0637 117.407C87.0737 117.46 87.0935 117.553 87.1133 117.626C87.1216 117.657 87.1331 117.687 87.1431 117.717C87.1596 117.774 87.1794 117.829 87.2009 117.883C87.2125 117.912 87.224 117.941 87.2373 117.97C87.262 118.028 87.2918 118.084 87.3215 118.136C87.3348 118.159 87.3447 118.181 87.3579 118.202C87.404 118.279 87.4548 118.354 87.5099 118.425C87.8636 118.868 88.3842 119.151 88.7692 119.566C88.7692 119.583 88.7692 119.599 88.7692 119.614C88.7692 119.661 88.7692 119.705 88.7692 119.752C88.7896 120.678 89.0349 121.585 89.4836 122.394C89.9323 123.203 90.571 123.89 91.3439 124.394C91.3439 124.458 91.3522 124.522 91.3555 124.585C91.3877 125.079 91.3816 125.573 91.3373 126.065C91.27 125.986 91.1858 125.922 91.0908 125.88C90.9959 125.837 90.8926 125.817 90.7887 125.82C90.7177 125.816 90.6465 125.822 90.5771 125.838L90.5623 125.826V125.841C90.1987 125.931 89.7508 126.311 89.3228 127.393C89.3228 127.393 88.0206 128.868 87.029 128.806C86.0375 128.745 83.5272 130.341 83.5272 130.341C83.5272 130.341 81.0781 131.939 80.5526 133.567C80.2588 134.49 79.9067 135.393 79.4982 136.271L76.4707 142.541L75.9121 147.516C75.9121 147.516 76.2211 149.728 76.16 150.065C76.0989 150.403 77.4308 153.444 77.4308 153.444C77.4308 153.444 81.8317 161.216 83.6297 161.614L83.7586 161.523C83.8355 161.563 83.9171 161.594 84.0015 161.614L84.3717 161.352C84.3939 161.644 84.3845 161.938 84.3436 162.229C84.0957 162.996 84.4361 168.004 84.8691 168.986C85.3021 169.968 85.1484 182.839 85.1484 182.839L85.0873 183.975C85.0873 183.975 85.0873 184.011 85.1021 184.074L85.0873 184.344L85.1319 184.367C85.1782 184.727 85.1631 185.093 85.0873 185.448C84.9319 185.946 84.8691 187.355 84.8691 187.355C84.8691 187.355 83.6313 195.308 84.218 196.906C84.8047 198.504 85.3037 200.254 85.3037 200.254C85.3037 200.254 85.9235 202.248 85.3335 202.588C84.7435 202.929 83.0661 203.5 83.4115 204.33C83.7255 205.098 84.917 207.154 85.0939 207.455L85.079 207.613L84.8361 210.259C84.8754 210.608 84.9697 210.949 85.1153 211.268C85.3814 211.845 85.8987 212.443 86.882 212.378C87.0472 212.366 87.2389 212.346 87.424 212.322C89.2237 212.079 91.4398 211.272 91.4398 211.272C91.3247 211.198 91.2192 211.111 91.1258 211.011C91.0373 210.925 90.9672 210.822 90.9198 210.707C90.8723 210.593 90.8485 210.47 90.8498 210.347C90.8762 209.865 89.9789 207.569 89.7558 207.005C89.7211 206.923 89.7029 206.877 89.7029 206.877C89.7029 206.877 91.7488 204.727 91.4084 202.822C91.4084 202.822 89.1443 201.493 89.8897 200.764C90.635 200.035 91.9669 197.941 91.9669 197.941C91.9669 197.941 92.0281 190.109 91.9669 188.94C91.9032 188.128 91.9415 187.311 92.081 186.509C92.1058 186.388 92.1355 186.27 92.1669 186.154C93.1977 186.309 94.2382 186.388 95.2804 186.392C95.6605 186.392 96.0472 186.392 96.4372 186.368C96.4372 186.479 96.4421 186.599 96.4521 186.727C96.538 188.667 96.6983 192.069 96.8288 193.333C97.0139 195.145 98.0369 200.028 98.0369 200.028C98.0369 200.028 96.0852 201.287 98.3773 204.39C98.3773 204.39 98.3773 205.515 98.2253 205.678C98.063 206.21 97.9322 206.751 97.8336 207.299C97.7378 207.883 97.6981 208.475 97.8535 208.782C98.2253 209.516 100.456 209.456 100.456 209.456L100.511 209.446C100.932 209.403 101.358 209.443 101.763 209.566C102.168 209.689 102.545 209.892 102.872 210.162C103.72 210.847 106.938 210.546 108.68 210.328C109.362 210.242 109.818 210.162 109.818 210.162C109.84 210.085 109.848 210.004 109.841 209.923C109.823 209.493 109.488 208.549 107.214 207.707C107.214 207.707 105.075 206.262 105.105 205.003H105.06H104.812C104.993 204.993 105.108 205.003 105.108 205.003C105.108 205.003 104.27 201.93 104.613 201.681C104.955 201.432 103.93 198.027 103.93 198.027C103.93 198.027 103.343 192.313 103.312 191.913C103.313 191.569 103.365 191.228 103.466 190.9L103.312 187.767C103.312 187.767 103.282 186.725 103.312 186.387C103.307 186.092 103.283 185.799 103.241 185.508C103.226 185.392 103.211 185.27 103.195 185.151C103.996 184.946 104.517 184.757 104.517 184.757L104.424 173.853C105.105 172.524 105.231 169.609 105.227 167.541C105.227 166.212 105.168 165.229 105.168 165.229L106.098 163.702C106.098 163.702 106.313 161.875 105.973 161.475C105.822 161.294 105.89 161.106 106.014 160.952C106.078 160.9 106.146 160.854 106.217 160.812C106.217 160.812 106.207 160.797 106.196 160.776C106.261 160.721 106.33 160.672 106.402 160.628C106.402 160.628 106.072 160.113 106.368 159.895C106.645 160.085 106.893 160.227 107.081 160.344C107.068 160.465 107.055 160.535 107.055 160.535L107.134 160.369C107.316 160.472 107.427 160.535 107.427 160.535C107.427 160.535 108.884 157.616 108.853 157.186C108.822 156.756 109.845 154.944 109.845 154.944C109.845 154.944 109.969 153.992 110.527 153.593C111.086 153.195 110.96 150.306 110.96 150.306C110.96 150.306 111.115 148.801 111.487 148.187C111.859 147.572 111.148 146.743 111.148 146.743ZM83.2595 145.463L83.2876 146.159C83.1223 145.891 83.0033 145.699 83.0033 145.699L83.2595 145.463Z" fill="url(#paint0_linear_2826_78537)"/>
<path d="M107.507 159.274L107.15 160.802C107.15 160.802 104.291 159.335 103.776 157.472C103.26 155.608 104.638 154.9 104.638 154.9L107.302 156.035L107.507 159.274Z" fill="white"/>
<path opacity="0.1" d="M107.507 159.274L107.15 160.802C107.15 160.802 104.291 159.335 103.776 157.472C103.26 155.608 104.638 154.9 104.638 154.9L107.302 156.035L107.507 159.274Z" fill="black"/>
<path d="M91.4604 211.282C91.4604 211.282 88.8163 212.258 86.9984 212.381C86.0333 212.446 85.526 211.851 85.2649 211.278C85.1222 210.96 85.0302 210.621 84.9922 210.273L85.2285 207.641L85.3541 206.239L89.2162 205.23L89.7632 206.911L89.8144 207.039C90.0342 207.601 90.915 209.885 90.8886 210.361C90.8875 210.483 90.911 210.604 90.9575 210.717C91.0041 210.83 91.0728 210.932 91.1596 211.017C91.2483 211.118 91.3494 211.207 91.4604 211.282Z" fill="white"/>
<path d="M109.524 209.943C109.531 210.023 109.523 210.103 109.501 210.18C109.501 210.18 103.846 211.129 102.689 210.18C102.363 209.903 101.983 209.698 101.573 209.577C101.163 209.456 100.732 209.423 100.309 209.479C100.309 209.479 98.1211 209.539 97.7559 208.815C97.6039 208.511 97.6435 207.921 97.7377 207.34C97.8338 206.795 97.9618 206.257 98.1211 205.727L98.2087 205.657L98.7293 205.237L104.824 205.056H104.87C104.841 206.309 106.939 207.745 106.939 207.745C109.169 208.576 109.498 209.514 109.524 209.943Z" fill="white"/>
<path opacity="0.1" d="M109.523 209.943C109.529 210.023 109.52 210.103 109.498 210.18C109.498 210.18 103.845 211.129 102.688 210.18C102.362 209.903 101.982 209.698 101.573 209.577C101.163 209.457 100.733 209.423 100.31 209.479C100.31 209.479 98.1202 209.539 97.7567 208.815C97.6046 208.509 97.6426 207.921 97.7368 207.34C98.5797 207.425 99.91 207.636 100.432 208.139C101.222 208.905 102.561 209.669 103.382 209.728C104.025 209.77 107.87 209.893 109.523 209.943Z" fill="black"/>
<path opacity="0.1" d="M92.565 213.364C92.565 213.364 89.9208 214.34 88.103 214.463C87.1379 214.528 86.6305 213.933 86.3711 213.359C87.0437 213.586 87.9774 213.825 88.4682 213.606C89.0499 213.347 91.1124 213.179 92.2692 213.108C92.3572 213.205 92.4565 213.291 92.565 213.364Z" fill="black"/>
<path d="M95.3846 132.575C93.2032 131.723 90.3971 128.907 91.0978 127.592C91.2534 127.26 91.3459 126.902 91.3705 126.536C91.4156 126.038 91.4222 125.539 91.3903 125.041C91.3412 124.225 91.2435 123.413 91.0978 122.609C91.0978 122.609 97.9081 122.763 97.5115 123.772C97.3958 124.067 97.3776 124.58 97.409 125.155C97.4404 125.73 97.5231 126.379 97.609 126.929C97.728 127.683 97.847 128.258 97.847 128.258C97.847 128.258 97.4305 128.844 97.1859 128.876C96.9414 128.907 98.5146 133.789 95.3846 132.575Z" fill="#CF6F80"/>
<path opacity="0.1" d="M89.8105 207.039L89.7593 207.096C87.7233 204.621 85.261 207.705 85.261 207.705L85.2246 207.641L85.3502 206.239L89.2123 205.23L89.7593 206.911L89.8105 207.039Z" fill="black"/>
<path opacity="0.1" d="M104.871 205.231C104.871 205.231 103.383 205.199 102.59 205.904C101.797 206.608 97.963 206.056 98.1282 205.904C98.1772 205.828 98.2067 205.741 98.2142 205.651L98.7347 205.231L104.829 205.05C104.853 205.161 104.871 205.231 104.871 205.231Z" fill="black"/>
<path d="M92.3424 185.795C92.2316 186.07 92.1475 186.356 92.0912 186.647C91.9534 187.445 91.9151 188.258 91.9772 189.066C92.0383 190.228 91.9772 198.02 91.9772 198.02C91.9772 198.02 90.67 200.098 89.9412 200.831C89.2124 201.563 91.4285 202.879 91.4285 202.879C91.7591 204.772 89.7561 206.912 89.7561 206.912C87.7201 204.437 85.2578 207.523 85.2578 207.523C85.2578 207.523 83.9192 205.197 83.5854 204.367C83.2516 203.536 84.8926 202.962 85.4693 202.624C86.0461 202.287 85.4412 200.299 85.4412 200.299C85.4412 200.299 84.9537 198.557 84.3753 196.967C83.7969 195.377 85.0132 187.464 85.0132 187.464C85.0132 187.464 85.076 186.059 85.2264 185.569C85.3023 185.216 85.3174 184.852 85.271 184.493C85.2611 184.372 85.2495 184.27 85.2413 184.202C85.233 184.134 85.2264 184.103 85.2264 184.103L85.2495 184.063L86.0758 182.515C86.0758 182.515 92.739 184.82 92.3424 185.795Z" fill="#34609D"/>
<path d="M104.868 205.048C104.868 205.048 103.381 205.016 102.587 205.712C101.794 206.408 97.9601 205.865 98.1254 205.712C98.2906 205.56 98.2774 204.428 98.2774 204.428C96.0283 201.342 97.9469 200.09 97.9469 200.09C97.9469 200.09 96.9421 195.231 96.7604 193.429C96.6331 192.17 96.4761 188.787 96.3918 186.855C96.3555 186.024 96.334 185.453 96.334 185.453L98.1717 185.081L98.408 185.033L102.84 184.139C102.84 184.139 102.962 184.97 103.045 185.649C103.086 185.939 103.109 186.231 103.115 186.524C103.085 186.857 103.115 187.896 103.115 187.896L103.265 191.014C103.167 191.341 103.116 191.681 103.115 192.022C103.144 192.419 103.721 198.103 103.721 198.103C103.721 198.103 104.724 201.495 104.382 201.739C104.04 201.983 104.868 205.048 104.868 205.048Z" fill="#34609D"/>
<path opacity="0.1" d="M97.5113 123.772C97.3956 124.067 97.3775 124.58 97.4089 125.155C96.4967 125.707 95.448 125.99 94.3833 125.97C93.3187 125.95 92.2812 125.628 91.3902 125.042C91.3411 124.226 91.2434 123.413 91.0977 122.609C91.0977 122.609 97.9079 122.76 97.5113 123.772Z" fill="black"/>
<path d="M100.144 120.101C100.145 120.699 100.051 121.294 99.8661 121.863C99.4521 123.138 98.6031 124.224 97.4691 124.931C96.3352 125.637 94.9894 125.918 93.6695 125.723C92.3496 125.528 91.1406 124.871 90.2563 123.867C89.372 122.863 88.8692 121.578 88.8368 120.237C88.8368 120.191 88.8368 120.147 88.8368 120.101C88.8239 119.346 88.9607 118.597 89.2391 117.896C89.5175 117.195 89.9319 116.557 90.4583 116.019C90.9846 115.481 91.6122 115.054 92.3046 114.762C92.997 114.47 93.7403 114.32 94.4911 114.32C95.2419 114.32 95.9851 114.47 96.6775 114.762C97.3699 115.054 97.9976 115.481 98.5239 116.019C99.0502 116.557 99.4647 117.195 99.7431 117.896C100.021 118.597 100.158 119.346 100.145 120.101H100.144Z" fill="#CF6F80"/>
<path opacity="0.1" d="M95.3846 132.575C93.2032 131.723 90.3971 128.908 91.0978 127.592C91.2534 127.26 91.3459 126.902 91.3705 126.536L94.3567 129.002L96.2043 130.525L97.609 126.931C97.728 127.685 97.847 128.26 97.847 128.26C97.847 128.26 97.4305 128.846 97.1859 128.878C96.9414 128.909 98.5146 133.789 95.3846 132.575Z" fill="black"/>
<path d="M103.107 143.476L100.613 185.583L97.361 185.797L88.9395 161.382L90.321 132.396L90.6119 126.271L94.3566 129.363L96.2059 130.886L97.6519 127.187L100.341 129.542L103.107 143.476Z" fill="#34609D"/>
<path opacity="0.1" d="M92.3448 185.795C92.2341 186.07 92.1499 186.356 92.0936 186.647C89.7271 186.28 87.4287 185.558 85.2751 184.506L85.2305 184.483L85.2453 184.215L85.2536 184.076L86.0799 182.528C86.0799 182.528 92.7415 184.82 92.3448 185.795Z" fill="black"/>
<path opacity="0.1" d="M98.2137 186.654C97.6088 186.757 96.9986 186.827 96.386 186.863C96.3496 186.033 96.3281 185.461 96.3281 185.461L98.1658 185.089L98.2137 186.654Z" fill="black"/>
<path opacity="0.1" d="M103.038 185.657C101.863 185.965 100.048 186.31 98.4235 186.094L98.4004 185.041L102.833 184.147C102.833 184.147 102.955 184.97 103.038 185.657Z" fill="black"/>
<path opacity="0.1" d="M98.3922 186.287C91.6166 187.45 85.4112 184.116 85.4112 184.116L85.4707 182.986C85.4707 182.986 85.6244 170.182 85.198 169.2C84.7716 168.218 84.4395 163.24 84.6808 162.476C84.922 161.712 83.7999 150.255 83.7999 150.255L83.6181 145.604L76.9648 142.895L79.9395 136.663C80.3413 135.789 80.6868 134.89 80.974 133.972C81.4913 132.354 83.8925 130.764 83.8925 130.764C83.8925 130.764 86.3548 129.176 87.3282 129.236C88.3016 129.296 89.5774 127.831 89.5774 127.831C90.5193 125.418 91.3721 126.511 91.3721 126.511C91.3721 126.625 91.3721 126.511 91.3258 126.868C90.9953 129.517 96.6702 137.888 96.7512 138.036L97.2916 151.268L97.8386 168.012L98.3922 186.287Z" fill="black"/>
<path d="M98.2116 186.287C91.4361 187.45 85.229 184.116 85.229 184.116L85.2901 182.987C85.2901 182.987 85.4438 170.182 85.0158 169.2C84.5877 168.219 84.2572 163.241 84.5002 162.477C84.7431 161.712 83.6193 150.255 83.6193 150.255L83.4359 145.604L76.7793 142.885L79.7539 136.653C80.1549 135.779 80.5004 134.88 80.7885 133.962C81.3041 132.344 83.7069 130.755 83.7069 130.755C83.7069 130.755 86.1693 129.167 87.141 129.226C88.1127 129.286 89.3902 127.821 89.3902 127.821C90.3338 125.408 91.3733 126.501 91.3733 126.501C91.3733 126.615 91.2741 126.667 91.327 126.858C92.0541 129.427 96.4897 137.879 96.5706 138.026L97.1176 151.258L97.6646 168.003L98.2116 186.287Z" fill="white"/>
<path opacity="0.1" d="M96.3863 138.404C95.6576 138.098 91.7971 133.668 91.7971 133.668V132.66C91.6566 132.328 90.8221 132.53 90.1445 132.763L90.4354 126.639L90.7659 126.914C91.4897 129.482 96.3021 138.256 96.3863 138.404Z" fill="black"/>
<path d="M96.5696 138.036C95.8392 137.731 91.9788 133.301 91.9788 133.301V132.293C91.8383 131.96 91.0037 132.163 90.3262 132.396L90.6187 126.271L90.9492 126.547C91.6747 129.115 96.4887 137.89 96.5696 138.036Z" fill="white"/>
<path opacity="0.1" d="M85.4128 160.129C85.5037 160.129 90.1244 159.641 90.1244 159.641C90.1244 159.641 92.9222 165.171 92.7387 166.516C92.5553 167.861 92.2231 169.052 91.0977 168.841C89.9723 168.63 85.041 169.008 85.041 169.008L85.4128 160.129Z" fill="black"/>
<path d="M85.2293 159.762C85.3201 159.762 89.9408 159.274 89.9408 159.274C89.9408 159.274 92.7369 164.805 92.5552 166.149C92.3734 167.493 92.0379 168.685 90.9141 168.474C89.7904 168.263 84.8574 168.64 84.8574 168.64L85.2293 159.762Z" fill="white"/>
<path d="M88.7104 157.166C88.7104 157.166 92.9509 159.457 93.0418 160.156C93.1327 160.855 90.8835 159.85 90.3977 159.729C90.0779 159.651 89.7524 159.6 89.4243 159.576L86.1836 159.664L88.7104 157.166Z" fill="#CF6F80"/>
<path opacity="0.1" d="M95.2021 138.689C95.4485 138.689 95.6483 138.488 95.6483 138.24C95.6483 137.993 95.4485 137.792 95.2021 137.792C94.9556 137.792 94.7559 137.993 94.7559 138.24C94.7559 138.488 94.9556 138.689 95.2021 138.689Z" fill="black"/>
<path d="M95.2021 138.506C95.4485 138.506 95.6483 138.306 95.6483 138.058C95.6483 137.81 95.4485 137.609 95.2021 137.609C94.9556 137.609 94.7559 137.81 94.7559 138.058C94.7559 138.306 94.9556 138.506 95.2021 138.506Z" fill="#3F3D56"/>
<path opacity="0.1" d="M96.0243 158.103C96.2707 158.103 96.4705 157.902 96.4705 157.655C96.4705 157.407 96.2707 157.206 96.0243 157.206C95.7779 157.206 95.5781 157.407 95.5781 157.655C95.5781 157.902 95.7779 158.103 96.0243 158.103Z" fill="black"/>
<path d="M96.0243 157.918C96.2707 157.918 96.4705 157.718 96.4705 157.47C96.4705 157.222 96.2707 157.021 96.0243 157.021C95.7779 157.021 95.5781 157.222 95.5781 157.47C95.5781 157.718 95.7779 157.918 96.0243 157.918Z" fill="#3F3D56"/>
<path opacity="0.1" d="M95.6474 148.396C95.8938 148.396 96.0936 148.195 96.0936 147.947C96.0936 147.7 95.8938 147.499 95.6474 147.499C95.4009 147.499 95.2012 147.7 95.2012 147.947C95.2012 148.195 95.4009 148.396 95.6474 148.396Z" fill="black"/>
<path d="M95.6474 148.213C95.8938 148.213 96.0936 148.013 96.0936 147.765C96.0936 147.517 95.8938 147.316 95.6474 147.316C95.4009 147.316 95.2012 147.517 95.2012 147.765C95.2012 148.013 95.4009 148.213 95.6474 148.213Z" fill="#3F3D56"/>
<path d="M105.931 159.483C105.931 159.483 106.235 159.941 105.931 160.156C105.627 160.37 105.961 160.888 105.961 160.888C105.961 160.888 105.202 161.335 105.536 161.737C105.87 162.139 105.659 163.954 105.659 163.954L104.746 165.473C104.746 165.473 104.801 166.451 104.804 167.773C104.804 169.836 104.683 172.736 104.016 174.058L104.108 184.906C104.108 184.906 100.914 186.079 98.2401 185.722L97.8434 168.315C97.8434 168.315 98.4218 158.443 98.635 156.55C98.7598 155.567 98.8106 154.576 98.7871 153.585C98.7871 153.585 98.6962 150.622 98.3904 149.246C98.3904 149.246 98.0599 143.288 98.0269 141.639C98.012 140.85 98.0533 138.548 98.0996 136.359C98.1508 133.965 98.2087 131.708 98.2087 131.708L97.6055 126.911C97.6055 126.911 98.2087 126.849 98.3904 127.093C98.4719 127.17 98.5604 127.238 98.6549 127.298C99.696 128.005 103.375 130.181 103.375 130.181C103.375 130.181 105.411 130.995 105.898 132.161C106.386 133.327 106.724 134.154 106.961 134.487C107.197 134.819 107.326 136.38 107.326 136.38C107.326 136.38 108.027 139.254 108.574 139.74C109.121 140.227 109.521 143.323 109.521 143.323L104.687 147.143C104.687 147.143 104.262 153.498 104.171 153.744C104.08 153.99 105.931 159.483 105.931 159.483Z" fill="white"/>
<path d="M106.116 159.483C106.116 159.483 106.419 159.942 106.116 160.156C105.814 160.37 106.145 160.888 106.145 160.888C106.145 160.888 105.391 161.34 105.721 161.742C106.052 162.144 105.844 163.96 105.844 163.96L104.932 165.478C104.932 165.478 104.986 166.456 104.991 167.778C104.991 169.841 104.87 172.741 104.203 174.064L104.294 184.912C104.294 184.912 101.094 186.084 98.4236 185.727L98.0287 168.32C98.0287 168.32 98.6071 158.448 98.8203 156.555C98.9452 155.572 98.9954 154.581 98.9707 153.59C98.9707 153.59 98.8798 150.627 98.5757 149.251C98.5757 149.251 98.2452 143.293 98.2105 141.644C98.1956 140.855 98.2386 138.553 98.2832 136.364C98.3344 133.97 98.3922 131.713 98.3922 131.713L97.5957 126.851C97.5957 126.851 98.3923 126.851 98.5757 127.099C98.6564 127.176 98.745 127.244 98.8401 127.303C99.8812 128.01 103.562 130.186 103.562 130.186C103.562 130.186 105.596 131 106.083 132.166C106.571 133.332 106.91 134.16 107.148 134.492C107.386 134.824 107.511 136.385 107.511 136.385C107.511 136.385 108.212 139.259 108.759 139.745C109.306 140.232 109.701 143.322 109.701 143.322L104.867 147.142C104.867 147.142 104.442 153.497 104.35 153.743C104.257 153.989 106.116 159.483 106.116 159.483Z" fill="white"/>
<path opacity="0.1" d="M100.326 133.123L100.762 134.402L98.4648 136.727C98.516 134.336 98.5739 132.077 98.5739 132.077L97.7773 127.215C97.7773 127.215 98.5739 127.215 98.7573 127.462C98.8378 127.539 98.9264 127.607 99.0217 127.665L100.975 133.329L100.326 133.123Z" fill="black"/>
<path d="M100.144 132.756L100.582 134.035L98.2848 136.36C98.3361 133.967 98.3939 131.709 98.3939 131.709L97.5957 126.848C97.5957 126.848 98.3939 126.848 98.5757 127.095C98.6567 127.172 98.7453 127.24 98.8401 127.299L100.795 132.962L100.144 132.756Z" fill="white"/>
<path opacity="0.1" d="M100.144 120.101C100.145 120.699 100.051 121.294 99.8661 121.863C99.8349 121.868 99.803 121.867 99.7723 121.859C99.7417 121.851 99.7129 121.838 99.6876 121.818C99.6447 120.324 98.9126 118.92 98.0119 117.726C97.759 117.365 97.4525 117.046 97.103 116.779C96.7496 116.512 96.3102 116.387 95.8702 116.428C95.3744 116.497 94.9364 116.835 94.4357 116.879C93.7747 116.933 93.1831 116.473 92.527 116.45C92.2603 116.453 91.9972 116.512 91.7552 116.625C91.5133 116.738 91.2981 116.901 91.1239 117.104C90.7793 117.514 90.5232 117.992 90.372 118.506C90.1122 119.287 89.9707 120.102 89.9523 120.925C89.944 121.39 89.8994 121.973 89.4697 122.142C89.5021 121.8 89.4634 121.455 89.3561 121.129C89.2489 120.803 89.0754 120.502 88.8467 120.247L88.8368 120.237C88.8368 120.191 88.8368 120.147 88.8368 120.101C88.8239 119.346 88.9607 118.597 89.2391 117.896C89.5175 117.195 89.9319 116.557 90.4583 116.019C90.9846 115.481 91.6122 115.054 92.3046 114.762C92.997 114.47 93.7403 114.32 94.4911 114.32C95.2419 114.32 95.9851 114.47 96.6775 114.762C97.3699 115.054 97.9976 115.481 98.5239 116.019C99.0502 116.557 99.4647 117.195 99.7431 117.896C100.021 118.597 100.158 119.346 100.145 120.101H100.144Z" fill="black"/>
<path d="M96.8318 111.076C95.973 110.67 94.9963 110.594 94.0852 110.86C93.6274 110.997 93.1961 111.218 92.7317 111.329C91.7402 111.57 90.5833 111.309 89.7323 111.892C89.2596 112.224 88.9754 112.749 88.711 113.259L88.0499 114.525C87.6897 115.217 87.3261 115.921 87.1757 116.684C87.0253 117.446 87.1162 118.3 87.5971 118.913C87.9475 119.36 88.4647 119.64 88.8448 120.061C89.0725 120.316 89.2453 120.616 89.3522 120.942C89.4591 121.268 89.4979 121.613 89.4662 121.954C89.8975 121.788 89.9388 121.203 89.9488 120.738C89.9672 119.916 90.1087 119.1 90.3685 118.32C90.5193 117.805 90.7754 117.328 91.1204 116.918C91.2947 116.715 91.5099 116.552 91.7518 116.439C91.9938 116.326 92.2568 116.266 92.5235 116.264C93.1845 116.287 93.7778 116.745 94.4322 116.691C94.928 116.649 95.3676 116.308 95.8667 116.242C96.3067 116.2 96.7464 116.325 97.0995 116.593C97.4489 116.859 97.7549 117.178 98.0067 117.539C98.9091 118.734 99.6412 120.134 99.6841 121.632C99.8709 121.77 100.14 121.59 100.233 121.378C100.325 121.165 100.329 120.916 100.446 120.713C100.581 120.479 100.841 120.355 101.044 120.179C101.56 119.732 101.689 118.979 101.669 118.297C101.649 117.614 101.517 116.921 101.646 116.25C101.723 115.838 101.899 115.453 101.994 115.046C102.09 114.639 102.102 114.182 101.875 113.832C101.545 113.317 100.849 113.216 100.243 113.168C99.5536 113.108 98.9372 113.184 98.4976 112.601C98.2912 112.297 98.059 112.011 97.8035 111.747C97.7159 111.661 96.8318 111.113 96.8318 111.076Z" fill="#512E4E"/>
<path opacity="0.1" d="M78.8677 146.104L77.1408 142.895L76.5938 147.846C76.5938 147.846 76.8978 150.046 76.8367 150.383C76.7755 150.72 78.0827 153.743 78.0827 153.743C78.0827 153.743 82.4009 161.473 84.1642 161.872L90.1218 157.593L88.5419 155.577C88.5419 155.577 87.9949 155.363 87.8578 155.577C87.8578 155.577 84.9244 150.504 84.6203 150.137C84.3163 149.77 84.3758 149.037 84.3758 149.037C84.3758 149.037 83.9197 148.549 84.0717 148.091C84.2237 147.632 83.1909 146.043 83.1909 146.043L84.1328 145.157L78.8677 146.104Z" fill="black"/>
<path d="M77.2336 142.529L76.7775 142.895L76.2305 147.846C76.2305 147.846 76.5345 150.045 76.4734 150.383C76.4123 150.72 77.7211 153.743 77.7211 153.743C77.7211 153.743 82.0376 161.473 83.8009 161.872L89.7602 157.593L88.1786 155.577C88.1786 155.577 87.6316 155.362 87.4945 155.577C87.4945 155.577 84.5611 150.504 84.2571 150.137C83.953 149.77 84.0141 149.037 84.0141 149.037C84.0141 149.037 83.558 148.549 83.7101 148.09C83.8621 147.632 82.8276 146.042 82.8276 146.042L83.7696 145.157L77.2336 142.529Z" fill="white"/>
<path opacity="0.1" d="M105.538 161.927C105.868 162.33 105.66 164.142 105.66 164.142L104.748 165.66C104.748 165.66 104.802 166.64 104.805 167.961L103.272 168.443C103.133 168.486 102.986 168.496 102.843 168.471C102.7 168.445 102.565 168.386 102.45 168.298C102.334 168.21 102.241 168.095 102.179 167.963C102.116 167.831 102.086 167.687 102.09 167.541L102.355 158.968L105.933 160.344C105.628 160.556 105.962 161.078 105.962 161.078C105.962 161.078 105.204 161.523 105.538 161.927Z" fill="black"/>
<path d="M105.723 161.742C106.053 162.146 105.845 163.96 105.845 163.96L104.933 165.478C104.933 165.478 104.987 166.456 104.992 167.778L103.431 168.268C103.295 168.311 103.151 168.32 103.011 168.295C102.871 168.27 102.739 168.212 102.626 168.126C102.513 168.039 102.422 167.927 102.36 167.798C102.299 167.669 102.27 167.527 102.274 167.385L102.54 158.786L106.119 160.161C105.814 160.374 106.148 160.893 106.148 160.893C106.148 160.893 105.392 161.34 105.723 161.742Z" fill="white"/>
<path d="M106.907 157.656C106.907 157.656 106.664 159.216 106.056 159.307C105.448 159.399 105.175 161.83 104.569 161.744C103.962 161.658 104.364 159.483 104.385 159.062C104.407 158.64 103.724 156.892 104.235 156.495C104.746 156.098 106.362 156.495 106.362 156.495L106.907 157.656Z" fill="#CF6F80"/>
<path opacity="0.1" d="M108.2 145.645L109.347 143.32C109.347 143.32 109.803 145.092 109.803 146.039C109.803 146.986 110.441 147.079 110.441 147.079C110.441 147.079 111.14 147.909 110.772 148.514C110.403 149.118 110.254 150.623 110.254 150.623C110.254 150.623 110.375 153.495 109.828 153.892C109.281 154.289 109.167 155.238 109.167 155.238C109.167 155.238 108.162 157.04 108.194 157.468C108.225 157.897 106.795 160.799 106.795 160.799C106.795 160.799 107.494 157.193 103.421 155.635C103.421 155.635 103.389 154.41 103.694 154.075C103.998 153.739 104.472 153.587 104.174 151.891C103.877 150.195 104.088 148.168 104.088 147.761C104.088 147.354 105.001 144.816 105.001 144.816L108.2 145.645Z" fill="black"/>
<path d="M108.694 142.988L109.696 143.32C109.696 143.32 110.153 145.092 110.153 146.039C110.153 146.986 110.791 147.079 110.791 147.079C110.791 147.079 111.49 147.909 111.122 148.514C110.753 149.119 110.606 150.623 110.606 150.623C110.606 150.623 110.727 153.495 110.18 153.892C109.633 154.289 109.51 155.238 109.51 155.238C109.51 155.238 108.507 157.04 108.539 157.468C108.57 157.897 107.139 160.799 107.139 160.799C107.139 160.799 107.84 157.193 103.764 155.635C103.764 155.635 103.735 154.411 104.039 154.075C104.343 153.739 104.817 153.587 104.52 151.891C104.222 150.195 104.434 148.168 104.434 147.762C104.434 147.355 105.346 144.817 105.346 144.817L108.694 142.988Z" fill="white"/>
<path opacity="0.1" d="M86.5742 203.261C86.5742 203.261 88.1706 202.253 89.2184 202.985C90.2661 203.718 86.5742 203.261 86.5742 203.261Z" fill="black"/>
<path opacity="0.1" d="M98.9805 200.143C98.9805 200.143 100.393 199.96 101.58 201.244C102.767 202.528 98.9805 200.143 98.9805 200.143Z" fill="black"/>
<g opacity="0.1">
<path d="M101.045 119.815C100.842 119.991 100.581 120.117 100.446 120.351C100.33 120.552 100.327 120.8 100.234 121.016C100.141 121.232 99.8721 121.408 99.6853 121.272C99.6424 119.777 98.9086 118.373 98.0079 117.177C97.7561 116.816 97.4501 116.497 97.1007 116.23C96.747 115.963 96.3068 115.838 95.8662 115.88C95.3704 115.948 94.9341 116.287 94.4334 116.328C93.7724 116.385 93.1791 115.925 92.523 115.902C92.2564 115.904 91.9934 115.964 91.7517 116.077C91.51 116.19 91.2952 116.354 91.1216 116.558C90.7766 116.967 90.5205 117.444 90.3697 117.958C90.11 118.738 89.9685 119.554 89.95 120.376C89.94 120.84 89.8971 121.418 89.4707 121.591C89.4806 121.713 89.4806 121.837 89.4707 121.959C89.9004 121.793 89.9433 121.208 89.9533 120.743C89.9717 119.921 90.1132 119.105 90.373 118.325C90.5238 117.81 90.78 117.333 91.1249 116.923C91.2989 116.72 91.5138 116.557 91.7555 116.444C91.9971 116.331 92.2599 116.271 92.5263 116.269C93.1874 116.292 93.7823 116.75 94.4367 116.696C94.9325 116.654 95.3721 116.313 95.8695 116.247C96.3101 116.205 96.7503 116.33 97.104 116.598C97.4534 116.864 97.7594 117.183 98.0113 117.544C98.9119 118.739 99.6457 120.139 99.6886 121.637C99.8754 121.775 100.145 121.595 100.237 121.383C100.33 121.17 100.333 120.921 100.449 120.718C100.584 120.484 100.845 120.36 101.049 120.184C101.564 119.737 101.693 118.984 101.673 118.302C101.673 118.28 101.673 118.259 101.673 118.239C101.642 118.83 101.485 119.433 101.045 119.815Z" fill="black"/>
<path d="M88.8471 119.697C88.467 119.277 87.9481 118.996 87.5994 118.551C87.3058 118.157 87.1381 117.682 87.1185 117.19C87.0665 117.805 87.2373 118.418 87.5994 118.916C87.9481 119.363 88.467 119.644 88.8471 120.064C89.2121 120.475 89.4312 120.996 89.4702 121.546C89.4955 121.211 89.4533 120.875 89.3463 120.557C89.2392 120.24 89.0694 119.947 88.8471 119.697Z" fill="black"/>
<path d="M101.998 114.682C101.9 115.089 101.727 115.476 101.647 115.887C101.6 116.161 101.583 116.439 101.596 116.717C101.601 116.559 101.619 116.401 101.647 116.245C101.727 115.833 101.9 115.448 101.998 115.041C102.054 114.817 102.073 114.584 102.052 114.354C102.042 114.464 102.024 114.574 101.998 114.682Z" fill="black"/>
</g>
<path d="M187.594 161.899C187.594 161.899 184.866 148.256 185.91 146.558C185.91 146.558 185.949 144.98 185.886 142.969C185.886 142.892 185.886 142.816 185.886 142.738C186.069 142.861 186.261 142.972 186.459 143.07C187.421 143.567 188.526 143.71 189.583 143.475L188.756 142.55C188.558 142.329 188.351 142.09 188.308 141.798C188.265 141.505 188.384 141.244 188.487 140.984C189.272 138.99 189.313 136.484 187.801 134.962C186.524 133.684 186.213 132.032 184.826 130.865C183.813 130.009 183.256 128.755 182.731 127.543C182.286 126.518 181.839 125.485 181.584 124.398C181.386 123.55 181.306 122.671 181.034 121.842C180.761 121.013 180.25 120.208 179.452 119.837C179.168 119.706 178.852 119.631 178.593 119.457C178.252 119.226 178.048 118.851 177.801 118.522C176.55 116.861 172.361 117.839 170.378 118.514C169.839 118.683 169.34 118.961 168.91 119.331L168.929 119.301C168.943 119.276 168.962 119.251 168.978 119.226C168.761 119.403 168.574 119.613 168.423 119.849C168.134 120.309 168.013 120.846 167.772 121.344C167.481 121.934 165.863 123.58 166.559 124.242C166.608 124.287 166.663 124.323 166.724 124.349C166.985 124.458 167.273 124.487 167.55 124.432L167.521 124.503C167.283 125.088 167.161 125.714 167.162 126.345C167.162 129.074 169.401 131.287 172.166 131.287C172.686 131.287 173.202 131.207 173.698 131.049C173.709 131.112 173.719 131.175 173.731 131.239C173.731 131.263 173.739 131.288 173.743 131.313L173.655 131.436C173.651 131.429 173.646 131.421 173.64 131.415L171.046 135.059C170.649 135.34 168.365 137.001 168.236 138.246C168.101 139.61 167.965 141.206 167.965 141.206L167.947 141.548C167.834 141.644 167.701 141.713 167.558 141.752C167.416 141.79 167.266 141.798 167.121 141.773C166.311 141.64 166.311 144.762 166.311 144.762C166.311 144.762 165.772 145.261 165.402 144.829C165.032 144.397 164.053 145.86 164.053 145.86L157.922 146.126L157.782 146.134L157.451 145.106C157.416 144.998 157.339 144.908 157.238 144.856C157.137 144.804 157.019 144.794 156.911 144.829C156.885 144.837 156.861 144.848 156.837 144.86L156.813 144.874L156.771 144.904L156.749 144.924C156.737 144.934 156.726 144.946 156.716 144.958L156.696 144.982L156.686 144.992C156.648 145.045 156.623 145.106 156.612 145.171C156.602 145.235 156.607 145.301 156.627 145.364L156.911 146.246C155.728 146.485 154.518 147.159 155.505 149.016L150.504 148.088L152.122 149.453L160.474 151.186C160.363 151.385 160.436 151.674 160.781 152.081C162.269 153.837 164.979 154.313 166.07 154.436C166.358 155.084 166.717 155.697 167.142 156.263L167.048 158.012C167.048 158.012 164.286 171.344 163.781 172.02C164.036 171.729 164.27 171.42 164.48 171.094C163.678 173.833 162.558 177.582 162.264 178.144C161.791 179.041 161.353 182.67 161.892 182.902C162.057 182.974 162.53 182.939 163.204 182.888V183.188L163.174 194.581C163.174 194.581 163.31 201.569 162.938 202.235C162.566 202.901 162.467 204.298 162.467 204.298C162.467 204.298 160.98 207.053 159.801 208.161C159.793 208.17 159.784 208.178 159.775 208.185L159.739 207.926C159.739 207.926 158.322 209.723 155.189 209.621C155.189 209.621 153.303 210.854 156.1 210.92C158.896 210.987 162.467 210.821 162.467 210.821C162.467 210.821 164.961 207 167.05 207.499V210.394H167.689V207.452C167.986 207.256 168.24 207.001 168.435 206.703C168.631 206.406 168.765 206.071 168.828 205.72C168.882 205.358 168.842 204.988 168.711 204.646C168.58 204.304 168.363 204.003 168.081 203.771C167.954 203.656 167.852 203.516 167.782 203.359C167.712 203.202 167.675 203.033 167.673 202.861L167.649 202.881C167.649 202.823 167.635 202.763 167.628 202.702C167.445 201.207 167.215 198.122 168.026 195.84C169.138 192.711 169.476 188.352 168.666 185.758C168.405 184.928 168.19 184.085 168.023 183.231C168.003 183.123 167.985 183.02 167.968 182.924C168.522 182.999 169.07 183.11 169.609 183.256C171.485 183.776 175.588 183.872 179.092 183.844C179.1 183.941 179.11 184.042 179.122 184.143C179.184 184.848 179.315 185.544 179.512 186.223C179.951 187.552 180.153 193.41 180.153 193.41C180.153 193.41 180.72 198.227 180.411 200.187C180.245 201.277 180.08 202.371 179.986 203.471V203.492C179.986 203.492 179.057 206.15 178.378 207.593C178.362 207.63 178.343 207.666 178.327 207.701C178.146 207.718 177.967 207.757 177.796 207.819C177.796 207.819 176.886 209.646 175.978 209.949C175.071 210.251 175.372 211.246 177.426 210.88C179.48 210.515 182.582 210.216 182.582 210.216L182.716 208.352L183.347 207.558L183.182 209.417L183.855 209.284L183.765 207.024L184.798 205.725C184.798 205.725 186.046 204.608 184.192 202.413V202.461C184.172 202.429 184.154 202.396 184.132 202.364V202.354C183.825 201.876 183.58 200.984 184.028 199.401C184.838 196.541 185.309 193.945 185.309 193.945C185.309 193.945 187.117 186.99 184.944 183.7H185.04C184.817 183.237 184.659 182.745 184.572 182.238C184.561 182.178 184.551 182.117 184.542 182.054C186.15 181.961 187.728 181.668 189.016 181.037C189.011 181.031 188.236 164.527 187.594 161.899ZM167.18 150.388V150.421L166.85 150.438L167.18 150.388ZM166.046 150.546C165.992 150.558 165.941 150.583 165.898 150.617C165.756 150.82 165.666 151.054 165.638 151.3L165.123 151.184C165.123 151.184 164.761 151.106 164.24 151.018L163.994 150.769C164.672 150.712 165.376 150.629 166.046 150.546Z" fill="url(#paint1_linear_2826_78537)"/>
<path d="M183.109 207.047L182.912 209.401L183.571 209.268L183.472 206.715L183.109 207.047Z" fill="#1D2366"/>
<path d="M168.061 195.872C167.267 198.147 167.491 201.218 167.67 202.71C167.736 203.261 167.797 203.597 167.797 203.597C167.797 203.597 166.609 206.318 166.51 206.421C166.411 206.524 163.013 208.608 163.013 208.608L160.638 210.002C160.638 210.002 158.229 208.94 159.384 208.575C159.62 208.48 159.832 208.334 160.007 208.148C161.164 207.043 162.616 204.298 162.616 204.298C162.616 204.298 162.715 202.904 163.079 202.242C163.443 201.579 163.31 194.614 163.31 194.614L163.338 183.261V181.781L167.858 181.814C167.887 182.317 167.952 182.817 168.053 183.309C168.215 184.16 168.426 185.001 168.683 185.827C169.479 188.417 169.149 192.754 168.061 195.872Z" fill="#FFB0B1"/>
<path opacity="0.1" d="M167.797 203.597C167.797 203.597 166.609 206.318 166.51 206.421C166.411 206.524 163.013 208.608 163.013 208.608L160.638 210.002C160.638 210.002 158.229 208.94 159.384 208.575C159.62 208.48 159.832 208.334 160.007 208.148L160.109 208.874L160.901 208.841L167.676 202.713C167.736 203.262 167.797 203.597 167.797 203.597Z" fill="black"/>
<path d="M167.717 202.868L160.903 209.037L160.112 209.07L159.946 207.907C159.946 207.907 158.562 209.698 155.485 209.598C155.485 209.598 153.637 210.826 156.375 210.892C159.114 210.958 162.61 210.792 162.61 210.792C162.61 210.792 165.053 206.972 167.097 207.47V210.355H167.725V207.444C168.017 207.246 168.266 206.991 168.458 206.694C168.649 206.398 168.779 206.065 168.839 205.716C168.893 205.357 168.855 204.99 168.727 204.65C168.6 204.311 168.387 204.01 168.11 203.776C167.987 203.66 167.888 203.519 167.82 203.363C167.753 203.207 167.717 203.038 167.717 202.868Z" fill="#1D2366"/>
<path d="M183.736 199.42C183.297 200.998 183.536 201.886 183.837 202.363V202.373C184.223 202.962 184.491 203.62 184.627 204.311L184.654 204.461L181.553 209.004L179.871 209.668C179.871 209.668 177.166 208.74 177.66 208.474C177.784 208.409 177.977 208.064 178.199 207.587C178.86 206.15 179.772 203.499 179.772 203.499V203.477C179.868 202.383 180.02 201.292 180.188 200.205C180.491 198.25 179.936 193.452 179.936 193.452C179.936 193.452 179.737 187.617 179.308 186.289C179.114 185.615 178.985 184.923 178.922 184.223C178.833 183.393 178.813 182.708 178.813 182.708C178.813 182.708 180.595 180.217 183.86 182.908C184.122 183.122 184.351 183.373 184.543 183.652C186.799 186.877 184.982 193.983 184.982 193.983C184.982 193.983 184.528 196.568 183.736 199.42Z" fill="#FFB0B1"/>
<path opacity="0.1" d="M184.656 204.461L181.555 209.004L179.873 209.668C179.873 209.668 177.168 208.74 177.662 208.474C177.786 208.409 177.979 208.064 178.201 207.587C179.346 207.577 179.939 208.673 179.939 208.673L181.39 208.441C181.39 208.441 183.304 204.66 183.733 204.429C184.163 204.199 183.8 202.704 183.8 202.704V202.323C183.811 202.337 183.821 202.351 183.834 202.365V202.375C184.22 202.963 184.488 203.622 184.624 204.313L184.656 204.461Z" fill="black"/>
<path d="M180.04 208.771C180.04 208.771 179.214 207.246 177.631 207.809C177.631 207.809 176.74 209.637 175.849 209.932C174.958 210.228 175.256 211.224 177.269 210.861C179.281 210.497 182.316 210.196 182.316 210.196L182.448 208.338L184.494 205.718C184.494 205.718 185.713 204.607 183.899 202.419V202.8C183.899 202.8 184.262 204.295 183.833 204.526C183.403 204.756 181.496 208.539 181.496 208.539L180.04 208.771Z" fill="#1D2366"/>
<path opacity="0.1" d="M167.865 181.811C167.893 182.313 167.958 182.813 168.06 183.306C166.199 183.032 164.472 183.168 163.34 183.258V181.778L167.865 181.811Z" fill="black"/>
<path opacity="0.1" d="M184.727 184.066C184.727 184.066 182.083 184.195 178.929 184.222C178.84 183.391 178.82 182.707 178.82 182.707C178.82 182.707 180.602 180.215 183.867 182.906C184.128 183.121 184.358 183.371 184.55 183.65C184.601 183.792 184.66 183.931 184.727 184.066Z" fill="black"/>
<path d="M184.722 183.766C184.722 183.766 173.141 184.329 169.611 183.335C166.081 182.34 162.583 183.202 162.055 182.971C161.528 182.74 161.956 179.124 162.419 178.229C162.882 177.333 165.42 168.279 165.42 168.279L167.863 155.479L170.436 154.767L170.617 154.715L175.101 153.473L178.386 152.561C178.386 152.561 184.919 178.195 184.359 180.086C184.155 180.809 184.122 181.571 184.263 182.31C184.348 182.814 184.503 183.304 184.722 183.766Z" fill="#1D2366"/>
<path d="M159.35 146.726C159.35 146.726 157.037 149.217 158.788 150.606C160.54 151.994 161.692 150.739 161.692 150.739L159.35 146.726Z" fill="#C7DAF5"/>
<path opacity="0.1" d="M159.35 146.726C159.35 146.726 157.037 149.217 158.788 150.606C160.54 151.994 161.692 150.739 161.692 150.739L159.35 146.726Z" fill="black"/>
<path d="M178.045 130.345C178.045 130.345 177.774 130.604 177.366 130.986C176.784 131.532 175.923 132.331 175.16 133.001C174.102 133.926 173.23 134.605 173.542 134.026C173.854 133.446 173.795 132.436 173.639 131.491C173.628 131.428 173.618 131.365 173.606 131.303C173.478 130.609 173.307 129.923 173.096 129.25C173.096 129.25 174.804 127.031 175.75 126.156C176.102 125.823 176.348 125.687 176.363 125.918C176.379 126.229 176.611 126.915 176.898 127.642C176.907 127.666 176.915 127.687 176.925 127.71C177.116 128.209 177.333 128.72 177.523 129.162C177.814 129.84 178.045 130.345 178.045 130.345Z" fill="#FFB0B1"/>
<path opacity="0.1" d="M176.925 127.71C176.764 128.578 176.375 129.387 175.797 130.052C175.219 130.717 174.474 131.214 173.639 131.491C173.508 130.733 173.326 129.984 173.096 129.25C173.096 129.25 176.313 125.073 176.363 125.918C176.374 126.239 176.626 126.95 176.925 127.71Z" fill="black"/>
<path opacity="0.1" d="M173.316 132.607L173.733 132.018C173.733 132.018 174.009 133.708 175.023 132.963C176.038 132.217 176.088 138.575 176.088 138.575L174.999 154.941L167.129 154.468L167.352 146.56L168.243 142.573L170.446 136.778L171.756 134.863L173.316 132.607Z" fill="black"/>
<path d="M176.087 138.676L175.095 153.474L174.991 155.042L170.603 154.778L170.438 154.768L167.133 154.569L167.356 146.659L168.247 142.673L170.45 136.877L171.76 134.962L173.32 132.698L173.737 132.11C173.737 132.11 174.013 133.801 175.027 133.055L175.049 133.041C176.04 132.409 176.087 138.676 176.087 138.676Z" fill="#1D2366"/>
<path d="M168.358 141.288C168.358 141.288 167.963 142.118 167.17 141.984C166.377 141.849 166.378 144.973 166.378 144.973C166.378 144.973 165.851 145.472 165.488 145.04C165.124 144.608 164.166 146.068 164.166 146.068L158.16 146.334C158.16 146.334 160.832 147.561 160.309 151.275C160.309 151.275 169.381 150.71 169.679 149.848C169.976 148.986 168.358 141.288 168.358 141.288Z" fill="white"/>
<path opacity="0.03" d="M168.358 141.288C168.358 141.288 167.963 142.118 167.17 141.984C166.377 141.849 166.378 144.973 166.378 144.973C166.378 144.973 165.851 145.472 165.488 145.04C165.124 144.608 164.166 146.068 164.166 146.068L158.16 146.334C158.16 146.334 160.832 147.561 160.309 151.275C160.309 151.275 169.381 150.71 169.679 149.848C169.976 148.986 168.358 141.288 168.358 141.288Z" fill="black"/>
<path d="M150.906 148.286L152.489 149.644L165.522 152.397L163.905 150.739L150.906 148.286Z" fill="white"/>
<path d="M173.343 133.13C173.126 133.462 172.507 135.163 171.989 136.648C171.558 137.886 171.198 138.974 171.198 138.974C171.198 138.974 170.357 144.478 169.927 145.473C169.497 146.468 169.73 150.348 169.73 150.348L168.129 159.931C168.129 159.931 167.403 164.872 166.283 167.824C165.177 170.729 163.946 172.091 163.908 172.134C164.404 171.46 167.106 158.181 167.106 158.181L167.998 141.435C167.998 141.435 168.129 139.844 168.261 138.484C168.393 137.123 171.07 135.266 171.07 135.266L173.652 131.577C173.911 131.926 173.738 132.534 173.343 133.13Z" fill="white"/>
<path d="M166.609 154.652C166.609 154.652 162.808 154.486 160.968 152.263C159.127 150.041 165.223 151.376 165.223 151.376L166.808 151.742L166.609 154.652Z" fill="#FFB0B1"/>
<path opacity="0.1" d="M184.362 180.087C184.159 180.811 184.126 181.572 184.267 182.311C180.12 182.607 175.685 181.48 175.685 181.48C174.858 182.244 172.682 183.371 172.682 183.371L171.495 168.588C170.737 166.594 170.439 156.152 170.439 156.152C170.439 156.152 170.507 155.605 170.605 154.786C170.605 154.766 170.605 154.745 170.613 154.725C170.909 152.438 171.495 148.144 171.783 147.564C172.18 146.767 170.563 144.646 170.563 144.646L171.299 138.342L171.388 137.582C172.938 136.886 174.126 134.663 174.126 134.663L175.039 133.057C176.03 132.418 176.081 138.685 176.081 138.685L175.09 153.482L178.375 152.571C178.375 152.571 184.923 178.197 184.362 180.087Z" fill="black"/>
<path d="M188.617 181.109C184.097 183.364 175.882 181.275 175.882 181.275C175.056 182.039 172.879 183.165 172.879 183.165L171.691 168.382C170.934 166.389 170.637 155.946 170.637 155.946C170.637 155.946 171.592 148.154 171.989 147.359C172.104 147.126 172.048 146.781 171.911 146.409C171.237 144.638 170.988 142.732 171.187 140.846L171.504 138.137L171.592 137.378C173.144 136.68 174.332 134.458 174.332 134.458L175.158 133.003L176.679 130.322L177.399 129.053L177.521 129.164L178.455 130.014C178.455 130.014 178.852 130.347 179.447 130.845C180.741 131.941 182.977 133.871 184.13 135.052C185.145 136.092 185.465 140.137 185.558 143.181C185.619 145.186 185.583 146.757 185.583 146.757C184.56 148.45 187.235 162.039 187.235 162.039C187.858 164.665 188.617 181.109 188.617 181.109Z" fill="white"/>
<path opacity="0.03" d="M179.941 134.424C179.941 134.424 176.839 140.359 177.199 142.615C177.56 144.87 178.584 147.423 178.09 148.02C177.92 148.245 177.701 148.429 177.449 148.555C177.197 148.682 176.919 148.748 176.637 148.749C176.142 148.782 174.82 149.71 174.82 149.81C174.82 149.91 173.598 149.91 172.506 150.375C171.414 150.84 169.801 151.104 169.801 151.104C169.801 151.104 166.661 151.004 166.368 151.303C166.076 151.602 165.775 153.391 166.401 154.818C167.028 156.245 167.723 157.31 168.249 157.504C168.774 157.698 172.109 156.575 174.815 156.31C177.52 156.044 180.456 153.89 180.456 153.89C180.456 153.89 183.691 152.727 184.257 150.772C184.824 148.817 183.565 138.072 183.565 138.072C183.565 138.072 182.613 133.064 179.941 134.424Z" fill="black"/>
<path opacity="0.03" d="M179.544 133.926C179.544 133.926 176.442 139.863 176.805 142.117C177.169 144.371 178.19 146.925 177.694 147.523C177.525 147.749 177.306 147.933 177.054 148.059C176.802 148.186 176.525 148.252 176.243 148.252C175.748 148.286 174.425 149.214 174.425 149.314C174.425 149.413 173.204 149.413 172.112 149.877C171.019 150.34 169.407 150.606 169.407 150.606C169.407 150.606 166.267 150.506 165.976 150.805C165.685 151.104 165.381 152.895 166.009 154.32C166.637 155.745 167.331 156.812 167.856 157.006C168.382 157.2 171.717 156.077 174.422 155.813C177.127 155.549 180.064 153.392 180.064 153.392C180.064 153.392 183.297 152.229 183.857 150.275C184.417 148.322 183.164 137.574 183.164 137.574C183.164 137.574 182.216 132.567 179.544 133.926Z" fill="black"/>
<path d="M179.842 134.126C179.842 134.126 176.74 140.062 177.104 142.316C177.467 144.57 178.488 147.125 177.994 147.721C177.825 147.948 177.606 148.132 177.354 148.258C177.102 148.385 176.824 148.451 176.542 148.452C176.046 148.485 174.724 149.413 174.724 149.511C174.724 149.609 173.504 149.611 172.41 150.076C171.316 150.541 169.705 150.805 169.705 150.805C169.705 150.805 166.565 150.706 166.273 151.005C165.98 151.304 165.679 153.094 166.306 154.519C166.932 155.945 167.628 157.011 168.153 157.205C168.679 157.4 172.014 156.277 174.719 156.011C177.424 155.745 180.361 153.591 180.361 153.591C180.361 153.591 183.595 152.428 184.162 150.473C184.729 148.518 183.478 137.773 183.478 137.773C183.478 137.773 182.512 132.773 179.842 134.126Z" fill="white"/>
<path opacity="0.1" d="M179.775 150.048C179.775 150.048 177.296 149.549 178.159 150.38C179.022 151.21 179.017 151.938 180.073 151.905C181.129 151.871 179.775 150.048 179.775 150.048Z" fill="black"/>
<path opacity="0.1" d="M183.965 167.917C183.965 167.917 182.844 168.679 184.988 170.437C187.131 172.194 183.965 167.917 183.965 167.917Z" fill="black"/>
<path opacity="0.1" d="M181.827 174.184C181.827 174.283 181.431 177.838 182.915 178.726C184.399 179.615 181.827 174.184 181.827 174.184Z" fill="black"/>
<path d="M158.264 146.326C157.067 146.367 154.483 146.734 155.823 149.247C157.008 151.471 158.999 149.985 160.12 148.857C159.846 147.806 159.182 146.9 158.264 146.326Z" fill="#FFB0B1"/>
<path opacity="0.1" d="M179.446 130.946C178.177 131.818 177.113 132.554 176.905 132.707C176.336 133.131 175.252 135.617 174.553 136.886C173.996 137.908 172.186 138.17 171.504 138.235L171.591 137.476C173.143 136.778 174.331 134.556 174.331 134.556L177.399 129.151L178.455 130.116C178.455 130.116 178.851 130.448 179.446 130.946Z" fill="black"/>
<path d="M179.446 130.846C178.177 131.718 177.113 132.454 176.905 132.609C176.336 133.031 175.252 135.517 174.553 136.786C173.996 137.808 172.186 138.07 171.504 138.135L171.591 137.376C173.143 136.678 174.331 134.456 174.331 134.456L177.399 129.051L178.455 130.013C178.455 130.013 178.851 130.341 179.446 130.846Z" fill="#DCE7FF"/>
<path d="M177.004 126.614C177.005 127.611 176.704 128.585 176.142 129.406C175.477 130.377 174.489 131.077 173.355 131.378C172.221 131.679 171.018 131.562 169.963 131.047C168.908 130.533 168.072 129.656 167.605 128.574C167.139 127.493 167.074 126.279 167.422 125.154C167.769 124.029 168.507 123.066 169.501 122.44C170.494 121.814 171.678 121.568 172.837 121.744C173.997 121.921 175.055 122.509 175.819 123.403C176.584 124.296 177.004 125.436 177.004 126.614Z" fill="#FFB0B1"/>
<path opacity="0.1" d="M185.558 143.183C184.887 142.768 184.341 142.178 183.977 141.475C183.701 140.927 183.517 140.294 183.046 139.906C182.622 139.557 182.055 139.472 181.526 139.316C179.787 138.799 178.33 137.205 178.275 135.384C178.249 134.527 178.515 133.672 178.394 132.823C178.326 132.343 178.136 131.888 177.842 131.503C177.697 131.318 177.537 131.145 177.365 130.986C177.133 130.767 176.89 130.554 176.679 130.322C176.546 130.178 176.429 130.019 176.332 129.848C176.253 129.709 176.19 129.561 176.142 129.408C175.811 128.391 176.112 127.186 175.748 126.157L175.729 126.101C175.591 125.736 175.312 125.37 174.924 125.342C174.535 125.314 174.203 125.638 173.833 125.782C173.058 126.084 172.222 125.569 171.576 125.045C170.93 124.52 170.201 123.92 169.379 124.036C168.836 124.114 168.406 124.486 167.905 124.679C167.792 124.723 167.676 124.757 167.557 124.78C167.98 123.718 168.759 122.838 169.759 122.29C170.758 121.742 171.916 121.561 173.034 121.778C174.152 121.995 175.16 122.597 175.885 123.48C176.609 124.363 177.005 125.471 177.004 126.616C177.005 126.961 176.969 127.306 176.897 127.644C176.905 127.667 176.914 127.689 176.923 127.712C177.115 128.21 177.332 128.722 177.522 129.164L178.455 130.014C178.455 130.014 178.852 130.346 179.447 130.845C180.741 131.941 182.977 133.871 184.13 135.052C185.145 136.095 185.462 140.138 185.558 143.183Z" fill="black"/>
<path d="M167.847 121.644C168.083 121.161 168.2 120.62 168.483 120.161C168.898 119.497 169.622 119.072 170.365 118.814C172.307 118.141 176.41 117.165 177.637 118.814C177.878 119.146 178.078 119.515 178.412 119.744C178.666 119.919 178.973 119.993 179.253 120.125C180.034 120.493 180.534 121.297 180.8 122.118C181.066 122.938 181.145 123.819 181.34 124.664C181.59 125.749 182.027 126.777 182.464 127.799C182.978 129.004 183.523 130.255 184.515 131.107C185.868 132.27 186.167 133.916 187.423 135.192C188.91 136.707 188.863 139.206 188.096 141.191C187.995 141.452 187.881 141.724 187.921 142.002C187.96 142.279 188.165 142.532 188.359 142.753L189.172 143.674C187.248 144.141 185.072 143.131 184.176 141.359C183.9 140.811 183.716 140.18 183.244 139.789C182.821 139.441 182.252 139.357 181.725 139.201C179.987 138.683 178.529 137.087 178.474 135.266C178.448 134.411 178.714 133.556 178.593 132.708C178.526 132.225 178.336 131.767 178.04 131.38C177.585 130.783 176.899 130.383 176.529 129.719C175.903 128.607 176.379 127.164 175.928 125.971C175.789 125.606 175.511 125.241 175.123 125.212C174.735 125.184 174.402 125.508 174.031 125.653C173.257 125.955 172.421 125.442 171.775 124.915C171.129 124.388 170.4 123.791 169.577 123.908C169.033 123.985 168.605 124.357 168.104 124.551C167.734 124.694 166.984 124.822 166.66 124.508C165.976 123.875 167.561 122.236 167.847 121.644Z" fill="#591D4B"/>
<path opacity="0.1" d="M184.636 140.811C184.358 140.263 184.176 139.632 183.704 139.243C183.281 138.894 182.712 138.809 182.183 138.653C180.446 138.137 178.989 136.54 178.933 134.72C178.906 133.865 179.172 133.007 179.053 132.16C178.984 131.68 178.793 131.225 178.5 130.84C178.044 130.244 177.358 129.843 176.989 129.179C176.363 128.069 176.839 126.626 176.386 125.432C176.249 125.068 175.97 124.702 175.583 124.673C175.196 124.643 174.861 124.97 174.49 125.114C173.717 125.417 172.879 124.902 172.235 124.377C171.59 123.852 170.858 123.252 170.037 123.369C169.493 123.447 169.063 123.819 168.564 124.011C168.194 124.154 167.442 124.284 167.118 123.97C166.437 123.306 168.022 121.669 168.307 121.081C168.543 120.596 168.66 120.057 168.944 119.598C168.959 119.573 168.976 119.548 168.992 119.523C168.78 119.7 168.596 119.91 168.449 120.145C168.166 120.603 168.049 121.141 167.812 121.628C167.527 122.216 165.942 123.857 166.624 124.516C166.955 124.832 167.698 124.702 168.069 124.56C168.564 124.365 168.997 123.993 169.541 123.917C170.367 123.799 171.094 124.398 171.739 124.923C172.383 125.448 173.226 125.963 173.996 125.661C174.367 125.516 174.69 125.191 175.087 125.221C175.484 125.251 175.748 125.614 175.892 125.98C176.343 127.172 175.867 128.616 176.493 129.727C176.864 130.38 177.549 130.788 178.004 131.388C178.3 131.775 178.49 132.233 178.557 132.717C178.678 133.564 178.412 134.419 178.439 135.275C178.493 137.102 179.951 138.691 181.689 139.21C182.213 139.366 182.785 139.449 183.208 139.798C183.682 140.188 183.869 140.819 184.14 141.367C185.036 143.14 187.212 144.15 189.136 143.683L188.752 143.248C187.085 143.273 185.398 142.319 184.636 140.811Z" fill="black"/>
<path opacity="0.1" d="M173.242 133.23C173.026 133.562 172.406 135.263 171.889 136.748C171.404 136.559 170.965 135.351 170.965 135.351L173.546 131.661C173.811 132.026 173.637 132.632 173.242 133.23Z" fill="black"/>
<path d="M173.342 133.13C173.125 133.463 172.505 135.164 171.988 136.649C171.504 136.461 171.064 135.252 171.064 135.252L173.646 131.562C173.91 131.926 173.737 132.534 173.342 133.13Z" fill="#DCE7FF"/>
<path d="M158.334 150.099L156.903 145.563C156.886 145.51 156.88 145.454 156.884 145.398C156.889 145.343 156.904 145.288 156.93 145.239C156.955 145.189 156.99 145.145 157.033 145.109C157.075 145.074 157.124 145.046 157.177 145.03C157.284 144.996 157.399 145.006 157.498 145.058C157.597 145.11 157.672 145.199 157.706 145.305L159.137 149.837L158.995 150.785L158.334 150.099Z" fill="#BE8B87"/>
<path opacity="0.1" d="M157.035 145.164C157.142 145.13 157.257 145.14 157.357 145.192C157.456 145.244 157.531 145.333 157.565 145.44L158.996 149.971L158.889 150.682L158.993 150.792L159.135 149.843L157.696 145.312C157.662 145.205 157.587 145.116 157.488 145.065C157.389 145.013 157.274 145.003 157.167 145.036C157.077 145.066 157 145.124 156.947 145.203C156.975 145.187 157.005 145.175 157.035 145.164Z" fill="white"/>
<path d="M158.332 150.099L159.135 149.843L159.018 150.621L158.993 150.792L158.758 150.546L158.332 150.099Z" fill="#EFC8C4"/>
<path d="M158.758 150.546C158.772 150.528 158.789 150.514 158.809 150.503C158.821 150.496 158.834 150.492 158.848 150.492C158.862 150.492 158.875 150.496 158.887 150.503C158.898 150.517 158.907 150.532 158.915 150.548C158.926 150.566 158.941 150.582 158.958 150.593C158.976 150.605 158.996 150.613 159.017 150.616L158.992 150.781L158.758 150.546Z" fill="#727A9C"/>
<path d="M156.893 147.174C156.893 147.174 159.763 147.158 159.087 148.385C158.411 149.613 157.355 149.761 157.355 149.761L156.893 147.174Z" fill="#FFB0B1"/>
<path d="M150.338 26.3438H150.174C143.645 26.3438 137.871 29.8516 134.55 35.0278C131.229 29.8516 125.455 26.3438 118.926 26.3438H118.762C113.862 26.3912 109.179 28.4 105.73 31.9338C102.281 35.4676 100.344 40.2407 100.342 45.2159C100.342 51.394 103.007 60.1603 108.203 67.3737C118.103 81.1185 134.55 93.1438 134.55 93.1438C134.55 93.1438 150.997 81.1207 160.895 67.3737C166.094 60.1603 168.756 51.394 168.756 45.2159C168.754 40.2411 166.818 35.4683 163.369 31.9346C159.92 28.4009 155.238 26.3917 150.338 26.3438ZM147.991 68.4312C147.247 68.4283 146.522 68.1972 145.91 67.7682C145.298 67.3392 144.828 66.7324 144.562 66.0274H140.659C140.402 66.0258 140.152 65.9427 139.943 65.7898C139.735 65.6368 139.579 65.4217 139.497 65.1743L138.298 61.5066L134.504 74.967C134.43 75.2261 134.276 75.4539 134.063 75.6161C133.851 75.7784 133.593 75.8663 133.327 75.8667H133.251C132.973 75.8531 132.709 75.7433 132.502 75.5557C132.295 75.3681 132.158 75.114 132.113 74.8359L128.203 50.9586L125.346 65.0877C125.28 65.3561 125.128 65.5945 124.913 65.7648C124.699 65.9352 124.434 66.0276 124.162 66.0274H118.664C118.499 66.0345 118.334 66.0077 118.18 65.9485C118.026 65.8893 117.885 65.7991 117.766 65.6832C117.646 65.5673 117.552 65.4281 117.487 65.274C117.422 65.12 117.389 64.9542 117.389 64.7867C117.389 64.6192 117.422 64.4534 117.487 64.2993C117.552 64.1453 117.646 64.0061 117.766 63.8902C117.885 63.7743 118.026 63.684 118.18 63.6249C118.334 63.5657 118.499 63.5389 118.664 63.5459H123.199L127.247 44.5494C127.313 44.2686 127.474 44.0198 127.701 43.8458C127.928 43.6718 128.207 43.5832 128.492 43.5953C128.776 43.6074 129.047 43.7193 129.259 43.912C129.471 44.1047 129.61 44.3661 129.654 44.6516L133.647 69.0088L137.047 56.9657C137.117 56.7121 137.267 56.4885 137.473 56.3283C137.68 56.1682 137.931 56.08 138.191 56.0771H138.215C138.472 56.0772 138.723 56.1597 138.931 56.3129C139.139 56.466 139.294 56.6821 139.375 56.9301L141.543 63.5526H144.514C144.725 62.9009 145.11 62.3212 145.625 61.8774C146.14 61.4336 146.766 61.1429 147.434 61.0376C148.102 60.9322 148.785 61.0162 149.409 61.2802C150.032 61.5443 150.572 61.9781 150.968 62.5339C151.364 63.0897 151.601 63.7458 151.653 64.4299C151.705 65.1139 151.57 65.7992 151.263 66.4102C150.956 67.0212 150.488 67.5341 149.912 67.8923C149.335 68.2505 148.673 68.44 147.997 68.44L147.991 68.4312Z" fill="#34609D"/>
<defs>
<linearGradient id="paint0_linear_2826_78537" x1="93.7517" y1="212.386" x2="93.7517" y2="110.178" gradientUnits="userSpaceOnUse">
<stop stop-color="#808080" stop-opacity="0.25"/>
<stop offset="0.54" stop-color="#808080" stop-opacity="0.12"/>
<stop offset="1" stop-color="#808080" stop-opacity="0.1"/>
</linearGradient>
<linearGradient id="paint1_linear_2826_78537" x1="170.037" y1="210.96" x2="170.037" y2="117.612" gradientUnits="userSpaceOnUse">
<stop stop-color="#808080" stop-opacity="0.25"/>
<stop offset="0.54" stop-color="#808080" stop-opacity="0.12"/>
<stop offset="1" stop-color="#808080" stop-opacity="0.1"/>
</linearGradient>
</defs>
</svg>
