<svg width="30" height="52" viewBox="0 0 50 72" fill="none" xmlns="http://www.w3.org/2000/svg">
<path fill-rule="evenodd" clip-rule="evenodd" d="M24.7917 0C11.1002 0 3.4783e-05 11.2712 3.4783e-05 25.1778C-0.00637918 31.1946 0.872326 35.3642 4.23668 40.8337C7.60103 46.2999 24.7917 71.6667 24.7917 71.6667C24.7917 71.6667 41.9824 46.2999 45.3467 40.8337C48.7111 35.3642 49.5898 31.1946 49.5834 25.1778C49.5834 11.2712 38.4832 0 24.7917 0ZM24.8475 38.1137H24.7917H24.7359C17.912 38.1137 12.3866 32.8336 12.3959 25.5563C12.4052 18.2759 17.9461 13.0303 24.7731 13.0303H24.7917H24.8133C31.6372 13.0303 37.1782 18.2759 37.1875 25.5563C37.1999 32.8336 31.6714 38.1137 24.8475 38.1137Z" fill="#34609D"/>
</svg>
