<svg width="242" height="68" viewBox="0 0 292 118" fill="none" xmlns="http://www.w3.org/2000/svg">
<path d="M48.96 97.94C50.3067 97.94 51.5 98.24 52.54 98.84C53.5933 99.44 54.4067 100.273 54.98 101.34C55.5667 102.407 55.86 103.627 55.86 105C55.86 106.373 55.5667 107.6 54.98 108.68C54.4067 109.747 53.5933 110.58 52.54 111.18C51.5 111.78 50.3067 112.08 48.96 112.08C47.6133 112.08 46.4133 111.78 45.36 111.18C44.32 110.58 43.5067 109.747 42.92 108.68C42.3467 107.6 42.06 106.373 42.06 105C42.06 103.627 42.3467 102.407 42.92 101.34C43.5067 100.273 44.32 99.44 45.36 98.84C46.4133 98.24 47.6133 97.94 48.96 97.94ZM48.96 98.6C47.7067 98.6 46.6133 98.8733 45.68 99.42C44.76 99.9533 44.0467 100.707 43.54 101.68C43.0333 102.64 42.78 103.747 42.78 105C42.78 106.253 43.0333 107.367 43.54 108.34C44.0467 109.3 44.7667 110.053 45.7 110.6C46.6333 111.133 47.72 111.4 48.96 111.4C50.2 111.4 51.2867 111.133 52.22 110.6C53.1533 110.053 53.8733 109.3 54.38 108.34C54.8867 107.367 55.14 106.253 55.14 105C55.14 103.747 54.8867 102.64 54.38 101.68C53.8733 100.707 53.1533 99.9533 52.22 99.42C51.3 98.8733 50.2133 98.6 48.96 98.6ZM48.96 100.32C48.16 100.32 47.4333 100.507 46.78 100.88C46.1267 101.253 45.6067 101.793 45.22 102.5C44.8333 103.207 44.64 104.033 44.64 104.98C44.64 105.94 44.8333 106.773 45.22 107.48C45.6067 108.187 46.1267 108.727 46.78 109.1C47.4333 109.473 48.16 109.66 48.96 109.66C49.9467 109.66 50.8067 109.393 51.54 108.86C52.2867 108.313 52.7867 107.58 53.04 106.66H51.74C51.5267 107.3 51.18 107.787 50.7 108.12C50.22 108.453 49.64 108.62 48.96 108.62C48.08 108.62 47.3467 108.307 46.76 107.68C46.1867 107.04 45.9 106.147 45.9 105C45.9 103.853 46.1867 102.96 46.76 102.32C47.3467 101.68 48.08 101.36 48.96 101.36C49.6133 101.36 50.1867 101.533 50.68 101.88C51.1867 102.213 51.54 102.7 51.74 103.34H53.04C52.7867 102.38 52.2933 101.64 51.56 101.12C50.8267 100.587 49.96 100.32 48.96 100.32ZM73.7863 112H72.3862L64.6462 100.24V112H63.2462V98.02H64.6462L72.3862 109.76V98.02H73.7863V112ZM81.3572 112.16C80.3305 112.16 79.4039 111.933 78.5772 111.48C77.7639 111.013 77.1172 110.36 76.6372 109.52C76.1705 108.667 75.9372 107.673 75.9372 106.54C75.9372 105.407 76.1772 104.42 76.6572 103.58C77.1372 102.727 77.7905 102.073 78.6172 101.62C79.4439 101.153 80.3705 100.92 81.3972 100.92C82.4239 100.92 83.3505 101.153 84.1772 101.62C85.0172 102.073 85.6705 102.727 86.1372 103.58C86.6172 104.42 86.8572 105.407 86.8572 106.54C86.8572 107.66 86.6172 108.647 86.1372 109.5C85.6572 110.353 84.9972 111.013 84.1572 111.48C83.3172 111.933 82.3839 112.16 81.3572 112.16ZM81.3572 110.94C82.0772 110.94 82.7439 110.78 83.3572 110.46C83.9705 110.127 84.4639 109.633 84.8372 108.98C85.2239 108.313 85.4172 107.5 85.4172 106.54C85.4172 105.58 85.2305 104.773 84.8572 104.12C84.4839 103.453 83.9905 102.96 83.3772 102.64C82.7639 102.307 82.0972 102.14 81.3772 102.14C80.6572 102.14 79.9905 102.307 79.3772 102.64C78.7639 102.96 78.2705 103.453 77.8972 104.12C77.5372 104.773 77.3572 105.58 77.3572 106.54C77.3572 107.5 77.5372 108.313 77.8972 108.98C78.2705 109.633 78.7572 110.127 79.3572 110.46C79.9705 110.78 80.6372 110.94 81.3572 110.94ZM92.9092 110.64L96.5892 101.08H98.0692L93.6892 112H92.1092L87.7292 101.08H89.2292L92.9092 110.64ZM104.367 112.16C103.34 112.16 102.413 111.933 101.587 111.48C100.773 111.013 100.127 110.36 99.6467 109.52C99.1801 108.667 98.9467 107.673 98.9467 106.54C98.9467 105.407 99.1867 104.42 99.6667 103.58C100.147 102.727 100.8 102.073 101.627 101.62C102.453 101.153 103.38 100.92 104.407 100.92C105.433 100.92 106.36 101.153 107.187 101.62C108.027 102.073 108.68 102.727 109.147 103.58C109.627 104.42 109.867 105.407 109.867 106.54C109.867 107.66 109.627 108.647 109.147 109.5C108.667 110.353 108.007 111.013 107.167 111.48C106.327 111.933 105.393 112.16 104.367 112.16ZM104.367 110.94C105.087 110.94 105.753 110.78 106.367 110.46C106.98 110.127 107.473 109.633 107.847 108.98C108.233 108.313 108.427 107.5 108.427 106.54C108.427 105.58 108.24 104.773 107.867 104.12C107.493 103.453 107 102.96 106.387 102.64C105.773 102.307 105.107 102.14 104.387 102.14C103.667 102.14 103 102.307 102.387 102.64C101.773 102.96 101.28 103.453 100.907 104.12C100.547 104.773 100.367 105.58 100.367 106.54C100.367 107.5 100.547 108.313 100.907 108.98C101.28 109.633 101.767 110.127 102.367 110.46C102.98 110.78 103.647 110.94 104.367 110.94ZM111.399 106.54C111.399 105.407 111.625 104.42 112.079 103.58C112.532 102.727 113.159 102.073 113.959 101.62C114.759 101.153 115.672 100.92 116.699 100.92C118.045 100.92 119.152 101.253 120.019 101.92C120.899 102.587 121.465 103.493 121.719 104.64H120.219C120.032 103.853 119.625 103.24 118.999 102.8C118.385 102.347 117.619 102.12 116.699 102.12C115.965 102.12 115.305 102.287 114.719 102.62C114.132 102.953 113.665 103.453 113.319 104.12C112.985 104.773 112.819 105.58 112.819 106.54C112.819 107.5 112.985 108.313 113.319 108.98C113.665 109.647 114.132 110.147 114.719 110.48C115.305 110.813 115.965 110.98 116.699 110.98C117.619 110.98 118.385 110.76 118.999 110.32C119.625 109.867 120.032 109.24 120.219 108.44H121.719C121.465 109.56 120.899 110.46 120.019 111.14C119.139 111.82 118.032 112.16 116.699 112.16C115.672 112.16 114.759 111.933 113.959 111.48C113.159 111.013 112.532 110.36 112.079 109.52C111.625 108.667 111.399 107.673 111.399 106.54ZM133.384 101.08V112H131.984V110.08C131.664 110.76 131.171 111.28 130.504 111.64C129.838 112 129.091 112.18 128.264 112.18C126.958 112.18 125.891 111.78 125.064 110.98C124.238 110.167 123.824 108.993 123.824 107.46V101.08H125.204V107.3C125.204 108.487 125.498 109.393 126.084 110.02C126.684 110.647 127.498 110.96 128.524 110.96C129.578 110.96 130.418 110.627 131.044 109.96C131.671 109.293 131.984 108.313 131.984 107.02V101.08H133.384ZM137.601 103.02C137.907 102.34 138.374 101.813 139.001 101.44C139.641 101.067 140.421 100.88 141.341 100.88V102.34H140.961C139.947 102.34 139.134 102.613 138.521 103.16C137.907 103.707 137.601 104.62 137.601 105.9V112H136.201V101.08H137.601V103.02ZM143.767 99.02C143.487 99.02 143.247 98.92 143.047 98.72C142.847 98.52 142.747 98.2733 142.747 97.98C142.747 97.6867 142.847 97.4467 143.047 97.26C143.247 97.06 143.487 96.96 143.767 96.96C144.047 96.96 144.287 97.06 144.487 97.26C144.687 97.4467 144.787 97.6867 144.787 97.98C144.787 98.2733 144.687 98.52 144.487 98.72C144.287 98.92 144.047 99.02 143.767 99.02ZM144.467 101.08V112H143.067V101.08H144.467ZM151.017 112.16C149.764 112.16 148.737 111.873 147.937 111.3C147.15 110.713 146.71 109.92 146.617 108.92H148.057C148.124 109.533 148.41 110.033 148.917 110.42C149.437 110.793 150.13 110.98 150.997 110.98C151.757 110.98 152.35 110.8 152.777 110.44C153.217 110.08 153.437 109.633 153.437 109.1C153.437 108.727 153.317 108.42 153.077 108.18C152.837 107.94 152.53 107.753 152.157 107.62C151.797 107.473 151.304 107.32 150.677 107.16C149.864 106.947 149.204 106.733 148.697 106.52C148.19 106.307 147.757 105.993 147.397 105.58C147.05 105.153 146.877 104.587 146.877 103.88C146.877 103.347 147.037 102.853 147.357 102.4C147.677 101.947 148.13 101.587 148.717 101.32C149.304 101.053 149.97 100.92 150.717 100.92C151.89 100.92 152.837 101.22 153.557 101.82C154.277 102.407 154.664 103.22 154.717 104.26H153.317C153.277 103.62 153.024 103.107 152.557 102.72C152.104 102.32 151.477 102.12 150.677 102.12C149.97 102.12 149.397 102.287 148.957 102.62C148.517 102.953 148.297 103.367 148.297 103.86C148.297 104.287 148.424 104.64 148.677 104.92C148.944 105.187 149.27 105.4 149.657 105.56C150.044 105.707 150.564 105.873 151.217 106.06C152.004 106.273 152.63 106.48 153.097 106.68C153.564 106.88 153.964 107.173 154.297 107.56C154.63 107.947 154.804 108.46 154.817 109.1C154.817 109.687 154.657 110.213 154.337 110.68C154.017 111.133 153.57 111.493 152.997 111.76C152.424 112.027 151.764 112.16 151.017 112.16ZM171.121 102.04C171.121 103.24 170.727 104.207 169.941 104.94C169.154 105.673 167.974 106.04 166.401 106.04H163.581V112H162.181V98.02H166.401C167.961 98.02 169.134 98.3867 169.921 99.12C170.721 99.8533 171.121 100.827 171.121 102.04ZM166.401 104.84C168.587 104.84 169.681 103.907 169.681 102.04C169.681 101.107 169.421 100.4 168.901 99.92C168.381 99.44 167.547 99.2 166.401 99.2H163.581V104.84H166.401ZM174.91 102.26V109.04C174.91 109.707 175.036 110.167 175.29 110.42C175.543 110.673 175.99 110.8 176.63 110.8H177.91V112H176.41C175.423 112 174.69 111.773 174.21 111.32C173.73 110.853 173.49 110.093 173.49 109.04V102.26H171.97V101.08H173.49V98.34H174.91V101.08H177.91V102.26H174.91ZM189.719 105.98C189.719 106.46 189.705 106.827 189.679 107.08H180.619C180.659 107.907 180.859 108.613 181.219 109.2C181.579 109.787 182.052 110.233 182.639 110.54C183.225 110.833 183.865 110.98 184.559 110.98C185.465 110.98 186.225 110.76 186.839 110.32C187.465 109.88 187.879 109.287 188.079 108.54H189.559C189.292 109.607 188.719 110.48 187.839 111.16C186.972 111.827 185.879 112.16 184.559 112.16C183.532 112.16 182.612 111.933 181.799 111.48C180.985 111.013 180.345 110.36 179.879 109.52C179.425 108.667 179.199 107.673 179.199 106.54C179.199 105.407 179.425 104.413 179.879 103.56C180.332 102.707 180.965 102.053 181.779 101.6C182.592 101.147 183.519 100.92 184.559 100.92C185.599 100.92 186.505 101.147 187.279 101.6C188.065 102.053 188.665 102.667 189.079 103.44C189.505 104.2 189.719 105.047 189.719 105.98ZM188.299 105.94C188.312 105.127 188.145 104.433 187.799 103.86C187.465 103.287 187.005 102.853 186.419 102.56C185.832 102.267 185.192 102.12 184.499 102.12C183.459 102.12 182.572 102.453 181.839 103.12C181.105 103.787 180.699 104.727 180.619 105.94H188.299ZM192.14 112.1C191.847 112.1 191.6 112 191.4 111.8C191.213 111.6 191.12 111.353 191.12 111.06C191.12 110.767 191.213 110.527 191.4 110.34C191.6 110.14 191.847 110.04 192.14 110.04C192.42 110.04 192.653 110.14 192.84 110.34C193.04 110.527 193.14 110.767 193.14 111.06C193.14 111.353 193.04 111.6 192.84 111.8C192.653 112 192.42 112.1 192.14 112.1ZM201.661 110.86H206.681V112H200.261V98.02H201.661V110.86ZM210.119 102.26V109.04C210.119 109.707 210.246 110.167 210.499 110.42C210.752 110.673 211.199 110.8 211.839 110.8H213.119V112H211.619C210.632 112 209.899 111.773 209.419 111.32C208.939 110.853 208.699 110.093 208.699 109.04V102.26H207.179V101.08H208.699V98.34H210.119V101.08H213.119V102.26H210.119ZM214.408 106.52C214.408 105.4 214.635 104.42 215.088 103.58C215.541 102.727 216.161 102.073 216.948 101.62C217.748 101.153 218.648 100.92 219.648 100.92C220.608 100.92 221.475 101.153 222.248 101.62C223.021 102.087 223.588 102.693 223.948 103.44V97.2H225.348V112H223.948V109.56C223.615 110.32 223.068 110.947 222.308 111.44C221.548 111.92 220.655 112.16 219.628 112.16C218.628 112.16 217.728 111.927 216.928 111.46C216.141 110.993 215.521 110.333 215.068 109.48C214.628 108.627 214.408 107.64 214.408 106.52ZM223.948 106.54C223.948 105.66 223.768 104.887 223.408 104.22C223.048 103.553 222.555 103.04 221.928 102.68C221.315 102.32 220.635 102.14 219.888 102.14C219.115 102.14 218.421 102.313 217.808 102.66C217.195 103.007 216.708 103.513 216.348 104.18C216.001 104.833 215.828 105.613 215.828 106.52C215.828 107.413 216.001 108.2 216.348 108.88C216.708 109.547 217.195 110.06 217.808 110.42C218.421 110.767 219.115 110.94 219.888 110.94C220.635 110.94 221.315 110.76 221.928 110.4C222.555 110.04 223.048 109.527 223.408 108.86C223.768 108.193 223.948 107.42 223.948 106.54ZM228.404 112.1C228.111 112.1 227.864 112 227.664 111.8C227.477 111.6 227.384 111.353 227.384 111.06C227.384 110.767 227.477 110.527 227.664 110.34C227.864 110.14 228.111 110.04 228.404 110.04C228.684 110.04 228.917 110.14 229.104 110.34C229.304 110.527 229.404 110.767 229.404 111.06C229.404 111.353 229.304 111.6 229.104 111.8C228.917 112 228.684 112.1 228.404 112.1Z" fill="black"/>
<g clip-path="url(#clip0_2831_78931)">
<path d="M13.6828 28.6016H1.59766V68.0001H13.6828V28.6016Z" fill="black"/>
<path d="M7.38672 10C2.93047 10 0 12.9358 0 16.8337C0 20.6576 2.83359 23.6674 7.21719 23.6674H7.31406C11.8672 23.6674 14.7008 20.6329 14.6766 16.8337C14.5797 12.9358 11.843 10 7.38672 10Z" fill="black"/>
<path d="M46.6945 28.2314C39.768 28.2314 35.4328 32.08 34.6336 34.7938V28.6015H21.0469C21.2164 31.8827 21.0469 68.0001 21.0469 68.0001H34.6336V46.7095C34.6336 45.5007 34.5852 44.3165 34.9242 43.4777C35.8445 41.1094 37.8547 38.6423 41.4633 38.6423C46.1859 38.6423 48.3172 42.2935 48.3172 47.6223V68.0001H62.025V46.0928C62.025 33.9056 55.2922 28.2314 46.6945 28.2314Z" fill="black"/>
</g>
<g clip-path="url(#clip1_2831_78931)">
<path d="M179 15.2163C175.957 16.4448 172.655 17.2639 169.224 17.6441C172.752 15.7428 175.439 12.7299 176.702 9.13205C173.4 10.8871 169.774 12.1742 165.89 12.8762C162.782 9.89258 158.347 8.02051 153.459 8.02051C144.071 8.02051 136.432 14.9238 136.432 23.4066C136.432 24.6059 136.561 25.776 136.885 26.9168C122.739 26.2732 110.179 20.1597 101.794 10.8286C100.338 13.1102 99.4961 15.7428 99.4961 18.5802C99.4961 23.9039 102.507 28.6133 107.071 31.3922C104.287 31.3044 101.665 30.6024 99.3666 29.4616V29.6371C99.3666 37.0962 105.226 43.3267 113.027 44.7307C111.603 45.0817 110.082 45.2865 108.528 45.2865C107.427 45.2865 106.359 45.1987 105.323 45.0232C107.492 51.1367 113.772 55.5829 121.217 55.6999C115.39 59.8243 108.042 62.2814 100.079 62.2814C98.7192 62.2814 97.3596 62.2229 96 62.0767C103.543 66.4351 112.477 68.9799 122.091 68.9799C153.427 68.9799 170.551 45.5205 170.551 25.1909C170.551 24.5182 170.551 23.8454 170.519 23.2019C173.853 21.008 176.734 18.3169 179 15.2163Z" fill="black"/>
</g>
<path d="M272.045 40.6575C272.045 40.699 272.047 40.7477 272.047 40.7965C272.047 44.3357 269.215 47.2046 265.721 47.2046C262.227 47.2046 259.395 44.3357 259.395 40.7965C259.395 37.2572 262.227 34.3883 265.721 34.3883C266.869 34.3883 267.947 34.6978 268.876 35.2414L268.844 35.2243C270.731 36.3236 271.994 38.337 272.047 40.6502L272.045 40.6575ZM272.714 49.0815C271.809 49.8737 270.753 50.5245 269.6 50.9755L269.528 50.9998C268.339 51.48 266.963 51.7603 265.524 51.7603C263.214 51.7603 261.07 51.0437 259.296 49.8176L259.335 49.842V50.9998H254.794V18.8029H259.304V31.3219C260.829 30.264 262.68 29.5693 264.677 29.406L264.718 29.4036H265.529C265.533 29.4036 265.541 29.4036 265.545 29.4036C271.64 29.4036 276.58 34.4078 276.58 40.582C276.58 43.9774 275.086 47.017 272.728 49.0669L272.714 49.0815ZM238.6 46.5075C239.373 46.8731 240.277 47.0852 241.23 47.0852C243.781 47.0852 245.98 45.5618 246.988 43.3631L247.005 43.3241H251.996C250.771 48.2845 246.411 51.8993 241.216 51.8993C235.087 51.8993 230.121 46.8683 230.121 40.66C230.121 34.4516 235.089 29.4206 241.216 29.4206C246.411 29.4206 250.771 33.0355 251.979 37.9178L251.996 37.9958H247.005C245.98 35.7581 243.781 34.2347 241.233 34.2347C237.729 34.2347 234.887 37.1134 234.887 40.6624C234.887 43.2461 236.391 45.474 238.562 46.4953L238.6 46.5124V46.5075ZM282.367 2.44727H224.634C220.654 2.46433 217.435 5.72814 217.418 9.75489V68.2403C217.435 72.2719 220.657 75.5333 224.632 75.5503H282.367C286.347 75.5333 289.567 72.2695 289.584 68.2427V9.75733C289.567 5.7257 286.343 2.46433 282.367 2.44727Z" fill="black"/>
<defs>
<clipPath id="clip0_2831_78931">
<rect width="62" height="58" fill="white" transform="translate(0 10)"/>
</clipPath>
<clipPath id="clip1_2831_78931">
<rect width="83" height="75" fill="white" transform="translate(96 1)"/>
</clipPath>
</defs>
</svg>
